<svg class="main-svg" xmlns="http://www.w3.org/2000/svg" xmlns:xlink="http://www.w3.org/1999/xlink" width="1000" height="600" style="" viewBox="0 0 1000 600"><rect x="0" y="0" width="1000" height="600" style="fill: rgb(34, 37, 41); fill-opacity: 1;"/><defs id="defs-2ffadf"><g class="clips"><clipPath id="clip2ffadfxyplot" class="plotclip"><rect width="915" height="380"/></clipPath><clipPath class="axesclip" id="clip2ffadfx"><rect x="65" y="0" width="915" height="600"/></clipPath><clipPath class="axesclip" id="clip2ffadfy"><rect x="0" y="50" width="1000" height="380"/></clipPath><clipPath class="axesclip" id="clip2ffadfxy"><rect x="65" y="50" width="915" height="380"/></clipPath></g><g class="gradients"/><g class="patterns"/></defs><g class="bglayer"/><g class="layer-below"><g class="imagelayer"/><g class="shapelayer"/></g><g class="cartesianlayer"><g class="subplot xy"><g class="layer-subplot"><g class="shapelayer"/><g class="imagelayer"/></g><g class="minor-gridlayer"><g class="x"/><g class="y"/></g><g class="gridlayer"><g class="x"/><g class="y"><path class="ygrid crisp" transform="translate(0,342.34)" d="M65,0h915" style="stroke: rgb(235, 240, 248); stroke-opacity: 1; stroke-width: 1px;"/><path class="ygrid crisp" transform="translate(0,254.69)" d="M65,0h915" style="stroke: rgb(235, 240, 248); stroke-opacity: 1; stroke-width: 1px;"/><path class="ygrid crisp" transform="translate(0,167.03)" d="M65,0h915" style="stroke: rgb(235, 240, 248); stroke-opacity: 1; stroke-width: 1px;"/><path class="ygrid crisp" transform="translate(0,79.37)" d="M65,0h915" style="stroke: rgb(235, 240, 248); stroke-opacity: 1; stroke-width: 1px;"/></g></g><g class="zerolinelayer"><path class="yzl zl crisp" transform="translate(0,430)" d="M65,0h915" style="stroke: rgb(235, 240, 248); stroke-opacity: 1; stroke-width: 2px;"/></g><g class="layer-between"><g class="shapelayer"/><g class="imagelayer"/></g><path class="xlines-below"/><path class="ylines-below"/><g class="overlines-below"/><g class="xaxislayer-below"/><g class="yaxislayer-below"/><g class="overaxes-below"/><g class="overplot"><g class="xy" transform="translate(65,50)" clip-path="url(#clip2ffadfxyplot)"><g class="barlayer mlayer"><g class="trace bars" style="opacity: 1;"><g class="points"><g class="point"><path d="M1.83,380V333.12H34.77V380Z" style="vector-effect: none; opacity: 1; stroke-width: 0.5px; fill: rgb(99, 110, 250); fill-opacity: 1; stroke: rgb(255, 255, 255); stroke-opacity: 1;"/></g><g class="point"><path d="M38.43,380V359.73H71.37V380Z" style="vector-effect: none; opacity: 1; stroke-width: 0.5px; fill: rgb(99, 110, 250); fill-opacity: 1; stroke: rgb(255, 255, 255); stroke-opacity: 1;"/></g><g class="point"><path d="M75.03,380V321.18H107.97V380Z" style="vector-effect: none; opacity: 1; stroke-width: 0.5px; fill: rgb(99, 110, 250); fill-opacity: 1; stroke: rgb(255, 255, 255); stroke-opacity: 1;"/></g><g class="point"><path d="M111.63,380V273.98H144.57V380Z" style="vector-effect: none; opacity: 1; stroke-width: 0.5px; fill: rgb(99, 110, 250); fill-opacity: 1; stroke: rgb(255, 255, 255); stroke-opacity: 1;"/></g><g class="point"><path d="M148.23,380V342.23H181.17V380Z" style="vector-effect: none; opacity: 1; stroke-width: 0.5px; fill: rgb(99, 110, 250); fill-opacity: 1; stroke: rgb(255, 255, 255); stroke-opacity: 1;"/></g><g class="point"><path d="M184.83,380V338.92H217.77V380Z" style="vector-effect: none; opacity: 1; stroke-width: 0.5px; fill: rgb(99, 110, 250); fill-opacity: 1; stroke: rgb(255, 255, 255); stroke-opacity: 1;"/></g><g class="point"><path d="M221.43,380V325.92H254.37V380Z" style="vector-effect: none; opacity: 1; stroke-width: 0.5px; fill: rgb(99, 110, 250); fill-opacity: 1; stroke: rgb(255, 255, 255); stroke-opacity: 1;"/></g><g class="point"><path d="M258.03,380V236.94H290.97V380Z" style="vector-effect: none; opacity: 1; stroke-width: 0.5px; fill: rgb(99, 110, 250); fill-opacity: 1; stroke: rgb(255, 255, 255); stroke-opacity: 1;"/></g><g class="point"><path d="M294.63,380V34.68H327.57V380Z" style="vector-effect: none; opacity: 1; stroke-width: 0.5px; fill: rgb(99, 110, 250); fill-opacity: 1; stroke: rgb(255, 255, 255); stroke-opacity: 1;"/></g><g class="point"><path d="M331.23,380V250.93H364.17V380Z" style="vector-effect: none; opacity: 1; stroke-width: 0.5px; fill: rgb(99, 110, 250); fill-opacity: 1; stroke: rgb(255, 255, 255); stroke-opacity: 1;"/></g><g class="point"><path d="M367.83,380V358.16H400.77V380Z" style="vector-effect: none; opacity: 1; stroke-width: 0.5px; fill: rgb(99, 110, 250); fill-opacity: 1; stroke: rgb(255, 255, 255); stroke-opacity: 1;"/></g><g class="point"><path d="M404.43,380V346.85H437.37V380Z" style="vector-effect: none; opacity: 1; stroke-width: 0.5px; fill: rgb(99, 110, 250); fill-opacity: 1; stroke: rgb(255, 255, 255); stroke-opacity: 1;"/></g><g class="point"><path d="M441.03,380V232.62H473.97V380Z" style="vector-effect: none; opacity: 1; stroke-width: 0.5px; fill: rgb(99, 110, 250); fill-opacity: 1; stroke: rgb(255, 255, 255); stroke-opacity: 1;"/></g><g class="point"><path d="M477.63,380V367.92H510.57V380Z" style="vector-effect: none; opacity: 1; stroke-width: 0.5px; fill: rgb(99, 110, 250); fill-opacity: 1; stroke: rgb(255, 255, 255); stroke-opacity: 1;"/></g><g class="point"><path d="M514.23,380V251.74H547.17V380Z" style="vector-effect: none; opacity: 1; stroke-width: 0.5px; fill: rgb(99, 110, 250); fill-opacity: 1; stroke: rgb(255, 255, 255); stroke-opacity: 1;"/></g><g class="point"><path d="M550.83,380V280.01H583.77V380Z" style="vector-effect: none; opacity: 1; stroke-width: 0.5px; fill: rgb(99, 110, 250); fill-opacity: 1; stroke: rgb(255, 255, 255); stroke-opacity: 1;"/></g><g class="point"><path d="M587.43,380V350.41H620.37V380Z" style="vector-effect: none; opacity: 1; stroke-width: 0.5px; fill: rgb(99, 110, 250); fill-opacity: 1; stroke: rgb(255, 255, 255); stroke-opacity: 1;"/></g><g class="point"><path d="M624.03,380V337.94H656.97V380Z" style="vector-effect: none; opacity: 1; stroke-width: 0.5px; fill: rgb(99, 110, 250); fill-opacity: 1; stroke: rgb(255, 255, 255); stroke-opacity: 1;"/></g><g class="point"><path d="M660.63,380V309.46H693.57V380Z" style="vector-effect: none; opacity: 1; stroke-width: 0.5px; fill: rgb(99, 110, 250); fill-opacity: 1; stroke: rgb(255, 255, 255); stroke-opacity: 1;"/></g><g class="point"><path d="M697.23,380V298.29H730.17V380Z" style="vector-effect: none; opacity: 1; stroke-width: 0.5px; fill: rgb(99, 110, 250); fill-opacity: 1; stroke: rgb(255, 255, 255); stroke-opacity: 1;"/></g><g class="point"><path d="M733.83,380V363.29H766.77V380Z" style="vector-effect: none; opacity: 1; stroke-width: 0.5px; fill: rgb(99, 110, 250); fill-opacity: 1; stroke: rgb(255, 255, 255); stroke-opacity: 1;"/></g><g class="point"><path d="M770.43,380V351.98H803.37V380Z" style="vector-effect: none; opacity: 1; stroke-width: 0.5px; fill: rgb(99, 110, 250); fill-opacity: 1; stroke: rgb(255, 255, 255); stroke-opacity: 1;"/></g><g class="point"><path d="M807.03,380V359.11H839.97V380Z" style="vector-effect: none; opacity: 1; stroke-width: 0.5px; fill: rgb(99, 110, 250); fill-opacity: 1; stroke: rgb(255, 255, 255); stroke-opacity: 1;"/></g><g class="point"><path d="M843.63,380V380H876.57V380Z" style="vector-effect: none; opacity: 1; stroke-width: 0.5px; fill: rgb(99, 110, 250); fill-opacity: 1; stroke: rgb(255, 255, 255); stroke-opacity: 1;"/></g><g class="point"><path d="M880.23,380V341.43H913.17V380Z" style="vector-effect: none; opacity: 1; stroke-width: 0.5px; fill: rgb(99, 110, 250); fill-opacity: 1; stroke: rgb(255, 255, 255); stroke-opacity: 1;"/></g></g><g class="errorbar" style="opacity: 1;"><path class="yerror" d="M13.3,329.54h10m-5,0V336.7m-5,0h10" style="vector-effect: none; stroke-width: 1.5px; stroke: rgb(42, 63, 95); stroke-opacity: 1;"/></g><g class="errorbar" style="opacity: 1;"><path class="yerror" d="M49.9,358.12h10m-5,0V361.35m-5,0h10" style="vector-effect: none; stroke-width: 1.5px; stroke: rgb(42, 63, 95); stroke-opacity: 1;"/></g><g class="errorbar" style="opacity: 1;"><path class="yerror" d="M86.5,317.8h10m-5,0V324.56m-5,0h10" style="vector-effect: none; stroke-width: 1.5px; stroke: rgb(42, 63, 95); stroke-opacity: 1;"/></g><g class="errorbar" style="opacity: 1;"><path class="yerror" d="M123.1,267.83h10m-5,0V280.13m-5,0h10" style="vector-effect: none; stroke-width: 1.5px; stroke: rgb(42, 63, 95); stroke-opacity: 1;"/></g><g class="errorbar" style="opacity: 1;"><path class="yerror" d="M159.7,339.52h10m-5,0V344.94m-5,0h10" style="vector-effect: none; stroke-width: 1.5px; stroke: rgb(42, 63, 95); stroke-opacity: 1;"/></g><g class="errorbar" style="opacity: 1;"><path class="yerror" d="M196.3,334.73h10m-5,0V343.11m-5,0h10" style="vector-effect: none; stroke-width: 1.5px; stroke: rgb(42, 63, 95); stroke-opacity: 1;"/></g><g class="errorbar" style="opacity: 1;"><path class="yerror" d="M232.9,320.78h10m-5,0V331.07m-5,0h10" style="vector-effect: none; stroke-width: 1.5px; stroke: rgb(42, 63, 95); stroke-opacity: 1;"/></g><g class="errorbar" style="opacity: 1;"><path class="yerror" d="M269.5,230.57h10m-5,0V243.31m-5,0h10" style="vector-effect: none; stroke-width: 1.5px; stroke: rgb(42, 63, 95); stroke-opacity: 1;"/></g><g class="errorbar" style="opacity: 1;"><path class="yerror" d="M306.1,19h10m-5,0V50.36m-5,0h10" style="vector-effect: none; stroke-width: 1.5px; stroke: rgb(42, 63, 95); stroke-opacity: 1;"/></g><g class="errorbar" style="opacity: 1;"><path class="yerror" d="M342.7,244.28h10m-5,0V257.59m-5,0h10" style="vector-effect: none; stroke-width: 1.5px; stroke: rgb(42, 63, 95); stroke-opacity: 1;"/></g><g class="errorbar" style="opacity: 1;"><path class="yerror" d="M379.3,356.16h10m-5,0V360.16m-5,0h10" style="vector-effect: none; stroke-width: 1.5px; stroke: rgb(42, 63, 95); stroke-opacity: 1;"/></g><g class="errorbar" style="opacity: 1;"><path class="yerror" d="M415.9,344.48h10m-5,0V349.22m-5,0h10" style="vector-effect: none; stroke-width: 1.5px; stroke: rgb(42, 63, 95); stroke-opacity: 1;"/></g><g class="errorbar" style="opacity: 1;"><path class="yerror" d="M452.5,220.54h10m-5,0V244.69m-5,0h10" style="vector-effect: none; stroke-width: 1.5px; stroke: rgb(42, 63, 95); stroke-opacity: 1;"/></g><g class="errorbar" style="opacity: 1;"><path class="yerror" d="M489.1,366.79h10m-5,0V369.05m-5,0h10" style="vector-effect: none; stroke-width: 1.5px; stroke: rgb(42, 63, 95); stroke-opacity: 1;"/></g><g class="errorbar" style="opacity: 1;"><path class="yerror" d="M525.7,242.97h10m-5,0V260.52m-5,0h10" style="vector-effect: none; stroke-width: 1.5px; stroke: rgb(42, 63, 95); stroke-opacity: 1;"/></g><g class="errorbar" style="opacity: 1;"><path class="yerror" d="M562.3,270.53h10m-5,0V289.49m-5,0h10" style="vector-effect: none; stroke-width: 1.5px; stroke: rgb(42, 63, 95); stroke-opacity: 1;"/></g><g class="errorbar" style="opacity: 1;"><path class="yerror" d="M598.9,347.13h10m-5,0V353.68m-5,0h10" style="vector-effect: none; stroke-width: 1.5px; stroke: rgb(42, 63, 95); stroke-opacity: 1;"/></g><g class="errorbar" style="opacity: 1;"><path class="yerror" d="M635.5,334.5h10m-5,0V341.37m-5,0h10" style="vector-effect: none; stroke-width: 1.5px; stroke: rgb(42, 63, 95); stroke-opacity: 1;"/></g><g class="errorbar" style="opacity: 1;"><path class="yerror" d="M672.1,302.89h10m-5,0V316.03m-5,0h10" style="vector-effect: none; stroke-width: 1.5px; stroke: rgb(42, 63, 95); stroke-opacity: 1;"/></g><g class="errorbar" style="opacity: 1;"><path class="yerror" d="M708.7,293.52h10m-5,0V303.05m-5,0h10" style="vector-effect: none; stroke-width: 1.5px; stroke: rgb(42, 63, 95); stroke-opacity: 1;"/></g><g class="errorbar" style="opacity: 1;"><path class="yerror" d="M745.3,361.32h10m-5,0V365.26m-5,0h10" style="vector-effect: none; stroke-width: 1.5px; stroke: rgb(42, 63, 95); stroke-opacity: 1;"/></g><g class="errorbar" style="opacity: 1;"><path class="yerror" d="M781.9,349.24h10m-5,0V354.73m-5,0h10" style="vector-effect: none; stroke-width: 1.5px; stroke: rgb(42, 63, 95); stroke-opacity: 1;"/></g><g class="errorbar" style="opacity: 1;"><path class="yerror" d="M818.5,357.12h10m-5,0V361.1m-5,0h10" style="vector-effect: none; stroke-width: 1.5px; stroke: rgb(42, 63, 95); stroke-opacity: 1;"/></g><g class="errorbar" style="opacity: 1;"><path class="yerror" d="M855.1,380h10m-5,0V380m-5,0h10" style="vector-effect: none; stroke-width: 1.5px; stroke: rgb(42, 63, 95); stroke-opacity: 1;"/></g><g class="errorbar" style="opacity: 1;"><path class="yerror" d="M891.7,337.35h10m-5,0V345.51m-5,0h10" style="vector-effect: none; stroke-width: 1.5px; stroke: rgb(42, 63, 95); stroke-opacity: 1;"/></g></g></g></g></g><path class="xlines-above crisp" d="M0,0" style="fill: none;"/><path class="ylines-above crisp" d="M0,0" style="fill: none;"/><g class="overlines-above"/><g class="xaxislayer-above"><g class="xtick"><text text-anchor="start" x="1.75" y="436" transform="translate(83.3,0) rotate(90,1.75,431)" style="font-family: 'Open Sans', verdana, arial, sans-serif; font-size: 10px; fill: rgb(42, 63, 95); fill-opacity: 1; white-space: pre; opacity: 1;">Molecular Weight</text></g><g class="xtick"><text text-anchor="start" x="1.75" y="436" transform="translate(119.9,0) rotate(90,1.75,431)" style="font-family: 'Open Sans', verdana, arial, sans-serif; font-size: 10px; fill: rgb(42, 63, 95); fill-opacity: 1; white-space: pre; opacity: 1;">C LogP</text></g><g class="xtick"><text text-anchor="start" x="1.75" y="436" transform="translate(156.5,0) rotate(90,1.75,431)" style="font-family: 'Open Sans', verdana, arial, sans-serif; font-size: 10px; fill: rgb(42, 63, 95); fill-opacity: 1; white-space: pre; opacity: 1;">FractionCSP3</text></g><g class="xtick"><text text-anchor="start" x="1.75" y="436" transform="translate(193.1,0) rotate(90,1.75,431)" style="font-family: 'Open Sans', verdana, arial, sans-serif; font-size: 10px; fill: rgb(42, 63, 95); fill-opacity: 1; white-space: pre; opacity: 1;">HallKierAlpha</text></g><g class="xtick"><text text-anchor="start" x="1.75" y="436" transform="translate(229.7,0) rotate(90,1.75,431)" style="font-family: 'Open Sans', verdana, arial, sans-serif; font-size: 10px; fill: rgb(42, 63, 95); fill-opacity: 1; white-space: pre; opacity: 1;">Ipc</text></g><g class="xtick"><text text-anchor="start" x="1.75" y="436" transform="translate(266.3,0) rotate(90,1.75,431)" style="font-family: 'Open Sans', verdana, arial, sans-serif; font-size: 10px; fill: rgb(42, 63, 95); fill-opacity: 1; white-space: pre; opacity: 1;">Kappa2</text></g><g class="xtick"><text text-anchor="start" x="1.75" y="436" transform="translate(302.9,0) rotate(90,1.75,431)" style="font-family: 'Open Sans', verdana, arial, sans-serif; font-size: 10px; fill: rgb(42, 63, 95); fill-opacity: 1; white-space: pre; opacity: 1;">Kappa3</text></g><g class="xtick"><text text-anchor="start" x="1.75" y="436" transform="translate(339.5,0) rotate(90,1.75,431)" style="font-family: 'Open Sans', verdana, arial, sans-serif; font-size: 10px; fill: rgb(42, 63, 95); fill-opacity: 1; white-space: pre; opacity: 1;">MaxAbsEStateIndex</text></g><g class="xtick"><text text-anchor="start" x="1.75" y="436" transform="translate(376.1,0) rotate(90,1.75,431)" style="font-family: 'Open Sans', verdana, arial, sans-serif; font-size: 10px; fill: rgb(42, 63, 95); fill-opacity: 1; white-space: pre; opacity: 1;">MaxAbsPartialCharge</text></g><g class="xtick"><text text-anchor="start" x="1.75" y="436" transform="translate(412.7,0) rotate(90,1.75,431)" style="font-family: 'Open Sans', verdana, arial, sans-serif; font-size: 10px; fill: rgb(42, 63, 95); fill-opacity: 1; white-space: pre; opacity: 1;">MaxPartialCharge</text></g><g class="xtick"><text text-anchor="start" x="1.75" y="436" transform="translate(449.3,0) rotate(90,1.75,431)" style="font-family: 'Open Sans', verdana, arial, sans-serif; font-size: 10px; fill: rgb(42, 63, 95); fill-opacity: 1; white-space: pre; opacity: 1;">MinAbsEStateIndex</text></g><g class="xtick"><text text-anchor="start" x="1.75" y="436" transform="translate(485.9,0) rotate(90,1.75,431)" style="font-family: 'Open Sans', verdana, arial, sans-serif; font-size: 10px; fill: rgb(42, 63, 95); fill-opacity: 1; white-space: pre; opacity: 1;">MinEStateIndex</text></g><g class="xtick"><text text-anchor="start" x="1.75" y="436" transform="translate(522.5,0) rotate(90,1.75,431)" style="font-family: 'Open Sans', verdana, arial, sans-serif; font-size: 10px; fill: rgb(42, 63, 95); fill-opacity: 1; white-space: pre; opacity: 1;">NHOHCount</text></g><g class="xtick"><text text-anchor="start" x="1.75" y="436" transform="translate(559.1,0) rotate(90,1.75,431)" style="font-family: 'Open Sans', verdana, arial, sans-serif; font-size: 10px; fill: rgb(42, 63, 95); fill-opacity: 1; white-space: pre; opacity: 1;">NOCount</text></g><g class="xtick"><text text-anchor="start" x="1.75" y="436" transform="translate(595.7,0) rotate(90,1.75,431)" style="font-family: 'Open Sans', verdana, arial, sans-serif; font-size: 10px; fill: rgb(42, 63, 95); fill-opacity: 1; white-space: pre; opacity: 1;">NumAliphaticCarbocycles</text></g><g class="xtick"><text text-anchor="start" x="1.75" y="436" transform="translate(632.3,0) rotate(90,1.75,431)" style="font-family: 'Open Sans', verdana, arial, sans-serif; font-size: 10px; fill: rgb(42, 63, 95); fill-opacity: 1; white-space: pre; opacity: 1;">NumAliphaticHeterocycles</text></g><g class="xtick"><text text-anchor="start" x="1.75" y="436" transform="translate(668.9,0) rotate(90,1.75,431)" style="font-family: 'Open Sans', verdana, arial, sans-serif; font-size: 10px; fill: rgb(42, 63, 95); fill-opacity: 1; white-space: pre; opacity: 1;">NumAliphaticRings</text></g><g class="xtick"><text text-anchor="start" x="1.75" y="436" transform="translate(705.5,0) rotate(90,1.75,431)" style="font-family: 'Open Sans', verdana, arial, sans-serif; font-size: 10px; fill: rgb(42, 63, 95); fill-opacity: 1; white-space: pre; opacity: 1;">NumAromaticCarbocycles</text></g><g class="xtick"><text text-anchor="start" x="1.75" y="436" transform="translate(742.1,0) rotate(90,1.75,431)" style="font-family: 'Open Sans', verdana, arial, sans-serif; font-size: 10px; fill: rgb(42, 63, 95); fill-opacity: 1; white-space: pre; opacity: 1;">NumAromaticHeterocycles</text></g><g class="xtick"><text text-anchor="start" x="1.75" y="436" transform="translate(778.7,0) rotate(90,1.75,431)" style="font-family: 'Open Sans', verdana, arial, sans-serif; font-size: 10px; fill: rgb(42, 63, 95); fill-opacity: 1; white-space: pre; opacity: 1;">NumAromaticRings</text></g><g class="xtick"><text text-anchor="start" x="1.75" y="436" transform="translate(815.3,0) rotate(90,1.75,431)" style="font-family: 'Open Sans', verdana, arial, sans-serif; font-size: 10px; fill: rgb(42, 63, 95); fill-opacity: 1; white-space: pre; opacity: 1;">NumHAcceptors</text></g><g class="xtick"><text text-anchor="start" x="1.75" y="436" transform="translate(851.9,0) rotate(90,1.75,431)" style="font-family: 'Open Sans', verdana, arial, sans-serif; font-size: 10px; fill: rgb(42, 63, 95); fill-opacity: 1; white-space: pre; opacity: 1;">NumHDonors</text></g><g class="xtick"><text text-anchor="start" x="1.75" y="436" transform="translate(888.5,0) rotate(90,1.75,431)" style="font-family: 'Open Sans', verdana, arial, sans-serif; font-size: 10px; fill: rgb(42, 63, 95); fill-opacity: 1; white-space: pre; opacity: 1;">NumHeteroatoms</text></g><g class="xtick"><text text-anchor="start" x="1.75" y="436" transform="translate(925.1,0) rotate(90,1.75,431)" style="font-family: 'Open Sans', verdana, arial, sans-serif; font-size: 10px; fill: rgb(42, 63, 95); fill-opacity: 1; white-space: pre; opacity: 1;">NumRadicalElectrons</text></g><g class="xtick"><text text-anchor="start" x="1.75" y="436" transform="translate(961.7,0) rotate(90,1.75,431)" style="font-family: 'Open Sans', verdana, arial, sans-serif; font-size: 10px; fill: rgb(42, 63, 95); fill-opacity: 1; white-space: pre; opacity: 1;">NumRotatableBonds</text></g></g><g class="yaxislayer-above"><g class="ytick"><text text-anchor="end" x="64" y="4.199999999999999" transform="translate(0,430)" style="font-family: 'Open Sans', verdana, arial, sans-serif; font-size: 12px; fill: rgb(42, 63, 95); fill-opacity: 1; white-space: pre; opacity: 1;">0</text></g><g class="ytick"><text text-anchor="end" x="64" y="4.199999999999999" style="font-family: 'Open Sans', verdana, arial, sans-serif; font-size: 12px; fill: rgb(42, 63, 95); fill-opacity: 1; white-space: pre; opacity: 1;" transform="translate(0,342.34)">0.05</text></g><g class="ytick"><text text-anchor="end" x="64" y="4.199999999999999" style="font-family: 'Open Sans', verdana, arial, sans-serif; font-size: 12px; fill: rgb(42, 63, 95); fill-opacity: 1; white-space: pre; opacity: 1;" transform="translate(0,254.69)">0.1</text></g><g class="ytick"><text text-anchor="end" x="64" y="4.199999999999999" style="font-family: 'Open Sans', verdana, arial, sans-serif; font-size: 12px; fill: rgb(42, 63, 95); fill-opacity: 1; white-space: pre; opacity: 1;" transform="translate(0,167.03)">0.15</text></g><g class="ytick"><text text-anchor="end" x="64" y="4.199999999999999" style="font-family: 'Open Sans', verdana, arial, sans-serif; font-size: 12px; fill: rgb(42, 63, 95); fill-opacity: 1; white-space: pre; opacity: 1;" transform="translate(0,79.37)">0.2</text></g></g><g class="overaxes-above"/></g></g><g class="polarlayer"/><g class="smithlayer"/><g class="ternarylayer"/><g class="geolayer"/><g class="funnelarealayer"/><g class="pielayer"/><g class="iciclelayer"/><g class="treemaplayer"/><g class="sunburstlayer"/><g class="glimages"/><defs id="topdefs-2ffadf"><g class="clips"/></defs><g class="layer-above"><g class="imagelayer"/><g class="shapelayer"/></g><g class="infolayer"><g class="g-gtitle"><text class="gtitle" x="500" y="25" text-anchor="middle" dy="0em" style="opacity: 1; font-family: 'Open Sans', verdana, arial, sans-serif; font-size: 17px; fill: rgb(42, 63, 95); fill-opacity: 1; white-space: pre;">Feature Importances with Confidence Intervals</text></g><g class="g-xtitle"><text class="xtitle" x="522.5" y="587.503125" text-anchor="middle" style="opacity: 1; font-family: 'Open Sans', verdana, arial, sans-serif; font-size: 14px; fill: rgb(42, 63, 95); fill-opacity: 1; white-space: pre;">Features</text></g><g class="g-ytitle"><text class="ytitle" transform="rotate(-90,17.334375,240)" x="17.334375" y="240" text-anchor="middle" style="opacity: 1; font-family: 'Open Sans', verdana, arial, sans-serif; font-size: 14px; fill: rgb(42, 63, 95); fill-opacity: 1; white-space: pre;">MDI (Mean Decrease in Impurity)</text></g></g></svg>
