<svg class="main-svg" xmlns="http://www.w3.org/2000/svg" xmlns:xlink="http://www.w3.org/1999/xlink" width="700" height="500" style="" viewBox="0 0 700 500"><rect x="0" y="0" width="700" height="500" style="fill: rgb(34, 37, 41); fill-opacity: 1;"/><defs id="defs-c4faed"><g class="clips"><clipPath id="clipc4faedxyplot" class="plotclip"><rect width="540" height="230"/></clipPath><clipPath class="axesclip" id="clipc4faedx"><rect x="80" y="0" width="540" height="500"/></clipPath><clipPath class="axesclip" id="clipc4faedy"><rect x="0" y="100" width="700" height="230"/></clipPath><clipPath class="axesclip" id="clipc4faedxy"><rect x="80" y="100" width="540" height="230"/></clipPath></g><g class="gradients"/><g class="patterns"/></defs><g class="bglayer"/><g class="layer-below"><g class="imagelayer"/><g class="shapelayer"/></g><g class="cartesianlayer"><g class="subplot xy"><g class="layer-subplot"><g class="shapelayer"/><g class="imagelayer"/></g><g class="minor-gridlayer"><g class="x"/><g class="y"/></g><g class="gridlayer"><g class="x"/><g class="y"><path class="ygrid crisp" transform="translate(0,277.03999999999996)" d="M80,0h540" style="stroke: rgb(40, 52, 66); stroke-opacity: 1; stroke-width: 1px;"/><path class="ygrid crisp" transform="translate(0,224.07999999999998)" d="M80,0h540" style="stroke: rgb(40, 52, 66); stroke-opacity: 1; stroke-width: 1px;"/><path class="ygrid crisp" transform="translate(0,171.12)" d="M80,0h540" style="stroke: rgb(40, 52, 66); stroke-opacity: 1; stroke-width: 1px;"/><path class="ygrid crisp" transform="translate(0,118.16)" d="M80,0h540" style="stroke: rgb(40, 52, 66); stroke-opacity: 1; stroke-width: 1px;"/></g></g><g class="zerolinelayer"><path class="yzl zl crisp" transform="translate(0,330)" d="M80,0h540" style="stroke: rgb(40, 52, 66); stroke-opacity: 1; stroke-width: 2px;"/></g><g class="layer-between"><g class="shapelayer"/><g class="imagelayer"/></g><path class="xlines-below"/><path class="ylines-below"/><g class="overlines-below"/><g class="xaxislayer-below"/><g class="yaxislayer-below"/><g class="overaxes-below"/><g class="overplot"><g class="xy" transform="translate(80,100)" clip-path="url(#clipc4faedxyplot)"><g class="barlayer mlayer"><g class="trace bars" style="opacity: 1;"><g class="points"><g class="point"><path d="M1.08,230V201.68H20.52V230Z" style="vector-effect: none; opacity: 1; stroke-width: 0.5px; fill: rgb(99, 110, 250); fill-opacity: 1; stroke: rgb(17, 17, 17); stroke-opacity: 1;"/></g><g class="point"><path d="M22.68,230V217.75H42.12V230Z" style="vector-effect: none; opacity: 1; stroke-width: 0.5px; fill: rgb(99, 110, 250); fill-opacity: 1; stroke: rgb(17, 17, 17); stroke-opacity: 1;"/></g><g class="point"><path d="M44.28,230V194.46H63.72V230Z" style="vector-effect: none; opacity: 1; stroke-width: 0.5px; fill: rgb(99, 110, 250); fill-opacity: 1; stroke: rgb(17, 17, 17); stroke-opacity: 1;"/></g><g class="point"><path d="M65.88,230V165.95H85.32V230Z" style="vector-effect: none; opacity: 1; stroke-width: 0.5px; fill: rgb(99, 110, 250); fill-opacity: 1; stroke: rgb(17, 17, 17); stroke-opacity: 1;"/></g><g class="point"><path d="M87.48,230V207.18H106.92V230Z" style="vector-effect: none; opacity: 1; stroke-width: 0.5px; fill: rgb(99, 110, 250); fill-opacity: 1; stroke: rgb(17, 17, 17); stroke-opacity: 1;"/></g><g class="point"><path d="M109.08,230V205.18H128.52V230Z" style="vector-effect: none; opacity: 1; stroke-width: 0.5px; fill: rgb(99, 110, 250); fill-opacity: 1; stroke: rgb(17, 17, 17); stroke-opacity: 1;"/></g><g class="point"><path d="M130.68,230V197.33H150.12V230Z" style="vector-effect: none; opacity: 1; stroke-width: 0.5px; fill: rgb(99, 110, 250); fill-opacity: 1; stroke: rgb(17, 17, 17); stroke-opacity: 1;"/></g><g class="point"><path d="M152.28,230V143.57H171.72V230Z" style="vector-effect: none; opacity: 1; stroke-width: 0.5px; fill: rgb(99, 110, 250); fill-opacity: 1; stroke: rgb(17, 17, 17); stroke-opacity: 1;"/></g><g class="point"><path d="M173.88,230V21.37H193.32V230Z" style="vector-effect: none; opacity: 1; stroke-width: 0.5px; fill: rgb(99, 110, 250); fill-opacity: 1; stroke: rgb(17, 17, 17); stroke-opacity: 1;"/></g><g class="point"><path d="M195.48,230V152.02H214.92V230Z" style="vector-effect: none; opacity: 1; stroke-width: 0.5px; fill: rgb(99, 110, 250); fill-opacity: 1; stroke: rgb(17, 17, 17); stroke-opacity: 1;"/></g><g class="point"><path d="M217.08,230V216.8H236.52V230Z" style="vector-effect: none; opacity: 1; stroke-width: 0.5px; fill: rgb(99, 110, 250); fill-opacity: 1; stroke: rgb(17, 17, 17); stroke-opacity: 1;"/></g><g class="point"><path d="M238.68,230V209.97H258.12V230Z" style="vector-effect: none; opacity: 1; stroke-width: 0.5px; fill: rgb(99, 110, 250); fill-opacity: 1; stroke: rgb(17, 17, 17); stroke-opacity: 1;"/></g><g class="point"><path d="M260.28,230V140.96H279.72V230Z" style="vector-effect: none; opacity: 1; stroke-width: 0.5px; fill: rgb(99, 110, 250); fill-opacity: 1; stroke: rgb(17, 17, 17); stroke-opacity: 1;"/></g><g class="point"><path d="M281.88,230V222.7H301.32V230Z" style="vector-effect: none; opacity: 1; stroke-width: 0.5px; fill: rgb(99, 110, 250); fill-opacity: 1; stroke: rgb(17, 17, 17); stroke-opacity: 1;"/></g><g class="point"><path d="M303.48,230V152.51H322.92V230Z" style="vector-effect: none; opacity: 1; stroke-width: 0.5px; fill: rgb(99, 110, 250); fill-opacity: 1; stroke: rgb(17, 17, 17); stroke-opacity: 1;"/></g><g class="point"><path d="M325.08,230V169.59H344.52V230Z" style="vector-effect: none; opacity: 1; stroke-width: 0.5px; fill: rgb(99, 110, 250); fill-opacity: 1; stroke: rgb(17, 17, 17); stroke-opacity: 1;"/></g><g class="point"><path d="M346.68,230V212.12H366.12V230Z" style="vector-effect: none; opacity: 1; stroke-width: 0.5px; fill: rgb(99, 110, 250); fill-opacity: 1; stroke: rgb(17, 17, 17); stroke-opacity: 1;"/></g><g class="point"><path d="M368.28,230V204.59H387.72V230Z" style="vector-effect: none; opacity: 1; stroke-width: 0.5px; fill: rgb(99, 110, 250); fill-opacity: 1; stroke: rgb(17, 17, 17); stroke-opacity: 1;"/></g><g class="point"><path d="M389.88,230V187.38H409.32V230Z" style="vector-effect: none; opacity: 1; stroke-width: 0.5px; fill: rgb(99, 110, 250); fill-opacity: 1; stroke: rgb(17, 17, 17); stroke-opacity: 1;"/></g><g class="point"><path d="M411.48,230V180.63H430.92V230Z" style="vector-effect: none; opacity: 1; stroke-width: 0.5px; fill: rgb(99, 110, 250); fill-opacity: 1; stroke: rgb(17, 17, 17); stroke-opacity: 1;"/></g><g class="point"><path d="M433.08,230V219.91H452.52V230Z" style="vector-effect: none; opacity: 1; stroke-width: 0.5px; fill: rgb(99, 110, 250); fill-opacity: 1; stroke: rgb(17, 17, 17); stroke-opacity: 1;"/></g><g class="point"><path d="M454.68,230V213.07H474.12V230Z" style="vector-effect: none; opacity: 1; stroke-width: 0.5px; fill: rgb(99, 110, 250); fill-opacity: 1; stroke: rgb(17, 17, 17); stroke-opacity: 1;"/></g><g class="point"><path d="M476.28,230V217.38H495.72V230Z" style="vector-effect: none; opacity: 1; stroke-width: 0.5px; fill: rgb(99, 110, 250); fill-opacity: 1; stroke: rgb(17, 17, 17); stroke-opacity: 1;"/></g><g class="point"><path d="M497.88,230V230H517.32V230Z" style="vector-effect: none; opacity: 1; stroke-width: 0.5px; fill: rgb(99, 110, 250); fill-opacity: 1; stroke: rgb(17, 17, 17); stroke-opacity: 1;"/></g><g class="point"><path d="M519.48,230V206.7H538.92V230Z" style="vector-effect: none; opacity: 1; stroke-width: 0.5px; fill: rgb(99, 110, 250); fill-opacity: 1; stroke: rgb(17, 17, 17); stroke-opacity: 1;"/></g></g><g class="errorbar" style="opacity: 1;"><path class="yerror" d="M5.800000000000001,199.45h10m-5,0V203.9m-5,0h10" style="vector-effect: none; stroke-width: 1.5px; stroke: rgb(242, 245, 250); stroke-opacity: 1;"/></g><g class="errorbar" style="opacity: 1;"><path class="yerror" d="M27.4,216.78h10m-5,0V218.73m-5,0h10" style="vector-effect: none; stroke-width: 1.5px; stroke: rgb(242, 245, 250); stroke-opacity: 1;"/></g><g class="errorbar" style="opacity: 1;"><path class="yerror" d="M49,192.03h10m-5,0V196.9m-5,0h10" style="vector-effect: none; stroke-width: 1.5px; stroke: rgb(242, 245, 250); stroke-opacity: 1;"/></g><g class="errorbar" style="opacity: 1;"><path class="yerror" d="M70.6,162.39h10m-5,0V169.5m-5,0h10" style="vector-effect: none; stroke-width: 1.5px; stroke: rgb(242, 245, 250); stroke-opacity: 1;"/></g><g class="errorbar" style="opacity: 1;"><path class="yerror" d="M92.2,205.54h10m-5,0V208.83m-5,0h10" style="vector-effect: none; stroke-width: 1.5px; stroke: rgb(242, 245, 250); stroke-opacity: 1;"/></g><g class="errorbar" style="opacity: 1;"><path class="yerror" d="M113.8,202.67h10m-5,0V207.69m-5,0h10" style="vector-effect: none; stroke-width: 1.5px; stroke: rgb(242, 245, 250); stroke-opacity: 1;"/></g><g class="errorbar" style="opacity: 1;"><path class="yerror" d="M135.4,194.48h10m-5,0V200.17m-5,0h10" style="vector-effect: none; stroke-width: 1.5px; stroke: rgb(242, 245, 250); stroke-opacity: 1;"/></g><g class="errorbar" style="opacity: 1;"><path class="yerror" d="M157,139.54h10m-5,0V147.6m-5,0h10" style="vector-effect: none; stroke-width: 1.5px; stroke: rgb(242, 245, 250); stroke-opacity: 1;"/></g><g class="errorbar" style="opacity: 1;"><path class="yerror" d="M178.6,11.5h10m-5,0V31.24m-5,0h10" style="vector-effect: none; stroke-width: 1.5px; stroke: rgb(242, 245, 250); stroke-opacity: 1;"/></g><g class="errorbar" style="opacity: 1;"><path class="yerror" d="M200.2,147.9h10m-5,0V156.14m-5,0h10" style="vector-effect: none; stroke-width: 1.5px; stroke: rgb(242, 245, 250); stroke-opacity: 1;"/></g><g class="errorbar" style="opacity: 1;"><path class="yerror" d="M221.8,215.72h10m-5,0V217.88m-5,0h10" style="vector-effect: none; stroke-width: 1.5px; stroke: rgb(242, 245, 250); stroke-opacity: 1;"/></g><g class="errorbar" style="opacity: 1;"><path class="yerror" d="M243.4,208.45h10m-5,0V211.5m-5,0h10" style="vector-effect: none; stroke-width: 1.5px; stroke: rgb(242, 245, 250); stroke-opacity: 1;"/></g><g class="errorbar" style="opacity: 1;"><path class="yerror" d="M265,133.77h10m-5,0V148.14m-5,0h10" style="vector-effect: none; stroke-width: 1.5px; stroke: rgb(242, 245, 250); stroke-opacity: 1;"/></g><g class="errorbar" style="opacity: 1;"><path class="yerror" d="M286.6,221.97h10m-5,0V223.43m-5,0h10" style="vector-effect: none; stroke-width: 1.5px; stroke: rgb(242, 245, 250); stroke-opacity: 1;"/></g><g class="errorbar" style="opacity: 1;"><path class="yerror" d="M308.2,147.24h10m-5,0V157.78m-5,0h10" style="vector-effect: none; stroke-width: 1.5px; stroke: rgb(242, 245, 250); stroke-opacity: 1;"/></g><g class="errorbar" style="opacity: 1;"><path class="yerror" d="M329.8,162.77h10m-5,0V176.41m-5,0h10" style="vector-effect: none; stroke-width: 1.5px; stroke: rgb(242, 245, 250); stroke-opacity: 1;"/></g><g class="errorbar" style="opacity: 1;"><path class="yerror" d="M351.4,210.18h10m-5,0V214.07m-5,0h10" style="vector-effect: none; stroke-width: 1.5px; stroke: rgb(242, 245, 250); stroke-opacity: 1;"/></g><g class="errorbar" style="opacity: 1;"><path class="yerror" d="M373,202.63h10m-5,0V206.54m-5,0h10" style="vector-effect: none; stroke-width: 1.5px; stroke: rgb(242, 245, 250); stroke-opacity: 1;"/></g><g class="errorbar" style="opacity: 1;"><path class="yerror" d="M394.6,183.44h10m-5,0V191.32m-5,0h10" style="vector-effect: none; stroke-width: 1.5px; stroke: rgb(242, 245, 250); stroke-opacity: 1;"/></g><g class="errorbar" style="opacity: 1;"><path class="yerror" d="M416.2,177.69h10m-5,0V183.57m-5,0h10" style="vector-effect: none; stroke-width: 1.5px; stroke: rgb(242, 245, 250); stroke-opacity: 1;"/></g><g class="errorbar" style="opacity: 1;"><path class="yerror" d="M437.8,218.72h10m-5,0V221.09m-5,0h10" style="vector-effect: none; stroke-width: 1.5px; stroke: rgb(242, 245, 250); stroke-opacity: 1;"/></g><g class="errorbar" style="opacity: 1;"><path class="yerror" d="M459.4,211.5h10m-5,0V214.65m-5,0h10" style="vector-effect: none; stroke-width: 1.5px; stroke: rgb(242, 245, 250); stroke-opacity: 1;"/></g><g class="errorbar" style="opacity: 1;"><path class="yerror" d="M481,216.23h10m-5,0V218.53m-5,0h10" style="vector-effect: none; stroke-width: 1.5px; stroke: rgb(242, 245, 250); stroke-opacity: 1;"/></g><g class="errorbar" style="opacity: 1;"><path class="yerror" d="M502.6,230h10m-5,0V230m-5,0h10" style="vector-effect: none; stroke-width: 1.5px; stroke: rgb(242, 245, 250); stroke-opacity: 1;"/></g><g class="errorbar" style="opacity: 1;"><path class="yerror" d="M524.2,204.32h10m-5,0V209.08m-5,0h10" style="vector-effect: none; stroke-width: 1.5px; stroke: rgb(242, 245, 250); stroke-opacity: 1;"/></g></g></g></g></g><path class="xlines-above crisp" d="M0,0" style="fill: none;"/><path class="ylines-above crisp" d="M0,0" style="fill: none;"/><g class="overlines-above"/><g class="xaxislayer-above"><g class="xtick"><text text-anchor="start" x="1.75" y="336" transform="translate(90.8,0) rotate(90,1.75,331)" style="font-family: 'Open Sans', verdana, arial, sans-serif; font-size: 10px; fill: rgb(242, 245, 250); fill-opacity: 1; white-space: pre; opacity: 1;">Molecular Weight</text></g><g class="xtick"><text text-anchor="start" x="1.75" y="336" transform="translate(112.4,0) rotate(90,1.75,331)" style="font-family: 'Open Sans', verdana, arial, sans-serif; font-size: 10px; fill: rgb(242, 245, 250); fill-opacity: 1; white-space: pre; opacity: 1;">C LogP</text></g><g class="xtick"><text text-anchor="start" x="1.75" y="336" transform="translate(134,0) rotate(90,1.75,331)" style="font-family: 'Open Sans', verdana, arial, sans-serif; font-size: 10px; fill: rgb(242, 245, 250); fill-opacity: 1; white-space: pre; opacity: 1;">FractionCSP3</text></g><g class="xtick"><text text-anchor="start" x="1.75" y="336" transform="translate(155.6,0) rotate(90,1.75,331)" style="font-family: 'Open Sans', verdana, arial, sans-serif; font-size: 10px; fill: rgb(242, 245, 250); fill-opacity: 1; white-space: pre; opacity: 1;">HallKierAlpha</text></g><g class="xtick"><text text-anchor="start" x="1.75" y="336" transform="translate(177.2,0) rotate(90,1.75,331)" style="font-family: 'Open Sans', verdana, arial, sans-serif; font-size: 10px; fill: rgb(242, 245, 250); fill-opacity: 1; white-space: pre; opacity: 1;">Ipc</text></g><g class="xtick"><text text-anchor="start" x="1.75" y="336" transform="translate(198.8,0) rotate(90,1.75,331)" style="font-family: 'Open Sans', verdana, arial, sans-serif; font-size: 10px; fill: rgb(242, 245, 250); fill-opacity: 1; white-space: pre; opacity: 1;">Kappa2</text></g><g class="xtick"><text text-anchor="start" x="1.75" y="336" transform="translate(220.4,0) rotate(90,1.75,331)" style="font-family: 'Open Sans', verdana, arial, sans-serif; font-size: 10px; fill: rgb(242, 245, 250); fill-opacity: 1; white-space: pre; opacity: 1;">Kappa3</text></g><g class="xtick"><text text-anchor="start" x="1.75" y="336" transform="translate(242,0) rotate(90,1.75,331)" style="font-family: 'Open Sans', verdana, arial, sans-serif; font-size: 10px; fill: rgb(242, 245, 250); fill-opacity: 1; white-space: pre; opacity: 1;">MaxAbsEStateIndex</text></g><g class="xtick"><text text-anchor="start" x="1.75" y="336" transform="translate(263.6,0) rotate(90,1.75,331)" style="font-family: 'Open Sans', verdana, arial, sans-serif; font-size: 10px; fill: rgb(242, 245, 250); fill-opacity: 1; white-space: pre; opacity: 1;">MaxAbsPartialCharge</text></g><g class="xtick"><text text-anchor="start" x="1.75" y="336" transform="translate(285.2,0) rotate(90,1.75,331)" style="font-family: 'Open Sans', verdana, arial, sans-serif; font-size: 10px; fill: rgb(242, 245, 250); fill-opacity: 1; white-space: pre; opacity: 1;">MaxPartialCharge</text></g><g class="xtick"><text text-anchor="start" x="1.75" y="336" transform="translate(306.8,0) rotate(90,1.75,331)" style="font-family: 'Open Sans', verdana, arial, sans-serif; font-size: 10px; fill: rgb(242, 245, 250); fill-opacity: 1; white-space: pre; opacity: 1;">MinAbsEStateIndex</text></g><g class="xtick"><text text-anchor="start" x="1.75" y="336" transform="translate(328.4,0) rotate(90,1.75,331)" style="font-family: 'Open Sans', verdana, arial, sans-serif; font-size: 10px; fill: rgb(242, 245, 250); fill-opacity: 1; white-space: pre; opacity: 1;">MinEStateIndex</text></g><g class="xtick"><text text-anchor="start" x="1.75" y="336" transform="translate(350,0) rotate(90,1.75,331)" style="font-family: 'Open Sans', verdana, arial, sans-serif; font-size: 10px; fill: rgb(242, 245, 250); fill-opacity: 1; white-space: pre; opacity: 1;">NHOHCount</text></g><g class="xtick"><text text-anchor="start" x="1.75" y="336" transform="translate(371.6,0) rotate(90,1.75,331)" style="font-family: 'Open Sans', verdana, arial, sans-serif; font-size: 10px; fill: rgb(242, 245, 250); fill-opacity: 1; white-space: pre; opacity: 1;">NOCount</text></g><g class="xtick"><text text-anchor="start" x="1.75" y="336" transform="translate(393.2,0) rotate(90,1.75,331)" style="font-family: 'Open Sans', verdana, arial, sans-serif; font-size: 10px; fill: rgb(242, 245, 250); fill-opacity: 1; white-space: pre; opacity: 1;">NumAliphaticCarbocycles</text></g><g class="xtick"><text text-anchor="start" x="1.75" y="336" transform="translate(414.8,0) rotate(90,1.75,331)" style="font-family: 'Open Sans', verdana, arial, sans-serif; font-size: 10px; fill: rgb(242, 245, 250); fill-opacity: 1; white-space: pre; opacity: 1;">NumAliphaticHeterocycles</text></g><g class="xtick"><text text-anchor="start" x="1.75" y="336" transform="translate(436.4,0) rotate(90,1.75,331)" style="font-family: 'Open Sans', verdana, arial, sans-serif; font-size: 10px; fill: rgb(242, 245, 250); fill-opacity: 1; white-space: pre; opacity: 1;">NumAliphaticRings</text></g><g class="xtick"><text text-anchor="start" x="1.75" y="336" transform="translate(458,0) rotate(90,1.75,331)" style="font-family: 'Open Sans', verdana, arial, sans-serif; font-size: 10px; fill: rgb(242, 245, 250); fill-opacity: 1; white-space: pre; opacity: 1;">NumAromaticCarbocycles</text></g><g class="xtick"><text text-anchor="start" x="1.75" y="336" transform="translate(479.6,0) rotate(90,1.75,331)" style="font-family: 'Open Sans', verdana, arial, sans-serif; font-size: 10px; fill: rgb(242, 245, 250); fill-opacity: 1; white-space: pre; opacity: 1;">NumAromaticHeterocycles</text></g><g class="xtick"><text text-anchor="start" x="1.75" y="336" transform="translate(501.2,0) rotate(90,1.75,331)" style="font-family: 'Open Sans', verdana, arial, sans-serif; font-size: 10px; fill: rgb(242, 245, 250); fill-opacity: 1; white-space: pre; opacity: 1;">NumAromaticRings</text></g><g class="xtick"><text text-anchor="start" x="1.75" y="336" transform="translate(522.8,0) rotate(90,1.75,331)" style="font-family: 'Open Sans', verdana, arial, sans-serif; font-size: 10px; fill: rgb(242, 245, 250); fill-opacity: 1; white-space: pre; opacity: 1;">NumHAcceptors</text></g><g class="xtick"><text text-anchor="start" x="1.75" y="336" transform="translate(544.4,0) rotate(90,1.75,331)" style="font-family: 'Open Sans', verdana, arial, sans-serif; font-size: 10px; fill: rgb(242, 245, 250); fill-opacity: 1; white-space: pre; opacity: 1;">NumHDonors</text></g><g class="xtick"><text text-anchor="start" x="1.75" y="336" transform="translate(566,0) rotate(90,1.75,331)" style="font-family: 'Open Sans', verdana, arial, sans-serif; font-size: 10px; fill: rgb(242, 245, 250); fill-opacity: 1; white-space: pre; opacity: 1;">NumHeteroatoms</text></g><g class="xtick"><text text-anchor="start" x="1.75" y="336" transform="translate(587.6,0) rotate(90,1.75,331)" style="font-family: 'Open Sans', verdana, arial, sans-serif; font-size: 10px; fill: rgb(242, 245, 250); fill-opacity: 1; white-space: pre; opacity: 1;">NumRadicalElectrons</text></g><g class="xtick"><text text-anchor="start" x="1.75" y="336" transform="translate(609.2,0) rotate(90,1.75,331)" style="font-family: 'Open Sans', verdana, arial, sans-serif; font-size: 10px; fill: rgb(242, 245, 250); fill-opacity: 1; white-space: pre; opacity: 1;">NumRotatableBonds</text></g></g><g class="yaxislayer-above"><g class="ytick"><text text-anchor="end" x="79" y="4.199999999999999" transform="translate(0,330)" style="font-family: 'Open Sans', verdana, arial, sans-serif; font-size: 12px; fill: rgb(242, 245, 250); fill-opacity: 1; white-space: pre; opacity: 1;">0</text></g><g class="ytick"><text text-anchor="end" x="79" y="4.199999999999999" style="font-family: 'Open Sans', verdana, arial, sans-serif; font-size: 12px; fill: rgb(242, 245, 250); fill-opacity: 1; white-space: pre; opacity: 1;" transform="translate(0,277.03999999999996)">0.05</text></g><g class="ytick"><text text-anchor="end" x="79" y="4.199999999999999" style="font-family: 'Open Sans', verdana, arial, sans-serif; font-size: 12px; fill: rgb(242, 245, 250); fill-opacity: 1; white-space: pre; opacity: 1;" transform="translate(0,224.07999999999998)">0.1</text></g><g class="ytick"><text text-anchor="end" x="79" y="4.199999999999999" style="font-family: 'Open Sans', verdana, arial, sans-serif; font-size: 12px; fill: rgb(242, 245, 250); fill-opacity: 1; white-space: pre; opacity: 1;" transform="translate(0,171.12)">0.15</text></g><g class="ytick"><text text-anchor="end" x="79" y="4.199999999999999" style="font-family: 'Open Sans', verdana, arial, sans-serif; font-size: 12px; fill: rgb(242, 245, 250); fill-opacity: 1; white-space: pre; opacity: 1;" transform="translate(0,118.16)">0.2</text></g></g><g class="overaxes-above"/></g></g><g class="polarlayer"/><g class="smithlayer"/><g class="ternarylayer"/><g class="geolayer"/><g class="funnelarealayer"/><g class="pielayer"/><g class="iciclelayer"/><g class="treemaplayer"/><g class="sunburstlayer"/><g class="glimages"/><defs id="topdefs-c4faed"><g class="clips"/></defs><g class="layer-above"><g class="imagelayer"/><g class="shapelayer"/></g><g class="infolayer"><g class="g-gtitle"><text class="gtitle" x="350" y="50" text-anchor="middle" dy="0em" style="opacity: 1; font-family: 'Open Sans', verdana, arial, sans-serif; font-size: 17px; fill: rgb(242, 245, 250); fill-opacity: 1; white-space: pre;">Feature Importances with Confidence Intervals</text></g><g class="g-xtitle"><text class="xtitle" x="350" y="487.503125" text-anchor="middle" style="opacity: 1; font-family: 'Open Sans', verdana, arial, sans-serif; font-size: 14px; fill: rgb(242, 245, 250); fill-opacity: 1; white-space: pre;">Features</text></g><g class="g-ytitle"><text class="ytitle" transform="rotate(-90,32.334375,215)" x="32.334375" y="215" text-anchor="middle" style="opacity: 1; font-family: 'Open Sans', verdana, arial, sans-serif; font-size: 14px; fill: rgb(242, 245, 250); fill-opacity: 1; white-space: pre;">MDI (Mean Decrease in Impurity)</text></g></g></svg>
