<svg class="main-svg" xmlns="http://www.w3.org/2000/svg" xmlns:xlink="http://www.w3.org/1999/xlink" width="700" height="500" style="" viewBox="0 0 700 500"><rect x="0" y="0" width="700" height="500" style="fill: rgb(34, 37, 41); fill-opacity: 1;"/><defs id="defs-a4db12"><g class="clips"><clipPath id="clipa4db12xyplot" class="plotclip"><rect width="330" height="320"/></clipPath><clipPath class="axesclip" id="clipa4db12x"><rect x="80" y="0" width="330" height="500"/></clipPath><clipPath class="axesclip" id="clipa4db12y"><rect x="0" y="100" width="700" height="320"/></clipPath><clipPath class="axesclip" id="clipa4db12xy"><rect x="80" y="100" width="330" height="320"/></clipPath></g><g class="gradients"/><g class="patterns"/></defs><g class="bglayer"/><g class="layer-below"><g class="imagelayer"/><g class="shapelayer"/></g><g class="cartesianlayer"><g class="subplot xy"><g class="layer-subplot"><g class="shapelayer"/><g class="imagelayer"/></g><g class="minor-gridlayer"><g class="x"/><g class="y"/></g><g class="gridlayer"><g class="x"><path class="xgrid crisp" transform="translate(102,0)" d="M0,100v320" style="stroke: rgb(40, 52, 66); stroke-opacity: 1; stroke-width: 1px;"/><path class="xgrid crisp" transform="translate(175.32999999999998,0)" d="M0,100v320" style="stroke: rgb(40, 52, 66); stroke-opacity: 1; stroke-width: 1px;"/><path class="xgrid crisp" transform="translate(248.67,0)" d="M0,100v320" style="stroke: rgb(40, 52, 66); stroke-opacity: 1; stroke-width: 1px;"/><path class="xgrid crisp" transform="translate(322,0)" d="M0,100v320" style="stroke: rgb(40, 52, 66); stroke-opacity: 1; stroke-width: 1px;"/><path class="xgrid crisp" transform="translate(395.33,0)" d="M0,100v320" style="stroke: rgb(40, 52, 66); stroke-opacity: 1; stroke-width: 1px;"/></g><g class="y"><path class="ygrid crisp" transform="translate(0,379.68)" d="M80,0h330" style="stroke: rgb(40, 52, 66); stroke-opacity: 1; stroke-width: 1px;"/><path class="ygrid crisp" transform="translate(0,339.36)" d="M80,0h330" style="stroke: rgb(40, 52, 66); stroke-opacity: 1; stroke-width: 1px;"/><path class="ygrid crisp" transform="translate(0,299.03999999999996)" d="M80,0h330" style="stroke: rgb(40, 52, 66); stroke-opacity: 1; stroke-width: 1px;"/><path class="ygrid crisp" transform="translate(0,258.72)" d="M80,0h330" style="stroke: rgb(40, 52, 66); stroke-opacity: 1; stroke-width: 1px;"/><path class="ygrid crisp" transform="translate(0,218.4)" d="M80,0h330" style="stroke: rgb(40, 52, 66); stroke-opacity: 1; stroke-width: 1px;"/><path class="ygrid crisp" transform="translate(0,178.07999999999998)" d="M80,0h330" style="stroke: rgb(40, 52, 66); stroke-opacity: 1; stroke-width: 1px;"/><path class="ygrid crisp" transform="translate(0,137.76)" d="M80,0h330" style="stroke: rgb(40, 52, 66); stroke-opacity: 1; stroke-width: 1px;"/></g></g><g class="zerolinelayer"><path class="yzl zl crisp" transform="translate(0,420)" d="M80,0h330" style="stroke: rgb(40, 52, 66); stroke-opacity: 1; stroke-width: 2px;"/></g><g class="layer-between"><g class="shapelayer"/><g class="imagelayer"/></g><path class="xlines-below"/><path class="ylines-below"/><g class="overlines-below"/><g class="xaxislayer-below"/><g class="yaxislayer-below"/><g class="overaxes-below"/><g class="overplot"><g class="xy" transform="translate(80,100)" clip-path="url(#clipa4db12xyplot)"><g class="scatterlayer mlayer"><g class="trace scatter trace537694" style="stroke-miterlimit: 2;"><g class="fills"><g><path class="js-fill" d="M330,320L0,320L0,319.89L51.33,320L58.67,319.16L73.33,319.73L80.67,319.69L88,319.42L95.33,319.93L139.33,319.2L146.67,313.32L154,315.63L161.33,315.08L168.67,311.99L176,315.13L183.33,314.83L190.67,310.72L198,294.51L205.33,298.95L212.67,307.28L220,295.62L227.33,282.22L234.67,298.14L242,297.73L249.33,280.73L256.67,298.84L264,299.5L271.33,304.6L278.67,305.82L286,300.05L293.33,303.51L300.67,295.86L308,301.38L315.33,306.62L322.67,313.96L330,319.32" style="fill: rgb(99, 110, 250); fill-opacity: 0.5; stroke-width: 0;"/></g><g><path class="js-fill" d="M0,319.89L29.33,319.24L44,320L51.33,320L58.67,318.83L66,319.75L73.33,319.19L80.67,319.4L88,316.31L95.33,317.5L102.67,319.56L110,319.1L117.33,319.4L124.67,318.85L132,314.81L139.33,311.17L146.67,300.67L154,312.57L161.33,311.93L168.67,306.61L176,313.11L183.33,305.86L190.67,295.27L198,287.27L205.33,282.16L212.67,300.76L220,283.47L227.33,266.81L234.67,288.24L242,286.38L249.33,261.5L256.67,285.76L264,291.06L278.67,297.28L286,288.09L293.33,293.92L300.67,288.79L308,292.06L315.33,287.99L322.67,311.27L330,319.02L330,319.32L322.67,313.96L315.33,306.62L308,301.38L300.67,295.86L293.33,303.51L286,300.05L278.67,305.82L271.33,304.6L264,299.5L256.67,298.84L249.33,280.73L242,297.73L234.67,298.14L227.33,282.22L220,295.62L212.67,307.28L205.33,298.95L198,294.51L190.67,310.72L183.33,314.83L176,315.13L168.67,311.99L161.33,315.08L154,315.63L146.67,313.32L139.33,319.2L95.33,319.93L88,319.42L80.67,319.69L73.33,319.73L58.67,319.16L51.33,320L0,319.89Z" style="fill: rgb(239, 85, 59); fill-opacity: 0.5; stroke-width: 0;"/></g></g><g class="errorbars"/><g class="lines"><path class="js-line" d="M0,319.89L51.33,320L58.67,319.16L73.33,319.73L80.67,319.69L88,319.42L95.33,319.93L139.33,319.2L146.67,313.32L154,315.63L161.33,315.08L168.67,311.99L176,315.13L183.33,314.83L190.67,310.72L198,294.51L205.33,298.95L212.67,307.28L220,295.62L227.33,282.22L234.67,298.14L242,297.73L249.33,280.73L256.67,298.84L264,299.5L271.33,304.6L278.67,305.82L286,300.05L293.33,303.51L300.67,295.86L308,301.38L315.33,306.62L322.67,313.96L330,319.32" style="vector-effect: none; fill: none; stroke: rgb(99, 110, 250); stroke-opacity: 1; stroke-width: 2px; opacity: 1;"/></g><g class="points"/><g class="text"/></g><g class="trace scatter tracebf71c2" style="stroke-miterlimit: 2;"><g class="fills"><g><path class="js-fill" d="M0,319.89L29.33,319.19L44,320L51.33,320L58.67,318.78L66,319.75L73.33,319.19L80.67,319.26L88,313.68L95.33,317.44L102.67,318.08L117.33,318.13L124.67,313.36L139.33,301.25L146.67,289.17L154,302.49L161.33,301.84L168.67,287.16L176,300.74L183.33,290.47L190.67,270.92L198,247.88L205.33,240.66L212.67,261.61L220,226.41L227.33,201.71L234.67,244.83L242,239.31L249.33,202.37L256.67,234.02L264,249.73L271.33,249.67L278.67,260.1L286,225.51L293.33,255.25L300.67,241.74L308,245.59L315.33,258.94L322.67,294.78L330,317.98L330,319.02L322.67,311.27L315.33,287.99L308,292.06L300.67,288.79L293.33,293.92L286,288.09L278.67,297.28L264,291.06L256.67,285.76L249.33,261.5L242,286.38L234.67,288.24L227.33,266.81L220,283.47L212.67,300.76L205.33,282.16L198,287.27L190.67,295.27L183.33,305.86L176,313.11L168.67,306.61L161.33,311.93L154,312.57L146.67,300.67L139.33,311.17L132,314.81L124.67,318.85L117.33,319.4L110,319.1L102.67,319.56L95.33,317.5L88,316.31L80.67,319.4L73.33,319.19L66,319.75L58.67,318.83L51.33,320L44,320L29.33,319.24L0,319.89Z" style="fill: rgb(0, 204, 150); fill-opacity: 0.5; stroke-width: 0;"/></g></g><g class="errorbars"/><g class="lines"><path class="js-line" d="M0,319.89L29.33,319.24L44,320L51.33,320L58.67,318.83L66,319.75L73.33,319.19L80.67,319.4L88,316.31L95.33,317.5L102.67,319.56L110,319.1L117.33,319.4L124.67,318.85L132,314.81L139.33,311.17L146.67,300.67L154,312.57L161.33,311.93L168.67,306.61L176,313.11L183.33,305.86L190.67,295.27L198,287.27L205.33,282.16L212.67,300.76L220,283.47L227.33,266.81L234.67,288.24L242,286.38L249.33,261.5L256.67,285.76L264,291.06L278.67,297.28L286,288.09L293.33,293.92L300.67,288.79L308,292.06L315.33,287.99L322.67,311.27L330,319.02" style="vector-effect: none; fill: none; stroke: rgb(239, 85, 59); stroke-opacity: 1; stroke-width: 2px; opacity: 1;"/></g><g class="points"/><g class="text"/></g><g class="trace scatter trace39f0b6" style="stroke-miterlimit: 2;"><g class="fills"><g><path class="js-fill" d="M0,319.89L29.33,319.12L44,320L51.33,320L58.67,318.42L73.33,319.19L80.67,318.95L88,312.95L95.33,317.44L110,317.26L117.33,317.4L124.67,312.74L132,306.46L139.33,300.74L146.67,288.38L154,297.92L161.33,298.89L168.67,274.49L176,294.61L183.33,283.8L190.67,262.52L198,235.04L205.33,215.43L212.67,253.07L220,206.79L227.33,180.15L234.67,226.64L242,222.03L249.33,167.57L256.67,216.93L264,242.22L271.33,240.56L278.67,251.17L286,215.1L293.33,247.05L300.67,236.26L308,237.73L315.33,255.49L322.67,292L330,317.77L330,317.98L322.67,294.78L315.33,258.94L308,245.59L300.67,241.74L293.33,255.25L286,225.51L278.67,260.1L271.33,249.67L264,249.73L256.67,234.02L249.33,202.37L242,239.31L234.67,244.83L227.33,201.71L220,226.41L212.67,261.61L205.33,240.66L198,247.88L190.67,270.92L183.33,290.47L176,300.74L168.67,287.16L161.33,301.84L154,302.49L146.67,289.17L139.33,301.25L124.67,313.36L117.33,318.13L102.67,318.08L95.33,317.44L88,313.68L80.67,319.26L73.33,319.19L66,319.75L58.67,318.78L51.33,320L44,320L29.33,319.19L0,319.89Z" style="fill: rgb(171, 99, 250); fill-opacity: 0.5; stroke-width: 0;"/></g></g><g class="errorbars"/><g class="lines"><path class="js-line" d="M0,319.89L29.33,319.19L44,320L51.33,320L58.67,318.78L66,319.75L73.33,319.19L80.67,319.26L88,313.68L95.33,317.44L102.67,318.08L117.33,318.13L124.67,313.36L139.33,301.25L146.67,289.17L154,302.49L161.33,301.84L168.67,287.16L176,300.74L183.33,290.47L190.67,270.92L198,247.88L205.33,240.66L212.67,261.61L220,226.41L227.33,201.71L234.67,244.83L242,239.31L249.33,202.37L256.67,234.02L264,249.73L271.33,249.67L278.67,260.1L286,225.51L293.33,255.25L300.67,241.74L308,245.59L315.33,258.94L322.67,294.78L330,317.98" style="vector-effect: none; fill: none; stroke: rgb(0, 204, 150); stroke-opacity: 1; stroke-width: 2px; opacity: 1;"/></g><g class="points"/><g class="text"/></g><g class="trace scatter trace5b5027" style="stroke-miterlimit: 2;"><g class="fills"><g><path class="js-fill" d="M0,319.89L14.67,319.81L29.33,318.96L51.33,320L58.67,318.42L66,319.1L73.33,318.81L80.67,318.73L88,312.95L95.33,317.31L102.67,316.71L117.33,316.23L124.67,312.34L139.33,300.6L146.67,287.88L154,296.4L161.33,295.65L168.67,268.93L176,291.63L183.33,278.43L190.67,249.47L198,217.85L205.33,200.88L212.67,239.85L220,177.17L227.33,146.6L234.67,209.3L242,204.47L249.33,140.01L256.67,198.75L264,224.22L271.33,224.49L278.67,238.31L286,197.77L293.33,233.83L300.67,219.3L308,221.94L315.33,243.96L322.67,287.17L330,317.36L330,317.77L322.67,292L315.33,255.49L308,237.73L300.67,236.26L293.33,247.05L286,215.1L278.67,251.17L271.33,240.56L264,242.22L256.67,216.93L249.33,167.57L242,222.03L234.67,226.64L227.33,180.15L220,206.79L212.67,253.07L205.33,215.43L198,235.04L190.67,262.52L183.33,283.8L176,294.61L168.67,274.49L161.33,298.89L154,297.92L146.67,288.38L139.33,300.74L132,306.46L124.67,312.74L117.33,317.4L110,317.26L95.33,317.44L88,312.95L80.67,318.95L73.33,319.19L58.67,318.42L51.33,320L44,320L29.33,319.12L0,319.89Z" style="fill: rgb(255, 161, 90); fill-opacity: 0.5; stroke-width: 0;"/></g></g><g class="errorbars"/><g class="lines"><path class="js-line" d="M0,319.89L29.33,319.12L44,320L51.33,320L58.67,318.42L73.33,319.19L80.67,318.95L88,312.95L95.33,317.44L110,317.26L117.33,317.4L124.67,312.74L132,306.46L139.33,300.74L146.67,288.38L154,297.92L161.33,298.89L168.67,274.49L176,294.61L183.33,283.8L190.67,262.52L198,235.04L205.33,215.43L212.67,253.07L220,206.79L227.33,180.15L234.67,226.64L242,222.03L249.33,167.57L256.67,216.93L264,242.22L271.33,240.56L278.67,251.17L286,215.1L293.33,247.05L300.67,236.26L308,237.73L315.33,255.49L322.67,292L330,317.77" style="vector-effect: none; fill: none; stroke: rgb(171, 99, 250); stroke-opacity: 1; stroke-width: 2px; opacity: 1;"/></g><g class="points"/><g class="text"/></g><g class="trace scatter trace67da15" style="stroke-miterlimit: 2;"><g class="fills"><g><path class="js-fill" d="M0,319.89L14.67,319.81L29.33,318.96L51.33,319.97L58.67,318.15L66,319.1L73.33,318.81L80.67,318.58L88,312.95L95.33,317.22L102.67,316.6L110,316.77L117.33,314.9L124.67,309.09L132,305.73L139.33,292.18L146.67,281.75L154,284.6L161.33,290.39L168.67,254.63L176,284.56L183.33,264.49L190.67,227.64L198,202.74L205.33,173.97L212.67,219.42L220,138.58L227.33,110.41L234.67,188.94L242,183.03L249.33,106.17L256.67,172.79L264,212.33L271.33,210.55L278.67,224.74L286,181.48L293.33,211.84L300.67,208.39L308,206.93L315.33,236.24L322.67,282.03L330,317.06L330,317.36L322.67,287.17L315.33,243.96L308,221.94L300.67,219.3L293.33,233.83L286,197.77L278.67,238.31L271.33,224.49L264,224.22L256.67,198.75L249.33,140.01L242,204.47L234.67,209.3L227.33,146.6L220,177.17L212.67,239.85L205.33,200.88L198,217.85L190.67,249.47L183.33,278.43L176,291.63L168.67,268.93L161.33,295.65L154,296.4L146.67,287.88L139.33,300.6L124.67,312.34L117.33,316.23L102.67,316.71L95.33,317.31L88,312.95L80.67,318.73L73.33,318.81L66,319.1L58.67,318.42L51.33,320L29.33,318.96L14.67,319.81L0,319.89Z" style="fill: rgb(25, 211, 243); fill-opacity: 0.5; stroke-width: 0;"/></g></g><g class="errorbars"/><g class="lines"><path class="js-line" d="M0,319.89L14.67,319.81L29.33,318.96L51.33,320L58.67,318.42L66,319.1L73.33,318.81L80.67,318.73L88,312.95L95.33,317.31L102.67,316.71L117.33,316.23L124.67,312.34L139.33,300.6L146.67,287.88L154,296.4L161.33,295.65L168.67,268.93L176,291.63L183.33,278.43L190.67,249.47L198,217.85L205.33,200.88L212.67,239.85L220,177.17L227.33,146.6L234.67,209.3L242,204.47L249.33,140.01L256.67,198.75L264,224.22L271.33,224.49L278.67,238.31L286,197.77L293.33,233.83L300.67,219.3L308,221.94L315.33,243.96L322.67,287.17L330,317.36" style="vector-effect: none; fill: none; stroke: rgb(255, 161, 90); stroke-opacity: 1; stroke-width: 2px; opacity: 1;"/></g><g class="points"/><g class="text"/></g><g class="trace scatter tracecd7f80" style="stroke-miterlimit: 2;"><g class="fills"><g><path class="js-fill" d="M0,319.89L14.67,319.81L29.33,318.96L51.33,319.97L58.67,318.15L66,319.1L73.33,318.41L80.67,318.29L88,312.95L102.67,316.6L110,316.77L117.33,314.86L124.67,309.09L132,303.74L139.33,292.18L146.67,281.39L154,284.6L161.33,290.26L168.67,254.57L176,282.85L183.33,262.29L190.67,225.64L198,201.12L205.33,169.4L212.67,214.52L220,132.26L227.33,101.45L234.67,177.26L242,166.35L249.33,80.91L256.67,150.94L264,201.09L271.33,193.94L278.67,208.8L286,166.98L293.33,195.22L300.67,190.49L308,192.48L315.33,208.6L322.67,274.15L330,316.41L330,317.06L322.67,282.03L315.33,236.24L308,206.93L300.67,208.39L293.33,211.84L286,181.48L278.67,224.74L271.33,210.55L264,212.33L256.67,172.79L249.33,106.17L242,183.03L234.67,188.94L227.33,110.41L220,138.58L212.67,219.42L205.33,173.97L198,202.74L190.67,227.64L183.33,264.49L176,284.56L168.67,254.63L161.33,290.39L154,284.6L146.67,281.75L139.33,292.18L132,305.73L124.67,309.09L117.33,314.9L110,316.77L102.67,316.6L95.33,317.22L88,312.95L80.67,318.58L73.33,318.81L66,319.1L58.67,318.15L51.33,319.97L29.33,318.96L14.67,319.81L0,319.89Z" style="fill: rgb(255, 102, 146); fill-opacity: 0.5; stroke-width: 0;"/></g></g><g class="errorbars"/><g class="lines"><path class="js-line" d="M0,319.89L14.67,319.81L29.33,318.96L51.33,319.97L58.67,318.15L66,319.1L73.33,318.81L80.67,318.58L88,312.95L95.33,317.22L102.67,316.6L110,316.77L117.33,314.9L124.67,309.09L132,305.73L139.33,292.18L146.67,281.75L154,284.6L161.33,290.39L168.67,254.63L176,284.56L183.33,264.49L190.67,227.64L198,202.74L205.33,173.97L212.67,219.42L220,138.58L227.33,110.41L234.67,188.94L242,183.03L249.33,106.17L256.67,172.79L264,212.33L271.33,210.55L278.67,224.74L286,181.48L293.33,211.84L300.67,208.39L308,206.93L315.33,236.24L322.67,282.03L330,317.06" style="vector-effect: none; fill: none; stroke: rgb(25, 211, 243); stroke-opacity: 1; stroke-width: 2px; opacity: 1;"/></g><g class="points"/><g class="text"/></g><g class="trace scatter tracebd7996" style="stroke-miterlimit: 2;"><g class="fills"><g><path class="js-fill" d="M0,319.89L14.67,319.81L29.33,318.96L51.33,319.97L58.67,318.15L66,319.1L73.33,318.41L80.67,318.29L88,310.32L95.33,315.07L102.67,315.37L110,316.43L117.33,314.54L124.67,305.96L132,301.72L139.33,288.14L146.67,277.31L161.33,286.53L168.67,247.43L176,277.09L183.33,255.53L190.67,217.65L198,193.56L205.33,153.35L212.67,204.64L220,121.1L227.33,75.97L234.67,165.14L242,155.79L249.33,56.13L256.67,141.16L264,195.98L271.33,185.99L278.67,201.44L286,156.09L293.33,184.44L300.67,179.71L308,182.48L315.33,201.98L322.67,269.89L330,316.22L330,316.41L322.67,274.15L315.33,208.6L308,192.48L300.67,190.49L293.33,195.22L286,166.98L278.67,208.8L271.33,193.94L264,201.09L256.67,150.94L249.33,80.91L242,166.35L234.67,177.26L227.33,101.45L220,132.26L212.67,214.52L205.33,169.4L198,201.12L190.67,225.64L183.33,262.29L176,282.85L168.67,254.57L161.33,290.26L154,284.6L146.67,281.39L139.33,292.18L132,303.74L124.67,309.09L117.33,314.86L110,316.77L102.67,316.6L88,312.95L80.67,318.29L73.33,318.41L66,319.1L58.67,318.15L51.33,319.97L29.33,318.96L14.67,319.81L0,319.89Z" style="fill: rgb(182, 232, 128); fill-opacity: 0.5; stroke-width: 0;"/></g></g><g class="errorbars"/><g class="lines"><path class="js-line" d="M0,319.89L14.67,319.81L29.33,318.96L51.33,319.97L58.67,318.15L66,319.1L73.33,318.41L80.67,318.29L88,312.95L102.67,316.6L110,316.77L117.33,314.86L124.67,309.09L132,303.74L139.33,292.18L146.67,281.39L154,284.6L161.33,290.26L168.67,254.57L176,282.85L183.33,262.29L190.67,225.64L198,201.12L205.33,169.4L212.67,214.52L220,132.26L227.33,101.45L234.67,177.26L242,166.35L249.33,80.91L256.67,150.94L264,201.09L271.33,193.94L278.67,208.8L286,166.98L293.33,195.22L300.67,190.49L308,192.48L315.33,208.6L322.67,274.15L330,316.41" style="vector-effect: none; fill: none; stroke: rgb(255, 102, 146); stroke-opacity: 1; stroke-width: 2px; opacity: 1;"/></g><g class="points"/><g class="text"/></g><g class="trace scatter traceef328d" style="stroke-miterlimit: 2;"><g class="fills"><g><path class="js-fill" d="M0,319.89L14.67,319.81L29.33,318.96L51.33,319.97L58.67,318.15L66,319.1L73.33,318.41L80.67,318.29L88,310.32L95.33,315.07L102.67,315.37L110,315.98L117.33,314.44L124.67,305.96L132,301.72L139.33,288.14L146.67,277.01L161.33,285.91L168.67,247.08L176,276.83L183.33,255.19L190.67,215.67L198,191.45L205.33,150.43L212.67,201.34L220,115.7L227.33,63.64L234.67,153.1L242,139.18L249.33,35.31L256.67,119.54L264,186.8L271.33,170.85L278.67,189.34L286,143.14L293.33,167.64L300.67,165.06L308,171.28L315.33,190.73L322.67,262.69L330,315.54L330,316.22L322.67,269.89L315.33,201.98L308,182.48L300.67,179.71L293.33,184.44L286,156.09L278.67,201.44L271.33,185.99L264,195.98L256.67,141.16L249.33,56.13L242,155.79L234.67,165.14L227.33,75.97L220,121.1L212.67,204.64L205.33,153.35L198,193.56L190.67,217.65L183.33,255.53L176,277.09L168.67,247.43L161.33,286.53L146.67,277.31L139.33,288.14L132,301.72L124.67,305.96L117.33,314.54L110,316.43L102.67,315.37L95.33,315.07L88,310.32L80.67,318.29L73.33,318.41L66,319.1L58.67,318.15L51.33,319.97L29.33,318.96L14.67,319.81L0,319.89Z" style="fill: rgb(255, 151, 255); fill-opacity: 0.5; stroke-width: 0;"/></g></g><g class="errorbars"/><g class="lines"><path class="js-line" d="M0,319.89L14.67,319.81L29.33,318.96L51.33,319.97L58.67,318.15L66,319.1L73.33,318.41L80.67,318.29L88,310.32L95.33,315.07L102.67,315.37L110,316.43L117.33,314.54L124.67,305.96L132,301.72L139.33,288.14L146.67,277.31L161.33,286.53L168.67,247.43L176,277.09L183.33,255.53L190.67,217.65L198,193.56L205.33,153.35L212.67,204.64L220,121.1L227.33,75.97L234.67,165.14L242,155.79L249.33,56.13L256.67,141.16L264,195.98L271.33,185.99L278.67,201.44L286,156.09L293.33,184.44L300.67,179.71L308,182.48L315.33,201.98L322.67,269.89L330,316.22" style="vector-effect: none; fill: none; stroke: rgb(182, 232, 128); stroke-opacity: 1; stroke-width: 2px; opacity: 1;"/></g><g class="points"/><g class="text"/></g><g class="trace scatter tracecbee17" style="stroke-miterlimit: 2;"><g class="fills"><g><path class="js-fill" d="M0,319.89L14.67,319.81L29.33,318.96L51.33,319.97L58.67,318.15L66,319.1L73.33,318.41L80.67,318.29L88,310.32L95.33,315.07L102.67,315.37L110,315.98L117.33,313.4L124.67,305.13L132,300.5L139.33,286.19L146.67,275.11L161.33,283.51L168.67,238.81L176,273.36L183.33,251.25L190.67,208.59L198,185.23L205.33,137.7L212.67,193.67L220,104.13L227.33,32.77L234.67,142.94L242,127.4L249.33,16L256.67,108.59L264,179.88L271.33,162.87L278.67,169.15L286,132.48L293.33,161.1L300.67,158.22L308,163.07L315.33,184.58L322.67,260.39L330,315.17L330,315.54L322.67,262.69L315.33,190.73L308,171.28L300.67,165.06L293.33,167.64L286,143.14L278.67,189.34L271.33,170.85L264,186.8L256.67,119.54L249.33,35.31L242,139.18L234.67,153.1L227.33,63.64L220,115.7L212.67,201.34L205.33,150.43L198,191.45L190.67,215.67L183.33,255.19L176,276.83L168.67,247.08L161.33,285.91L146.67,277.01L139.33,288.14L132,301.72L124.67,305.96L117.33,314.44L110,315.98L102.67,315.37L95.33,315.07L88,310.32L80.67,318.29L73.33,318.41L66,319.1L58.67,318.15L51.33,319.97L29.33,318.96L14.67,319.81L0,319.89Z" style="fill: rgb(254, 203, 82); fill-opacity: 0.5; stroke-width: 0;"/></g></g><g class="errorbars"/><g class="lines"><path class="js-line" d="M0,319.89L14.67,319.81L29.33,318.96L51.33,319.97L58.67,318.15L66,319.1L73.33,318.41L80.67,318.29L88,310.32L95.33,315.07L102.67,315.37L110,315.98L117.33,314.44L124.67,305.96L132,301.72L139.33,288.14L146.67,277.01L161.33,285.91L168.67,247.08L176,276.83L183.33,255.19L190.67,215.67L198,191.45L205.33,150.43L212.67,201.34L220,115.7L227.33,63.64L234.67,153.1L242,139.18L249.33,35.31L256.67,119.54L264,186.8L271.33,170.85L278.67,189.34L286,143.14L293.33,167.64L300.67,165.06L308,171.28L315.33,190.73L322.67,262.69L330,315.54" style="vector-effect: none; fill: none; stroke: rgb(255, 151, 255); stroke-opacity: 1; stroke-width: 2px; opacity: 1;"/></g><g class="points"/><g class="text"/></g><g class="trace scatter tracefe4ca9" style="stroke-miterlimit: 2;"><g class="fills"/><g class="errorbars"/><g class="lines"><path class="js-line" d="M0,319.89L14.67,319.81L29.33,318.96L51.33,319.97L58.67,318.15L66,319.1L73.33,318.41L80.67,318.29L88,310.32L95.33,315.07L102.67,315.37L110,315.98L117.33,313.4L124.67,305.13L132,300.5L139.33,286.19L146.67,275.11L161.33,283.51L168.67,238.81L176,273.36L183.33,251.25L190.67,208.59L198,185.23L205.33,137.7L212.67,193.67L220,104.13L227.33,32.77L234.67,142.94L242,127.4L249.33,16L256.67,108.59L264,179.88L271.33,162.87L278.67,169.15L286,132.48L293.33,161.1L300.67,158.22L308,163.07L315.33,184.58L322.67,260.39L330,315.17" style="vector-effect: none; fill: none; stroke: rgb(254, 203, 82); stroke-opacity: 1; stroke-width: 2px; opacity: 1;"/></g><g class="points"/><g class="text"/></g></g></g></g><path class="xlines-above crisp" d="M0,0" style="fill: none;"/><path class="ylines-above crisp" d="M0,0" style="fill: none;"/><g class="overlines-above"/><g class="xaxislayer-above"><g class="xtick"><text text-anchor="middle" x="0" y="433" transform="translate(102,0)" style="font-family: 'Open Sans', verdana, arial, sans-serif; font-size: 12px; fill: rgb(242, 245, 250); fill-opacity: 1; white-space: pre; opacity: 1;">1980</text></g><g class="xtick"><text text-anchor="middle" x="0" y="433" style="font-family: 'Open Sans', verdana, arial, sans-serif; font-size: 12px; fill: rgb(242, 245, 250); fill-opacity: 1; white-space: pre; opacity: 1;" transform="translate(175.32999999999998,0)">1990</text></g><g class="xtick"><text text-anchor="middle" x="0" y="433" style="font-family: 'Open Sans', verdana, arial, sans-serif; font-size: 12px; fill: rgb(242, 245, 250); fill-opacity: 1; white-space: pre; opacity: 1;" transform="translate(248.67,0)">2000</text></g><g class="xtick"><text text-anchor="middle" x="0" y="433" style="font-family: 'Open Sans', verdana, arial, sans-serif; font-size: 12px; fill: rgb(242, 245, 250); fill-opacity: 1; white-space: pre; opacity: 1;" transform="translate(322,0)">2010</text></g><g class="xtick"><text text-anchor="middle" x="0" y="433" style="font-family: 'Open Sans', verdana, arial, sans-serif; font-size: 12px; fill: rgb(242, 245, 250); fill-opacity: 1; white-space: pre; opacity: 1;" transform="translate(395.33,0)">2020</text></g></g><g class="yaxislayer-above"><g class="ytick"><text text-anchor="end" x="79" y="4.199999999999999" transform="translate(0,420)" style="font-family: 'Open Sans', verdana, arial, sans-serif; font-size: 12px; fill: rgb(242, 245, 250); fill-opacity: 1; white-space: pre; opacity: 1;">0</text></g><g class="ytick"><text text-anchor="end" x="79" y="4.199999999999999" style="font-family: 'Open Sans', verdana, arial, sans-serif; font-size: 12px; fill: rgb(242, 245, 250); fill-opacity: 1; white-space: pre; opacity: 1;" transform="translate(0,379.68)">10k</text></g><g class="ytick"><text text-anchor="end" x="79" y="4.199999999999999" style="font-family: 'Open Sans', verdana, arial, sans-serif; font-size: 12px; fill: rgb(242, 245, 250); fill-opacity: 1; white-space: pre; opacity: 1;" transform="translate(0,339.36)">20k</text></g><g class="ytick"><text text-anchor="end" x="79" y="4.199999999999999" style="font-family: 'Open Sans', verdana, arial, sans-serif; font-size: 12px; fill: rgb(242, 245, 250); fill-opacity: 1; white-space: pre; opacity: 1;" transform="translate(0,299.03999999999996)">30k</text></g><g class="ytick"><text text-anchor="end" x="79" y="4.199999999999999" style="font-family: 'Open Sans', verdana, arial, sans-serif; font-size: 12px; fill: rgb(242, 245, 250); fill-opacity: 1; white-space: pre; opacity: 1;" transform="translate(0,258.72)">40k</text></g><g class="ytick"><text text-anchor="end" x="79" y="4.199999999999999" style="font-family: 'Open Sans', verdana, arial, sans-serif; font-size: 12px; fill: rgb(242, 245, 250); fill-opacity: 1; white-space: pre; opacity: 1;" transform="translate(0,218.4)">50k</text></g><g class="ytick"><text text-anchor="end" x="79" y="4.199999999999999" style="font-family: 'Open Sans', verdana, arial, sans-serif; font-size: 12px; fill: rgb(242, 245, 250); fill-opacity: 1; white-space: pre; opacity: 1;" transform="translate(0,178.07999999999998)">60k</text></g><g class="ytick"><text text-anchor="end" x="79" y="4.199999999999999" style="font-family: 'Open Sans', verdana, arial, sans-serif; font-size: 12px; fill: rgb(242, 245, 250); fill-opacity: 1; white-space: pre; opacity: 1;" transform="translate(0,137.76)">70k</text></g></g><g class="overaxes-above"/></g></g><g class="polarlayer"/><g class="smithlayer"/><g class="ternarylayer"/><g class="geolayer"/><g class="funnelarealayer"/><g class="pielayer"/><g class="iciclelayer"/><g class="treemaplayer"/><g class="sunburstlayer"/><g class="glimages"/><defs id="topdefs-a4db12"><g class="clips"/><clipPath id="legenda4db12"><rect width="271" height="219" x="0" y="0"/></clipPath></defs><g class="layer-above"><g class="imagelayer"/><g class="shapelayer"/></g><g class="infolayer"><g class="legend" pointer-events="all" transform="translate(416.6,100)"><rect class="bg" shape-rendering="crispEdges" width="271" height="219" x="0" y="0" style="stroke: rgb(68, 68, 68); stroke-opacity: 1; fill: rgb(34, 37, 41); fill-opacity: 1; stroke-width: 0px;"/><g class="scrollbox" transform="" clip-path="url(#legenda4db12)"><text class="legendtitletext" text-anchor="start" x="2" y="18.2" style="font-family: 'Open Sans', verdana, arial, sans-serif; font-size: 14px; fill: rgb(242, 245, 250); fill-opacity: 1; white-space: pre;">Disease Classes</text><g class="groups" transform=""><g class="traces" transform="translate(0,32.7)" style="opacity: 1;"><text class="legendtext" text-anchor="start" x="40" y="4.680000000000001" style="font-family: 'Open Sans', verdana, arial, sans-serif; font-size: 12px; fill: rgb(242, 245, 250); fill-opacity: 1; white-space: pre;">Dysplasia</text><g class="layers"><g class="legendfill"><path class="js-fill" d="M5,-2h30v6h-30z" style="stroke-width: 0; fill: rgb(99, 110, 250); fill-opacity: 0.5;"/></g><g class="legendlines"><path class="js-line" d="M5,-2h30" style="fill: none; stroke: rgb(99, 110, 250); stroke-opacity: 1; stroke-width: 2px;"/></g><g class="legendsymbols"><g class="legendpoints"/></g></g><rect class="legendtoggle" x="0" y="-9.5" width="265.34375" height="19" style="fill: rgb(0, 0, 0); fill-opacity: 0;"/></g></g><g class="groups" transform=""><g class="traces" transform="translate(0,51.7)" style="opacity: 1;"><text class="legendtext" text-anchor="start" x="40" y="4.680000000000001" style="font-family: 'Open Sans', verdana, arial, sans-serif; font-size: 12px; fill: rgb(242, 245, 250); fill-opacity: 1; white-space: pre;">Epilepsy</text><g class="layers"><g class="legendfill"><path class="js-fill" d="M5,-2h30v6h-30z" style="stroke-width: 0; fill: rgb(239, 85, 59); fill-opacity: 0.5;"/></g><g class="legendlines"><path class="js-line" d="M5,-2h30" style="fill: none; stroke: rgb(239, 85, 59); stroke-opacity: 1; stroke-width: 2px;"/></g><g class="legendsymbols"><g class="legendpoints"/></g></g><rect class="legendtoggle" x="0" y="-9.5" width="265.34375" height="19" style="fill: rgb(0, 0, 0); fill-opacity: 0;"/></g></g><g class="groups" transform=""><g class="traces" transform="translate(0,70.7)" style="opacity: 1;"><text class="legendtext" text-anchor="start" x="40" y="4.680000000000001" style="font-family: 'Open Sans', verdana, arial, sans-serif; font-size: 12px; fill: rgb(242, 245, 250); fill-opacity: 1; white-space: pre;">Cancer</text><g class="layers"><g class="legendfill"><path class="js-fill" d="M5,-2h30v6h-30z" style="stroke-width: 0; fill: rgb(0, 204, 150); fill-opacity: 0.5;"/></g><g class="legendlines"><path class="js-line" d="M5,-2h30" style="fill: none; stroke: rgb(0, 204, 150); stroke-opacity: 1; stroke-width: 2px;"/></g><g class="legendsymbols"><g class="legendpoints"/></g></g><rect class="legendtoggle" x="0" y="-9.5" width="265.34375" height="19" style="fill: rgb(0, 0, 0); fill-opacity: 0;"/></g></g><g class="groups" transform=""><g class="traces" transform="translate(0,89.7)" style="opacity: 1;"><text class="legendtext" text-anchor="start" x="40" y="4.680000000000001" style="font-family: 'Open Sans', verdana, arial, sans-serif; font-size: 12px; fill: rgb(242, 245, 250); fill-opacity: 1; white-space: pre;">Diabetes</text><g class="layers"><g class="legendfill"><path class="js-fill" d="M5,-2h30v6h-30z" style="stroke-width: 0; fill: rgb(171, 99, 250); fill-opacity: 0.5;"/></g><g class="legendlines"><path class="js-line" d="M5,-2h30" style="fill: none; stroke: rgb(171, 99, 250); stroke-opacity: 1; stroke-width: 2px;"/></g><g class="legendsymbols"><g class="legendpoints"/></g></g><rect class="legendtoggle" x="0" y="-9.5" width="265.34375" height="19" style="fill: rgb(0, 0, 0); fill-opacity: 0;"/></g></g><g class="groups" transform=""><g class="traces" transform="translate(0,108.7)" style="opacity: 1;"><text class="legendtext" text-anchor="start" x="40" y="4.680000000000001" style="font-family: 'Open Sans', verdana, arial, sans-serif; font-size: 12px; fill: rgb(242, 245, 250); fill-opacity: 1; white-space: pre;">Immunodeficiency</text><g class="layers"><g class="legendfill"><path class="js-fill" d="M5,-2h30v6h-30z" style="stroke-width: 0; fill: rgb(255, 161, 90); fill-opacity: 0.5;"/></g><g class="legendlines"><path class="js-line" d="M5,-2h30" style="fill: none; stroke: rgb(255, 161, 90); stroke-opacity: 1; stroke-width: 2px;"/></g><g class="legendsymbols"><g class="legendpoints"/></g></g><rect class="legendtoggle" x="0" y="-9.5" width="265.34375" height="19" style="fill: rgb(0, 0, 0); fill-opacity: 0;"/></g></g><g class="groups" transform=""><g class="traces" transform="translate(0,127.7)" style="opacity: 1;"><text class="legendtext" text-anchor="start" x="40" y="4.680000000000001" style="font-family: 'Open Sans', verdana, arial, sans-serif; font-size: 12px; fill: rgb(242, 245, 250); fill-opacity: 1; white-space: pre;">Neurodegeneration</text><g class="layers"><g class="legendfill"><path class="js-fill" d="M5,-2h30v6h-30z" style="stroke-width: 0; fill: rgb(25, 211, 243); fill-opacity: 0.5;"/></g><g class="legendlines"><path class="js-line" d="M5,-2h30" style="fill: none; stroke: rgb(25, 211, 243); stroke-opacity: 1; stroke-width: 2px;"/></g><g class="legendsymbols"><g class="legendpoints"/></g></g><rect class="legendtoggle" x="0" y="-9.5" width="265.34375" height="19" style="fill: rgb(0, 0, 0); fill-opacity: 0;"/></g></g><g class="groups" transform=""><g class="traces" transform="translate(0,146.7)" style="opacity: 1;"><text class="legendtext" text-anchor="start" x="40" y="4.680000000000001" style="font-family: 'Open Sans', verdana, arial, sans-serif; font-size: 12px; fill: rgb(242, 245, 250); fill-opacity: 1; white-space: pre;">QT syndrome</text><g class="layers"><g class="legendfill"><path class="js-fill" d="M5,-2h30v6h-30z" style="stroke-width: 0; fill: rgb(255, 102, 146); fill-opacity: 0.5;"/></g><g class="legendlines"><path class="js-line" d="M5,-2h30" style="fill: none; stroke: rgb(255, 102, 146); stroke-opacity: 1; stroke-width: 2px;"/></g><g class="legendsymbols"><g class="legendpoints"/></g></g><rect class="legendtoggle" x="0" y="-9.5" width="265.34375" height="19" style="fill: rgb(0, 0, 0); fill-opacity: 0;"/></g></g><g class="groups" transform=""><g class="traces" transform="translate(0,165.7)" style="opacity: 1;"><text class="legendtext" text-anchor="start" x="40" y="4.680000000000001" style="font-family: 'Open Sans', verdana, arial, sans-serif; font-size: 12px; fill: rgb(242, 245, 250); fill-opacity: 1; white-space: pre;">Inflammatory skin and bowel disease</text><g class="layers"><g class="legendfill"><path class="js-fill" d="M5,-2h30v6h-30z" style="stroke-width: 0; fill: rgb(182, 232, 128); fill-opacity: 0.5;"/></g><g class="legendlines"><path class="js-line" d="M5,-2h30" style="fill: none; stroke: rgb(182, 232, 128); stroke-opacity: 1; stroke-width: 2px;"/></g><g class="legendsymbols"><g class="legendpoints"/></g></g><rect class="legendtoggle" x="0" y="-9.5" width="265.34375" height="19" style="fill: rgb(0, 0, 0); fill-opacity: 0;"/></g></g><g class="groups" transform=""><g class="traces" transform="translate(0,184.7)" style="opacity: 1;"><text class="legendtext" text-anchor="start" x="40" y="4.680000000000001" style="font-family: 'Open Sans', verdana, arial, sans-serif; font-size: 12px; fill: rgb(242, 245, 250); fill-opacity: 1; white-space: pre;">Vitamin D-dependent rickets 3</text><g class="layers"><g class="legendfill"><path class="js-fill" d="M5,-2h30v6h-30z" style="stroke-width: 0; fill: rgb(255, 151, 255); fill-opacity: 0.5;"/></g><g class="legendlines"><path class="js-line" d="M5,-2h30" style="fill: none; stroke: rgb(255, 151, 255); stroke-opacity: 1; stroke-width: 2px;"/></g><g class="legendsymbols"><g class="legendpoints"/></g></g><rect class="legendtoggle" x="0" y="-9.5" width="265.34375" height="19" style="fill: rgb(0, 0, 0); fill-opacity: 0;"/></g></g><g class="groups" transform=""><g class="traces" transform="translate(0,203.7)" style="opacity: 1;"><text class="legendtext" text-anchor="start" x="40" y="4.680000000000001" style="font-family: 'Open Sans', verdana, arial, sans-serif; font-size: 12px; fill: rgb(242, 245, 250); fill-opacity: 1; white-space: pre;">Obesity</text><g class="layers"><g class="legendfill"><path class="js-fill" d="M5,-2h30v6h-30z" style="stroke-width: 0; fill: rgb(254, 203, 82); fill-opacity: 0.5;"/></g><g class="legendlines"><path class="js-line" d="M5,-2h30" style="fill: none; stroke: rgb(254, 203, 82); stroke-opacity: 1; stroke-width: 2px;"/></g><g class="legendsymbols"><g class="legendpoints"/></g></g><rect class="legendtoggle" x="0" y="-9.5" width="265.34375" height="19" style="fill: rgb(0, 0, 0); fill-opacity: 0;"/></g></g></g><rect class="scrollbar" rx="20" ry="3" width="0" height="0" x="0" y="0" style="fill: rgb(128, 139, 164); fill-opacity: 1;"/></g><g class="g-gtitle"><text class="gtitle" x="350" y="50" text-anchor="middle" dy="0em" style="opacity: 1; font-family: 'Open Sans', verdana, arial, sans-serif; font-size: 17px; fill: rgb(242, 245, 250); fill-opacity: 1; white-space: pre;">Citations Over Time by Disease Class</text></g><g class="g-xtitle"><text class="xtitle" x="245" y="459.8" text-anchor="middle" style="opacity: 1; font-family: 'Open Sans', verdana, arial, sans-serif; font-size: 14px; fill: rgb(242, 245, 250); fill-opacity: 1; white-space: pre;">Publication Year</text></g><g class="g-ytitle"><text class="ytitle" transform="rotate(-90,37.240625,260)" x="37.240625" y="260" text-anchor="middle" style="opacity: 1; font-family: 'Open Sans', verdana, arial, sans-serif; font-size: 14px; fill: rgb(242, 245, 250); fill-opacity: 1; white-space: pre;">Citation Count</text></g></g></svg>