<svg class="main-svg" xmlns="http://www.w3.org/2000/svg" xmlns:xlink="http://www.w3.org/1999/xlink" width="1000" height="400" style="" viewBox="0 0 1000 400"><rect x="0" y="0" width="1000" height="400" style="fill: rgb(34, 37, 41); fill-opacity: 1;"/><defs id="defs-c1260b"><g class="clips"><clipPath id="clipc1260bxyplot" class="plotclip"><rect width="625" height="220"/></clipPath><clipPath class="axesclip" id="clipc1260bx"><rect x="80" y="0" width="625" height="400"/></clipPath><clipPath class="axesclip" id="clipc1260by"><rect x="0" y="100" width="1000" height="220"/></clipPath><clipPath class="axesclip" id="clipc1260bxy"><rect x="80" y="100" width="625" height="220"/></clipPath></g><g class="gradients"/><g class="patterns"/></defs><g class="bglayer"/><g class="layer-below"><g class="imagelayer"/><g class="shapelayer"/></g><g class="cartesianlayer"><g class="subplot xy"><g class="layer-subplot"><g class="shapelayer"/><g class="imagelayer"/></g><g class="minor-gridlayer"><g class="x"/><g class="y"/></g><g class="gridlayer"><g class="x"><path class="xgrid crisp" transform="translate(121.67,0)" d="M0,100v220" style="stroke: rgb(40, 52, 66); stroke-opacity: 1; stroke-width: 1px;"/><path class="xgrid crisp" transform="translate(260.56,0)" d="M0,100v220" style="stroke: rgb(40, 52, 66); stroke-opacity: 1; stroke-width: 1px;"/><path class="xgrid crisp" transform="translate(399.44,0)" d="M0,100v220" style="stroke: rgb(40, 52, 66); stroke-opacity: 1; stroke-width: 1px;"/><path class="xgrid crisp" transform="translate(538.3299999999999,0)" d="M0,100v220" style="stroke: rgb(40, 52, 66); stroke-opacity: 1; stroke-width: 1px;"/><path class="xgrid crisp" transform="translate(677.22,0)" d="M0,100v220" style="stroke: rgb(40, 52, 66); stroke-opacity: 1; stroke-width: 1px;"/></g><g class="y"><path class="ygrid crisp" transform="translate(0,264.56)" d="M80,0h625" style="stroke: rgb(40, 52, 66); stroke-opacity: 1; stroke-width: 1px;"/><path class="ygrid crisp" transform="translate(0,209.12)" d="M80,0h625" style="stroke: rgb(40, 52, 66); stroke-opacity: 1; stroke-width: 1px;"/><path class="ygrid crisp" transform="translate(0,153.68)" d="M80,0h625" style="stroke: rgb(40, 52, 66); stroke-opacity: 1; stroke-width: 1px;"/></g></g><g class="zerolinelayer"><path class="yzl zl crisp" transform="translate(0,320)" d="M80,0h625" style="stroke: rgb(40, 52, 66); stroke-opacity: 1; stroke-width: 2px;"/></g><g class="layer-between"><g class="shapelayer"/><g class="imagelayer"/></g><path class="xlines-below"/><path class="ylines-below"/><g class="overlines-below"/><g class="xaxislayer-below"/><g class="yaxislayer-below"/><g class="overaxes-below"/><g class="overplot"><g class="xy" transform="translate(80,100)" clip-path="url(#clipc1260bxyplot)"><g class="scatterlayer mlayer"><g class="trace scatter tracee7d775" style="stroke-miterlimit: 2;"><g class="fills"><g><path class="js-fill" d="M625,220L0,220L0,219.93L250,219.5L263.89,219.45L277.78,215.41L291.67,217L305.56,216.62L319.44,214.49L333.33,216.65L347.22,216.44L361.11,213.62L375,202.48L388.89,205.53L402.78,211.25L416.67,203.24L430.56,194.02L444.44,204.97L458.33,204.69L472.22,193L486.11,205.45L500,205.91L513.89,209.41L527.78,210.25L541.67,206.28L555.56,208.66L569.44,203.4L597.22,210.8L611.11,215.85L625,219.53" style="fill: rgb(99, 110, 250); fill-opacity: 0.5; stroke-width: 0;"/></g><g><path class="js-fill" d="M0,219.93L97.22,220L111.11,219.2L125,219.83L138.89,219.45L152.78,219.59L166.67,217.46L194.44,219.7L208.33,219.38L236.11,219.21L250,216.43L263.89,213.93L277.78,206.71L291.67,214.89L305.56,214.45L319.44,210.8L333.33,215.26L347.22,210.28L361.11,203L375,197.5L388.89,193.98L402.78,206.77L416.67,194.89L430.56,183.43L444.44,198.17L458.33,196.88L472.22,179.78L486.11,196.46L500,200.1L527.78,204.38L541.67,198.06L555.56,202.07L569.44,198.54L583.33,200.79L597.22,198L611.11,214L625,219.32L625,219.53L611.11,215.85L597.22,210.8L569.44,203.4L555.56,208.66L541.67,206.28L527.78,210.25L513.89,209.41L500,205.91L486.11,205.45L472.22,193L458.33,204.69L444.44,204.97L430.56,194.02L416.67,203.24L402.78,211.25L388.89,205.53L375,202.48L361.11,213.62L347.22,216.44L333.33,216.65L319.44,214.49L305.56,216.62L291.67,217L277.78,215.41L263.89,219.45L250,219.5L0,219.93Z" style="fill: rgb(239, 85, 59); fill-opacity: 0.5; stroke-width: 0;"/></g></g><g class="errorbars"/><g class="lines"><path class="js-line" d="M0,219.93L250,219.5L263.89,219.45L277.78,215.41L291.67,217L305.56,216.62L319.44,214.49L333.33,216.65L347.22,216.44L361.11,213.62L375,202.48L388.89,205.53L402.78,211.25L416.67,203.24L430.56,194.02L444.44,204.97L458.33,204.69L472.22,193L486.11,205.45L500,205.91L513.89,209.41L527.78,210.25L541.67,206.28L555.56,208.66L569.44,203.4L597.22,210.8L611.11,215.85L625,219.53" style="vector-effect: none; fill: none; stroke: rgb(99, 110, 250); stroke-opacity: 1; stroke-width: 2px; opacity: 1;"/></g><g class="points"/><g class="text"/></g><g class="trace scatter trace138587" style="stroke-miterlimit: 2;"><g class="fills"><g><path class="js-fill" d="M0,219.93L97.22,220L111.11,219.16L125,219.83L138.89,219.45L152.78,219.49L166.67,215.65L180.56,218.24L194.44,218.68L222.22,218.71L236.11,215.44L263.89,207.11L277.78,198.81L291.67,207.96L305.56,207.52L319.44,197.42L333.33,206.76L347.22,199.7L361.11,186.26L375,170.41L388.89,165.46L402.78,179.86L416.67,155.65L430.56,138.68L444.44,168.32L458.33,164.53L472.22,139.13L486.11,160.89L500,171.69L513.89,171.65L527.78,178.82L541.67,155.04L555.56,175.48L569.44,166.19L583.33,168.84L597.22,178.02L611.11,202.66L625,218.61L625,219.32L611.11,214L597.22,198L583.33,200.79L569.44,198.54L555.56,202.07L541.67,198.06L527.78,204.38L500,200.1L486.11,196.46L472.22,179.78L458.33,196.88L444.44,198.17L430.56,183.43L416.67,194.89L402.78,206.77L388.89,193.98L375,197.5L361.11,203L347.22,210.28L333.33,215.26L319.44,210.8L305.56,214.45L291.67,214.89L277.78,206.71L263.89,213.93L250,216.43L236.11,219.21L208.33,219.38L194.44,219.7L166.67,217.46L152.78,219.59L138.89,219.45L125,219.83L111.11,219.2L97.22,220L0,219.93Z" style="fill: rgb(0, 204, 150); fill-opacity: 0.5; stroke-width: 0;"/></g></g><g class="errorbars"/><g class="lines"><path class="js-line" d="M0,219.93L97.22,220L111.11,219.2L125,219.83L138.89,219.45L152.78,219.59L166.67,217.46L194.44,219.7L208.33,219.38L236.11,219.21L250,216.43L263.89,213.93L277.78,206.71L291.67,214.89L305.56,214.45L319.44,210.8L333.33,215.26L347.22,210.28L361.11,203L375,197.5L388.89,193.98L402.78,206.77L416.67,194.89L430.56,183.43L444.44,198.17L458.33,196.88L472.22,179.78L486.11,196.46L500,200.1L527.78,204.38L541.67,198.06L555.56,202.07L569.44,198.54L583.33,200.79L597.22,198L611.11,214L625,219.32" style="vector-effect: none; fill: none; stroke: rgb(239, 85, 59); stroke-opacity: 1; stroke-width: 2px; opacity: 1;"/></g><g class="points"/><g class="text"/></g><g class="trace scatter trace65177e" style="stroke-miterlimit: 2;"><g class="fills"><g><path class="js-fill" d="M0,219.93L97.22,220L111.11,218.91L138.89,219.45L152.78,219.28L166.67,215.15L180.56,218.24L222.22,218.21L236.11,215.01L263.89,206.76L277.78,198.26L291.67,204.82L305.56,205.49L319.44,188.72L333.33,202.55L347.22,195.12L361.11,180.49L375,161.59L388.89,148.11L402.78,173.99L416.67,142.17L430.56,123.85L444.44,155.82L458.33,152.64L472.22,115.21L486.11,149.14L500,166.53L513.89,165.39L527.78,172.68L541.67,147.88L555.56,169.85L569.44,162.43L583.33,163.44L597.22,175.65L611.11,200.75L625,218.46L625,218.61L611.11,202.66L597.22,178.02L583.33,168.84L569.44,166.19L555.56,175.48L541.67,155.04L527.78,178.82L513.89,171.65L500,171.69L486.11,160.89L472.22,139.13L458.33,164.53L444.44,168.32L430.56,138.68L416.67,155.65L402.78,179.86L388.89,165.46L375,170.41L361.11,186.26L347.22,199.7L333.33,206.76L319.44,197.42L305.56,207.52L291.67,207.96L277.78,198.81L263.89,207.11L236.11,215.44L222.22,218.71L194.44,218.68L180.56,218.24L166.67,215.65L152.78,219.49L138.89,219.45L125,219.83L111.11,219.16L97.22,220L0,219.93Z" style="fill: rgb(171, 99, 250); fill-opacity: 0.5; stroke-width: 0;"/></g></g><g class="errorbars"/><g class="lines"><path class="js-line" d="M0,219.93L97.22,220L111.11,219.16L125,219.83L138.89,219.45L152.78,219.49L166.67,215.65L180.56,218.24L194.44,218.68L222.22,218.71L236.11,215.44L263.89,207.11L277.78,198.81L291.67,207.96L305.56,207.52L319.44,197.42L333.33,206.76L347.22,199.7L361.11,186.26L375,170.41L388.89,165.46L402.78,179.86L416.67,155.65L430.56,138.68L444.44,168.32L458.33,164.53L472.22,139.13L486.11,160.89L500,171.69L513.89,171.65L527.78,178.82L541.67,155.04L555.56,175.48L569.44,166.19L583.33,168.84L597.22,178.02L611.11,202.66L625,218.61" style="vector-effect: none; fill: none; stroke: rgb(0, 204, 150); stroke-opacity: 1; stroke-width: 2px; opacity: 1;"/></g><g class="points"/><g class="text"/></g><g class="trace scatter traceeb2fc0" style="stroke-miterlimit: 2;"><g class="fills"><g><path class="js-fill" d="M0,219.93L83.33,219.94L97.22,220L111.11,218.91L125,219.38L152.78,219.13L166.67,215.15L180.56,218.15L194.44,217.74L222.22,217.41L236.11,214.73L263.89,206.66L277.78,197.92L291.67,203.77L305.56,203.26L319.44,184.89L333.33,200.5L347.22,191.42L361.11,171.51L375,149.77L388.89,138.1L402.78,164.9L416.67,121.8L430.56,100.79L444.44,143.89L458.33,140.57L472.22,96.26L486.11,136.64L500,154.15L513.89,154.34L527.78,163.84L541.67,135.97L555.56,160.76L569.44,150.77L583.33,152.59L597.22,167.72L611.11,197.43L625,218.18L625,218.46L611.11,200.75L597.22,175.65L583.33,163.44L569.44,162.43L555.56,169.85L541.67,147.88L527.78,172.68L513.89,165.39L500,166.53L486.11,149.14L472.22,115.21L458.33,152.64L444.44,155.82L430.56,123.85L416.67,142.17L402.78,173.99L388.89,148.11L375,161.59L361.11,180.49L347.22,195.12L333.33,202.55L319.44,188.72L305.56,205.49L291.67,204.82L277.78,198.26L263.89,206.76L236.11,215.01L222.22,218.21L180.56,218.24L166.67,215.15L152.78,219.28L138.89,219.45L111.11,218.91L97.22,220L0,219.93Z" style="fill: rgb(255, 161, 90); fill-opacity: 0.5; stroke-width: 0;"/></g></g><g class="errorbars"/><g class="lines"><path class="js-line" d="M0,219.93L97.22,220L111.11,218.91L138.89,219.45L152.78,219.28L166.67,215.15L180.56,218.24L222.22,218.21L236.11,215.01L263.89,206.76L277.78,198.26L291.67,204.82L305.56,205.49L319.44,188.72L333.33,202.55L347.22,195.12L361.11,180.49L375,161.59L388.89,148.11L402.78,173.99L416.67,142.17L430.56,123.85L444.44,155.82L458.33,152.64L472.22,115.21L486.11,149.14L500,166.53L513.89,165.39L527.78,172.68L541.67,147.88L555.56,169.85L569.44,162.43L583.33,163.44L597.22,175.65L611.11,200.75L625,218.46" style="vector-effect: none; fill: none; stroke: rgb(171, 99, 250); stroke-opacity: 1; stroke-width: 2px; opacity: 1;"/></g><g class="points"/><g class="text"/></g><g class="trace scatter trace52b97c" style="stroke-miterlimit: 2;"><g class="fills"><g><path class="js-fill" d="M0,219.93L83.33,219.88L97.22,219.98L111.11,218.72L125,219.38L152.78,219.02L166.67,215.15L180.56,218.09L194.44,217.66L208.33,217.78L222.22,216.49L236.11,212.5L250,210.19L263.89,200.87L277.78,193.7L291.67,195.66L305.56,199.65L319.44,175.06L333.33,195.63L347.22,181.84L361.11,156.5L375,139.38L388.89,119.6L402.78,150.85L416.67,95.27L430.56,75.91L444.44,129.9L458.33,125.83L472.22,72.99L486.11,118.79L500,145.98L513.89,144.75L527.78,154.51L541.67,124.77L555.56,145.64L569.44,143.27L583.33,142.27L597.22,162.41L611.11,193.89L625,217.98L625,218.18L611.11,197.43L597.22,167.72L583.33,152.59L569.44,150.77L555.56,160.76L541.67,135.97L527.78,163.84L513.89,154.34L500,154.15L486.11,136.64L472.22,96.26L458.33,140.57L444.44,143.89L430.56,100.79L416.67,121.8L402.78,164.9L388.89,138.1L375,149.77L361.11,171.51L347.22,191.42L333.33,200.5L319.44,184.89L305.56,203.26L291.67,203.77L277.78,197.92L263.89,206.66L236.11,214.73L222.22,217.41L194.44,217.74L180.56,218.15L166.67,215.15L152.78,219.13L125,219.38L111.11,218.91L97.22,220L83.33,219.94L0,219.93Z" style="fill: rgb(25, 211, 243); fill-opacity: 0.5; stroke-width: 0;"/></g></g><g class="errorbars"/><g class="lines"><path class="js-line" d="M0,219.93L83.33,219.94L97.22,220L111.11,218.91L125,219.38L152.78,219.13L166.67,215.15L180.56,218.15L194.44,217.74L222.22,217.41L236.11,214.73L263.89,206.66L277.78,197.92L291.67,203.77L305.56,203.26L319.44,184.89L333.33,200.5L347.22,191.42L361.11,171.51L375,149.77L388.89,138.1L402.78,164.9L416.67,121.8L430.56,100.79L444.44,143.89L458.33,140.57L472.22,96.26L486.11,136.64L500,154.15L513.89,154.34L527.78,163.84L541.67,135.97L555.56,160.76L569.44,150.77L583.33,152.59L597.22,167.72L611.11,197.43L625,218.18" style="vector-effect: none; fill: none; stroke: rgb(255, 161, 90); stroke-opacity: 1; stroke-width: 2px; opacity: 1;"/></g><g class="points"/><g class="text"/></g><g class="trace scatter trace6c144d" style="stroke-miterlimit: 2;"><g class="fills"><g><path class="js-fill" d="M0,219.93L83.33,219.88L97.22,219.98L111.11,218.72L125,219.38L152.78,218.83L166.67,215.15L194.44,217.66L208.33,217.78L222.22,216.46L236.11,212.5L250,208.82L263.89,200.87L277.78,193.45L291.67,195.66L305.56,199.55L319.44,175.02L333.33,194.46L347.22,180.33L361.11,155.13L375,138.27L388.89,116.46L402.78,147.48L416.67,90.93L430.56,69.75L444.44,121.86L458.33,114.37L472.22,55.62L486.11,103.77L500,138.25L513.89,133.33L527.78,143.55L541.67,114.8L555.56,134.22L569.44,130.96L583.33,132.33L597.22,143.41L611.11,188.48L625,217.53L625,217.98L611.11,193.89L597.22,162.41L583.33,142.27L569.44,143.27L555.56,145.64L541.67,124.77L527.78,154.51L513.89,144.75L500,145.98L486.11,118.79L472.22,72.99L458.33,125.83L444.44,129.9L430.56,75.91L416.67,95.27L402.78,150.85L388.89,119.6L375,139.38L361.11,156.5L347.22,181.84L333.33,195.63L319.44,175.06L305.56,199.65L291.67,195.66L277.78,193.7L263.89,200.87L250,210.19L236.11,212.5L222.22,216.49L208.33,217.78L194.44,217.66L180.56,218.09L166.67,215.15L152.78,219.02L125,219.38L111.11,218.72L97.22,219.98L83.33,219.88L0,219.93Z" style="fill: rgb(255, 102, 146); fill-opacity: 0.5; stroke-width: 0;"/></g></g><g class="errorbars"/><g class="lines"><path class="js-line" d="M0,219.93L83.33,219.88L97.22,219.98L111.11,218.72L125,219.38L152.78,219.02L166.67,215.15L180.56,218.09L194.44,217.66L208.33,217.78L222.22,216.49L236.11,212.5L250,210.19L263.89,200.87L277.78,193.7L291.67,195.66L305.56,199.65L319.44,175.06L333.33,195.63L347.22,181.84L361.11,156.5L375,139.38L388.89,119.6L402.78,150.85L416.67,95.27L430.56,75.91L444.44,129.9L458.33,125.83L472.22,72.99L486.11,118.79L500,145.98L513.89,144.75L527.78,154.51L541.67,124.77L555.56,145.64L569.44,143.27L583.33,142.27L597.22,162.41L611.11,193.89L625,217.98" style="vector-effect: none; fill: none; stroke: rgb(25, 211, 243); stroke-opacity: 1; stroke-width: 2px; opacity: 1;"/></g><g class="points"/><g class="text"/></g><g class="trace scatter trace2991be" style="stroke-miterlimit: 2;"><g class="fills"><g><path class="js-fill" d="M0,219.93L83.33,219.88L97.22,219.98L111.11,218.72L125,219.38L152.78,218.83L166.67,213.35L180.56,216.61L194.44,216.81L208.33,217.54L222.22,216.25L236.11,210.35L250,207.43L263.89,198.09L277.78,190.65L305.56,196.99L319.44,170.11L333.33,190.5L347.22,175.68L361.11,149.63L375,133.07L388.89,105.43L402.78,140.69L416.67,83.25L430.56,52.23L444.44,113.53L458.33,107.11L472.22,38.59L486.11,97.05L500,134.74L513.89,127.87L527.78,138.49L541.67,107.31L555.56,126.8L569.44,123.55L583.33,125.45L597.22,138.86L611.11,185.55L625,217.4L625,217.53L611.11,188.48L597.22,143.41L583.33,132.33L569.44,130.96L555.56,134.22L541.67,114.8L527.78,143.55L513.89,133.33L500,138.25L486.11,103.77L472.22,55.62L458.33,114.37L444.44,121.86L430.56,69.75L416.67,90.93L402.78,147.48L388.89,116.46L375,138.27L361.11,155.13L347.22,180.33L333.33,194.46L319.44,175.02L305.56,199.55L291.67,195.66L277.78,193.45L263.89,200.87L250,208.82L236.11,212.5L222.22,216.46L208.33,217.78L194.44,217.66L166.67,215.15L152.78,218.83L125,219.38L111.11,218.72L97.22,219.98L83.33,219.88L0,219.93Z" style="fill: rgb(182, 232, 128); fill-opacity: 0.5; stroke-width: 0;"/></g></g><g class="errorbars"/><g class="lines"><path class="js-line" d="M0,219.93L83.33,219.88L97.22,219.98L111.11,218.72L125,219.38L152.78,218.83L166.67,215.15L194.44,217.66L208.33,217.78L222.22,216.46L236.11,212.5L250,208.82L263.89,200.87L277.78,193.45L291.67,195.66L305.56,199.55L319.44,175.02L333.33,194.46L347.22,180.33L361.11,155.13L375,138.27L388.89,116.46L402.78,147.48L416.67,90.93L430.56,69.75L444.44,121.86L458.33,114.37L472.22,55.62L486.11,103.77L500,138.25L513.89,133.33L527.78,143.55L541.67,114.8L555.56,134.22L569.44,130.96L583.33,132.33L597.22,143.41L611.11,188.48L625,217.53" style="vector-effect: none; fill: none; stroke: rgb(255, 102, 146); stroke-opacity: 1; stroke-width: 2px; opacity: 1;"/></g><g class="points"/><g class="text"/></g><g class="trace scatter tracecc6591" style="stroke-miterlimit: 2;"><g class="fills"><g><path class="js-fill" d="M0,219.93L83.33,219.88L97.22,219.98L111.11,218.72L125,219.38L152.78,218.83L166.67,213.35L180.56,216.61L194.44,216.81L208.33,217.24L222.22,216.18L236.11,210.35L250,207.43L263.89,198.09L277.78,190.45L305.56,196.57L319.44,169.87L333.33,190.32L347.22,175.45L361.11,148.27L375,131.62L388.89,103.42L402.78,138.42L416.67,79.54L430.56,43.75L444.44,105.26L458.33,95.69L472.22,24.28L486.11,82.18L500,128.42L513.89,117.46L527.78,130.17L541.67,98.41L555.56,115.25L569.44,113.48L583.33,117.76L597.22,131.13L611.11,180.6L625,216.93L625,217.4L611.11,185.55L597.22,138.86L583.33,125.45L569.44,123.55L555.56,126.8L541.67,107.31L527.78,138.49L513.89,127.87L500,134.74L486.11,97.05L472.22,38.59L458.33,107.11L444.44,113.53L430.56,52.23L416.67,83.25L402.78,140.69L388.89,105.43L375,133.07L361.11,149.63L347.22,175.68L333.33,190.5L319.44,170.11L305.56,196.99L277.78,190.65L263.89,198.09L250,207.43L236.11,210.35L222.22,216.25L208.33,217.54L194.44,216.81L180.56,216.61L166.67,213.35L152.78,218.83L125,219.38L111.11,218.72L97.22,219.98L83.33,219.88L0,219.93Z" style="fill: rgb(255, 151, 255); fill-opacity: 0.5; stroke-width: 0;"/></g></g><g class="errorbars"/><g class="lines"><path class="js-line" d="M0,219.93L83.33,219.88L97.22,219.98L111.11,218.72L125,219.38L152.78,218.83L166.67,213.35L180.56,216.61L194.44,216.81L208.33,217.54L222.22,216.25L236.11,210.35L250,207.43L263.89,198.09L277.78,190.65L305.56,196.99L319.44,170.11L333.33,190.5L347.22,175.68L361.11,149.63L375,133.07L388.89,105.43L402.78,140.69L416.67,83.25L430.56,52.23L444.44,113.53L458.33,107.11L472.22,38.59L486.11,97.05L500,134.74L513.89,127.87L527.78,138.49L541.67,107.31L555.56,126.8L569.44,123.55L583.33,125.45L597.22,138.86L611.11,185.55L625,217.4" style="vector-effect: none; fill: none; stroke: rgb(182, 232, 128); stroke-opacity: 1; stroke-width: 2px; opacity: 1;"/></g><g class="points"/><g class="text"/></g><g class="trace scatter tracec13e06" style="stroke-miterlimit: 2;"><g class="fills"><g><path class="js-fill" d="M0,219.93L83.33,219.88L97.22,219.98L111.11,218.72L125,219.38L152.78,218.83L166.67,213.35L180.56,216.61L194.44,216.81L208.33,217.24L222.22,215.46L236.11,209.78L250,206.59L263.89,196.75L277.78,189.14L305.56,194.91L319.44,164.18L333.33,187.93L347.22,172.73L361.11,143.41L375,127.35L388.89,94.67L402.78,133.15L416.67,71.59L430.56,22.53L444.44,98.27L458.33,87.59L472.22,11L486.11,74.66L500,123.66L513.89,111.97L527.78,116.29L541.67,91.08L555.56,110.76L569.44,108.77L583.33,112.11L597.22,126.9L611.11,179.02L625,216.68L625,216.93L611.11,180.6L597.22,131.13L583.33,117.76L569.44,113.48L555.56,115.25L541.67,98.41L527.78,130.17L513.89,117.46L500,128.42L486.11,82.18L472.22,24.28L458.33,95.69L444.44,105.26L430.56,43.75L416.67,79.54L402.78,138.42L388.89,103.42L375,131.62L361.11,148.27L347.22,175.45L333.33,190.32L319.44,169.87L305.56,196.57L277.78,190.45L263.89,198.09L250,207.43L236.11,210.35L222.22,216.18L208.33,217.24L194.44,216.81L180.56,216.61L166.67,213.35L152.78,218.83L125,219.38L111.11,218.72L97.22,219.98L83.33,219.88L0,219.93Z" style="fill: rgb(254, 203, 82); fill-opacity: 0.5; stroke-width: 0;"/></g></g><g class="errorbars"/><g class="lines"><path class="js-line" d="M0,219.93L83.33,219.88L97.22,219.98L111.11,218.72L125,219.38L152.78,218.83L166.67,213.35L180.56,216.61L194.44,216.81L208.33,217.24L222.22,216.18L236.11,210.35L250,207.43L263.89,198.09L277.78,190.45L305.56,196.57L319.44,169.87L333.33,190.32L347.22,175.45L361.11,148.27L375,131.62L388.89,103.42L402.78,138.42L416.67,79.54L430.56,43.75L444.44,105.26L458.33,95.69L472.22,24.28L486.11,82.18L500,128.42L513.89,117.46L527.78,130.17L541.67,98.41L555.56,115.25L569.44,113.48L583.33,117.76L597.22,131.13L611.11,180.6L625,216.93" style="vector-effect: none; fill: none; stroke: rgb(255, 151, 255); stroke-opacity: 1; stroke-width: 2px; opacity: 1;"/></g><g class="points"/><g class="text"/></g><g class="trace scatter tracefd8ff4" style="stroke-miterlimit: 2;"><g class="fills"/><g class="errorbars"/><g class="lines"><path class="js-line" d="M0,219.93L83.33,219.88L97.22,219.98L111.11,218.72L125,219.38L152.78,218.83L166.67,213.35L180.56,216.61L194.44,216.81L208.33,217.24L222.22,215.46L236.11,209.78L250,206.59L263.89,196.75L277.78,189.14L305.56,194.91L319.44,164.18L333.33,187.93L347.22,172.73L361.11,143.41L375,127.35L388.89,94.67L402.78,133.15L416.67,71.59L430.56,22.53L444.44,98.27L458.33,87.59L472.22,11L486.11,74.66L500,123.66L513.89,111.97L527.78,116.29L541.67,91.08L555.56,110.76L569.44,108.77L583.33,112.11L597.22,126.9L611.11,179.02L625,216.68" style="vector-effect: none; fill: none; stroke: rgb(254, 203, 82); stroke-opacity: 1; stroke-width: 2px; opacity: 1;"/></g><g class="points"/><g class="text"/></g></g></g></g><path class="xlines-above crisp" d="M0,0" style="fill: none;"/><path class="ylines-above crisp" d="M0,0" style="fill: none;"/><g class="overlines-above"/><g class="xaxislayer-above"><g class="xtick"><text text-anchor="middle" x="0" y="333" transform="translate(121.67,0)" style="font-family: 'Open Sans', verdana, arial, sans-serif; font-size: 12px; fill: rgb(242, 245, 250); fill-opacity: 1; white-space: pre; opacity: 1;">1980</text></g><g class="xtick"><text text-anchor="middle" x="0" y="333" style="font-family: 'Open Sans', verdana, arial, sans-serif; font-size: 12px; fill: rgb(242, 245, 250); fill-opacity: 1; white-space: pre; opacity: 1;" transform="translate(260.56,0)">1990</text></g><g class="xtick"><text text-anchor="middle" x="0" y="333" style="font-family: 'Open Sans', verdana, arial, sans-serif; font-size: 12px; fill: rgb(242, 245, 250); fill-opacity: 1; white-space: pre; opacity: 1;" transform="translate(399.44,0)">2000</text></g><g class="xtick"><text text-anchor="middle" x="0" y="333" style="font-family: 'Open Sans', verdana, arial, sans-serif; font-size: 12px; fill: rgb(242, 245, 250); fill-opacity: 1; white-space: pre; opacity: 1;" transform="translate(538.3299999999999,0)">2010</text></g><g class="xtick"><text text-anchor="middle" x="0" y="333" style="font-family: 'Open Sans', verdana, arial, sans-serif; font-size: 12px; fill: rgb(242, 245, 250); fill-opacity: 1; white-space: pre; opacity: 1;" transform="translate(677.22,0)">2020</text></g></g><g class="yaxislayer-above"><g class="ytick"><text text-anchor="end" x="79" y="4.199999999999999" transform="translate(0,320)" style="font-family: 'Open Sans', verdana, arial, sans-serif; font-size: 12px; fill: rgb(242, 245, 250); fill-opacity: 1; white-space: pre; opacity: 1;">0</text></g><g class="ytick"><text text-anchor="end" x="79" y="4.199999999999999" style="font-family: 'Open Sans', verdana, arial, sans-serif; font-size: 12px; fill: rgb(242, 245, 250); fill-opacity: 1; white-space: pre; opacity: 1;" transform="translate(0,264.56)">20k</text></g><g class="ytick"><text text-anchor="end" x="79" y="4.199999999999999" style="font-family: 'Open Sans', verdana, arial, sans-serif; font-size: 12px; fill: rgb(242, 245, 250); fill-opacity: 1; white-space: pre; opacity: 1;" transform="translate(0,209.12)">40k</text></g><g class="ytick"><text text-anchor="end" x="79" y="4.199999999999999" style="font-family: 'Open Sans', verdana, arial, sans-serif; font-size: 12px; fill: rgb(242, 245, 250); fill-opacity: 1; white-space: pre; opacity: 1;" transform="translate(0,153.68)">60k</text></g></g><g class="overaxes-above"/></g></g><g class="polarlayer"/><g class="smithlayer"/><g class="ternarylayer"/><g class="geolayer"/><g class="funnelarealayer"/><g class="pielayer"/><g class="iciclelayer"/><g class="treemaplayer"/><g class="sunburstlayer"/><g class="glimages"/><defs id="topdefs-c1260b"><g class="clips"/><clipPath id="legendc1260b"><rect width="271" height="219" x="0" y="0"/></clipPath></defs><g class="layer-above"><g class="imagelayer"/><g class="shapelayer"/></g><g class="infolayer"><g class="legend" pointer-events="all" transform="translate(717.5,100)"><rect class="bg" shape-rendering="crispEdges" style="stroke: rgb(68, 68, 68); stroke-opacity: 1; fill: rgb(34, 37, 41); fill-opacity: 1; stroke-width: 0px;" width="271" height="219" x="0" y="0"/><g class="scrollbox" transform="" clip-path="url(#legendc1260b)"><text class="legendtitletext" text-anchor="start" x="2" y="18.2" style="font-family: 'Open Sans', verdana, arial, sans-serif; font-size: 14px; fill: rgb(242, 245, 250); fill-opacity: 1; white-space: pre;">Disease Classes</text><g class="groups" transform=""><g class="traces" transform="translate(0,32.7)" style="opacity: 1;"><text class="legendtext" text-anchor="start" x="40" y="4.680000000000001" style="font-family: 'Open Sans', verdana, arial, sans-serif; font-size: 12px; fill: rgb(242, 245, 250); fill-opacity: 1; white-space: pre;">Dysplasia</text><g class="layers"><g class="legendfill"><path class="js-fill" d="M5,-2h30v6h-30z" style="stroke-width: 0; fill: rgb(99, 110, 250); fill-opacity: 0.5;"/></g><g class="legendlines"><path class="js-line" d="M5,-2h30" style="fill: none; stroke: rgb(99, 110, 250); stroke-opacity: 1; stroke-width: 2px;"/></g><g class="legendsymbols"><g class="legendpoints"/></g></g><rect class="legendtoggle" x="0" y="-9.5" width="265.34375" height="19" style="fill: rgb(0, 0, 0); fill-opacity: 0;"/></g></g><g class="groups" transform=""><g class="traces" transform="translate(0,51.7)" style="opacity: 1;"><text class="legendtext" text-anchor="start" x="40" y="4.680000000000001" style="font-family: 'Open Sans', verdana, arial, sans-serif; font-size: 12px; fill: rgb(242, 245, 250); fill-opacity: 1; white-space: pre;">Epilepsy</text><g class="layers"><g class="legendfill"><path class="js-fill" d="M5,-2h30v6h-30z" style="stroke-width: 0; fill: rgb(239, 85, 59); fill-opacity: 0.5;"/></g><g class="legendlines"><path class="js-line" d="M5,-2h30" style="fill: none; stroke: rgb(239, 85, 59); stroke-opacity: 1; stroke-width: 2px;"/></g><g class="legendsymbols"><g class="legendpoints"/></g></g><rect class="legendtoggle" x="0" y="-9.5" width="265.34375" height="19" style="fill: rgb(0, 0, 0); fill-opacity: 0;"/></g></g><g class="groups" transform=""><g class="traces" transform="translate(0,70.7)" style="opacity: 1;"><text class="legendtext" text-anchor="start" x="40" y="4.680000000000001" style="font-family: 'Open Sans', verdana, arial, sans-serif; font-size: 12px; fill: rgb(242, 245, 250); fill-opacity: 1; white-space: pre;">Cancer</text><g class="layers"><g class="legendfill"><path class="js-fill" d="M5,-2h30v6h-30z" style="stroke-width: 0; fill: rgb(0, 204, 150); fill-opacity: 0.5;"/></g><g class="legendlines"><path class="js-line" d="M5,-2h30" style="fill: none; stroke: rgb(0, 204, 150); stroke-opacity: 1; stroke-width: 2px;"/></g><g class="legendsymbols"><g class="legendpoints"/></g></g><rect class="legendtoggle" x="0" y="-9.5" width="265.34375" height="19" style="fill: rgb(0, 0, 0); fill-opacity: 0;"/></g></g><g class="groups" transform=""><g class="traces" transform="translate(0,89.7)" style="opacity: 1;"><text class="legendtext" text-anchor="start" x="40" y="4.680000000000001" style="font-family: 'Open Sans', verdana, arial, sans-serif; font-size: 12px; fill: rgb(242, 245, 250); fill-opacity: 1; white-space: pre;">Diabetes</text><g class="layers"><g class="legendfill"><path class="js-fill" d="M5,-2h30v6h-30z" style="stroke-width: 0; fill: rgb(171, 99, 250); fill-opacity: 0.5;"/></g><g class="legendlines"><path class="js-line" d="M5,-2h30" style="fill: none; stroke: rgb(171, 99, 250); stroke-opacity: 1; stroke-width: 2px;"/></g><g class="legendsymbols"><g class="legendpoints"/></g></g><rect class="legendtoggle" x="0" y="-9.5" width="265.34375" height="19" style="fill: rgb(0, 0, 0); fill-opacity: 0;"/></g></g><g class="groups" transform=""><g class="traces" transform="translate(0,108.7)" style="opacity: 1;"><text class="legendtext" text-anchor="start" x="40" y="4.680000000000001" style="font-family: 'Open Sans', verdana, arial, sans-serif; font-size: 12px; fill: rgb(242, 245, 250); fill-opacity: 1; white-space: pre;">Immunodeficiency</text><g class="layers"><g class="legendfill"><path class="js-fill" d="M5,-2h30v6h-30z" style="stroke-width: 0; fill: rgb(255, 161, 90); fill-opacity: 0.5;"/></g><g class="legendlines"><path class="js-line" d="M5,-2h30" style="fill: none; stroke: rgb(255, 161, 90); stroke-opacity: 1; stroke-width: 2px;"/></g><g class="legendsymbols"><g class="legendpoints"/></g></g><rect class="legendtoggle" x="0" y="-9.5" width="265.34375" height="19" style="fill: rgb(0, 0, 0); fill-opacity: 0;"/></g></g><g class="groups" transform=""><g class="traces" transform="translate(0,127.7)" style="opacity: 1;"><text class="legendtext" text-anchor="start" x="40" y="4.680000000000001" style="font-family: 'Open Sans', verdana, arial, sans-serif; font-size: 12px; fill: rgb(242, 245, 250); fill-opacity: 1; white-space: pre;">Neurodegeneration</text><g class="layers"><g class="legendfill"><path class="js-fill" d="M5,-2h30v6h-30z" style="stroke-width: 0; fill: rgb(25, 211, 243); fill-opacity: 0.5;"/></g><g class="legendlines"><path class="js-line" d="M5,-2h30" style="fill: none; stroke: rgb(25, 211, 243); stroke-opacity: 1; stroke-width: 2px;"/></g><g class="legendsymbols"><g class="legendpoints"/></g></g><rect class="legendtoggle" x="0" y="-9.5" width="265.34375" height="19" style="fill: rgb(0, 0, 0); fill-opacity: 0;"/></g></g><g class="groups" transform=""><g class="traces" transform="translate(0,146.7)" style="opacity: 1;"><text class="legendtext" text-anchor="start" x="40" y="4.680000000000001" style="font-family: 'Open Sans', verdana, arial, sans-serif; font-size: 12px; fill: rgb(242, 245, 250); fill-opacity: 1; white-space: pre;">QT syndrome</text><g class="layers"><g class="legendfill"><path class="js-fill" d="M5,-2h30v6h-30z" style="stroke-width: 0; fill: rgb(255, 102, 146); fill-opacity: 0.5;"/></g><g class="legendlines"><path class="js-line" d="M5,-2h30" style="fill: none; stroke: rgb(255, 102, 146); stroke-opacity: 1; stroke-width: 2px;"/></g><g class="legendsymbols"><g class="legendpoints"/></g></g><rect class="legendtoggle" x="0" y="-9.5" width="265.34375" height="19" style="fill: rgb(0, 0, 0); fill-opacity: 0;"/></g></g><g class="groups" transform=""><g class="traces" transform="translate(0,165.7)" style="opacity: 1;"><text class="legendtext" text-anchor="start" x="40" y="4.680000000000001" style="font-family: 'Open Sans', verdana, arial, sans-serif; font-size: 12px; fill: rgb(242, 245, 250); fill-opacity: 1; white-space: pre;">Inflammatory skin and bowel disease</text><g class="layers"><g class="legendfill"><path class="js-fill" d="M5,-2h30v6h-30z" style="stroke-width: 0; fill: rgb(182, 232, 128); fill-opacity: 0.5;"/></g><g class="legendlines"><path class="js-line" d="M5,-2h30" style="fill: none; stroke: rgb(182, 232, 128); stroke-opacity: 1; stroke-width: 2px;"/></g><g class="legendsymbols"><g class="legendpoints"/></g></g><rect class="legendtoggle" x="0" y="-9.5" width="265.34375" height="19" style="fill: rgb(0, 0, 0); fill-opacity: 0;"/></g></g><g class="groups" transform=""><g class="traces" transform="translate(0,184.7)" style="opacity: 1;"><text class="legendtext" text-anchor="start" x="40" y="4.680000000000001" style="font-family: 'Open Sans', verdana, arial, sans-serif; font-size: 12px; fill: rgb(242, 245, 250); fill-opacity: 1; white-space: pre;">Vitamin D-dependent rickets 3</text><g class="layers"><g class="legendfill"><path class="js-fill" d="M5,-2h30v6h-30z" style="stroke-width: 0; fill: rgb(255, 151, 255); fill-opacity: 0.5;"/></g><g class="legendlines"><path class="js-line" d="M5,-2h30" style="fill: none; stroke: rgb(255, 151, 255); stroke-opacity: 1; stroke-width: 2px;"/></g><g class="legendsymbols"><g class="legendpoints"/></g></g><rect class="legendtoggle" x="0" y="-9.5" width="265.34375" height="19" style="fill: rgb(0, 0, 0); fill-opacity: 0;"/></g></g><g class="groups" transform=""><g class="traces" transform="translate(0,203.7)" style="opacity: 1;"><text class="legendtext" text-anchor="start" x="40" y="4.680000000000001" style="font-family: 'Open Sans', verdana, arial, sans-serif; font-size: 12px; fill: rgb(242, 245, 250); fill-opacity: 1; white-space: pre;">Obesity</text><g class="layers"><g class="legendfill"><path class="js-fill" d="M5,-2h30v6h-30z" style="stroke-width: 0; fill: rgb(254, 203, 82); fill-opacity: 0.5;"/></g><g class="legendlines"><path class="js-line" d="M5,-2h30" style="fill: none; stroke: rgb(254, 203, 82); stroke-opacity: 1; stroke-width: 2px;"/></g><g class="legendsymbols"><g class="legendpoints"/></g></g><rect class="legendtoggle" x="0" y="-9.5" width="265.34375" height="19" style="fill: rgb(0, 0, 0); fill-opacity: 0;"/></g></g></g><rect class="scrollbar" rx="20" ry="3" width="0" height="0" style="fill: rgb(128, 139, 164); fill-opacity: 1;" x="0" y="0"/></g><g class="g-gtitle"><text class="gtitle" x="500" y="50" text-anchor="middle" dy="0em" style="opacity: 1; font-family: 'Open Sans', verdana, arial, sans-serif; font-size: 17px; fill: rgb(242, 245, 250); fill-opacity: 1; white-space: pre;">Citations Over Time by Disease Class</text></g><g class="g-xtitle"><text class="xtitle" x="392.5" y="359.8" text-anchor="middle" style="opacity: 1; font-family: 'Open Sans', verdana, arial, sans-serif; font-size: 14px; fill: rgb(242, 245, 250); fill-opacity: 1; white-space: pre;">Publication Year</text></g><g class="g-ytitle"><text class="ytitle" transform="rotate(-90,37.240625,210)" x="37.240625" y="210" text-anchor="middle" style="opacity: 1; font-family: 'Open Sans', verdana, arial, sans-serif; font-size: 14px; fill: rgb(242, 245, 250); fill-opacity: 1; white-space: pre;">Citation Count</text></g></g></svg>