<svg class="main-svg" xmlns="http://www.w3.org/2000/svg" xmlns:xlink="http://www.w3.org/1999/xlink" width="1000" height="400" style="" viewBox="0 0 1000 400"><rect x="0" y="0" width="1000" height="400" style="fill: rgb(34, 37, 41); fill-opacity: 1;"/><defs id="defs-eddcc3"><g class="clips"><clipPath id="clipeddcc3xyplot" class="plotclip"><rect width="625" height="220"/></clipPath><clipPath class="axesclip" id="clipeddcc3x"><rect x="80" y="0" width="625" height="400"/></clipPath><clipPath class="axesclip" id="clipeddcc3y"><rect x="0" y="100" width="1000" height="220"/></clipPath><clipPath class="axesclip" id="clipeddcc3xy"><rect x="80" y="100" width="625" height="220"/></clipPath></g><g class="gradients"/><g class="patterns"/></defs><g class="bglayer"/><g class="layer-below"><g class="imagelayer"/><g class="shapelayer"/></g><g class="cartesianlayer"><g class="subplot xy"><g class="layer-subplot"><g class="shapelayer"/><g class="imagelayer"/></g><g class="minor-gridlayer"><g class="x"/><g class="y"/></g><g class="gridlayer"><g class="x"><path class="xgrid crisp" transform="translate(134.35,0)" d="M0,100v220" style="stroke: rgb(40, 52, 66); stroke-opacity: 1; stroke-width: 1px;"/><path class="xgrid crisp" transform="translate(270.22,0)" d="M0,100v220" style="stroke: rgb(40, 52, 66); stroke-opacity: 1; stroke-width: 1px;"/><path class="xgrid crisp" transform="translate(406.09,0)" d="M0,100v220" style="stroke: rgb(40, 52, 66); stroke-opacity: 1; stroke-width: 1px;"/><path class="xgrid crisp" transform="translate(541.96,0)" d="M0,100v220" style="stroke: rgb(40, 52, 66); stroke-opacity: 1; stroke-width: 1px;"/><path class="xgrid crisp" transform="translate(677.83,0)" d="M0,100v220" style="stroke: rgb(40, 52, 66); stroke-opacity: 1; stroke-width: 1px;"/></g><g class="y"><path class="ygrid crisp" transform="translate(0,260.2)" d="M80,0h625" style="stroke: rgb(40, 52, 66); stroke-opacity: 1; stroke-width: 1px;"/><path class="ygrid crisp" transform="translate(0,200.39)" d="M80,0h625" style="stroke: rgb(40, 52, 66); stroke-opacity: 1; stroke-width: 1px;"/><path class="ygrid crisp" transform="translate(0,140.59)" d="M80,0h625" style="stroke: rgb(40, 52, 66); stroke-opacity: 1; stroke-width: 1px;"/></g></g><g class="zerolinelayer"><path class="yzl zl crisp" transform="translate(0,320)" d="M80,0h625" style="stroke: rgb(40, 52, 66); stroke-opacity: 1; stroke-width: 2px;"/></g><g class="layer-between"><g class="shapelayer"/><g class="imagelayer"/></g><path class="xlines-below"/><path class="ylines-below"/><g class="overlines-below"/><g class="xaxislayer-below"/><g class="yaxislayer-below"/><g class="overaxes-below"/><g class="overplot"><g class="xy" transform="translate(80,100)" clip-path="url(#clipeddcc3xyplot)"><g class="scatterlayer mlayer"><g class="trace scatter trace6da11c" style="stroke-miterlimit: 2;"><g class="fills"><g><path class="js-fill" d="M625,220L0,220L0,219.92L217.39,219.39L230.98,218.93L244.57,218.38L258.15,218.71L285.33,217.27L298.91,211.27L312.5,215.59L326.09,213.99L339.67,216.74L353.26,215.99L366.85,215.18L380.43,216.58L394.02,215.24L407.61,217.24L421.2,217.2L434.78,200.65L448.37,215.55L461.96,217.43L475.54,202.54L489.13,215.82L502.72,218.67L516.3,219.28L529.89,209.13L543.48,218.58L557.07,217.29L570.65,213.7L584.24,218.77L597.83,217.88L611.41,219.68L625,219.57" style="fill: rgb(99, 110, 250); fill-opacity: 0.5; stroke-width: 0;"/></g><g><path class="js-fill" d="M0,219.92L163.04,219.7L176.63,217.63L190.22,219.95L203.8,218.76L230.98,217.99L244.57,214.32L258.15,214.61L271.74,210.7L285.33,211.31L298.91,204.59L312.5,209.53L326.09,200.83L339.67,209.69L353.26,207.2L366.85,200.29L380.43,190.74L394.02,187.69L407.61,189.92L421.2,176.35L434.78,153.98L448.37,184.35L461.96,183.52L475.54,159.46L489.13,178.17L502.72,189.11L516.3,189.55L529.89,182.29L543.48,174.06L557.07,189.3L570.65,179.59L584.24,184.71L597.83,197.39L625,218.8L625,219.57L611.41,219.68L597.83,217.88L584.24,218.77L570.65,213.7L557.07,217.29L543.48,218.58L529.89,209.13L516.3,219.28L502.72,218.67L489.13,215.82L475.54,202.54L461.96,217.43L448.37,215.55L434.78,200.65L421.2,217.2L407.61,217.24L394.02,215.24L380.43,216.58L366.85,215.18L353.26,215.99L339.67,216.74L326.09,213.99L312.5,215.59L298.91,211.27L285.33,217.27L258.15,218.71L244.57,218.38L230.98,218.93L217.39,219.39L0,219.92Z" style="fill: rgb(239, 85, 59); fill-opacity: 0.5; stroke-width: 0;"/></g></g><g class="errorbars"/><g class="lines"><path class="js-line" d="M0,219.92L217.39,219.39L230.98,218.93L244.57,218.38L258.15,218.71L285.33,217.27L298.91,211.27L312.5,215.59L326.09,213.99L339.67,216.74L353.26,215.99L366.85,215.18L380.43,216.58L394.02,215.24L407.61,217.24L421.2,217.2L434.78,200.65L448.37,215.55L461.96,217.43L475.54,202.54L489.13,215.82L502.72,218.67L516.3,219.28L529.89,209.13L543.48,218.58L557.07,217.29L570.65,213.7L584.24,218.77L597.83,217.88L611.41,219.68L625,219.57" style="vector-effect: none; fill: none; stroke: rgb(99, 110, 250); stroke-opacity: 1; stroke-width: 2px; opacity: 1;"/></g><g class="points"/><g class="text"/></g><g class="trace scatter tracee77180" style="stroke-miterlimit: 2;"><g class="fills"><g><path class="js-fill" d="M0,219.92L122.28,219.42L135.87,219.03L149.46,220L163.04,219.47L176.63,217.09L190.22,219.95L203.8,218.48L217.39,218.02L230.98,217.44L244.57,213.86L258.15,213.88L271.74,210.32L285.33,210.72L298.91,201.19L312.5,207.34L326.09,191.43L339.67,205.14L353.26,202.26L366.85,194.06L380.43,181.22L394.02,168.98L407.61,183.59L421.2,161.8L434.78,137.99L448.37,170.86L461.96,170.7L475.54,133.66L489.13,165.49L502.72,183.53L516.3,182.79L529.89,175.66L543.48,166.35L557.07,183.22L570.65,175.53L584.24,178.88L597.83,194.83L611.41,205.97L625,218.64L625,218.8L597.83,197.39L584.24,184.71L570.65,179.59L557.07,189.3L543.48,174.06L529.89,182.29L516.3,189.55L502.72,189.11L489.13,178.17L475.54,159.46L461.96,183.52L448.37,184.35L434.78,153.98L421.2,176.35L407.61,189.92L394.02,187.69L380.43,190.74L366.85,200.29L353.26,207.2L339.67,209.69L326.09,200.83L312.5,209.53L298.91,204.59L285.33,211.31L271.74,210.7L258.15,214.61L244.57,214.32L230.98,217.99L203.8,218.76L190.22,219.95L176.63,217.63L163.04,219.7L0,219.92Z" style="fill: rgb(0, 204, 150); fill-opacity: 0.5; stroke-width: 0;"/></g></g><g class="errorbars"/><g class="lines"><path class="js-line" d="M0,219.92L163.04,219.7L176.63,217.63L190.22,219.95L203.8,218.76L230.98,217.99L244.57,214.32L258.15,214.61L271.74,210.7L285.33,211.31L298.91,204.59L312.5,209.53L326.09,200.83L339.67,209.69L353.26,207.2L366.85,200.29L380.43,190.74L394.02,187.69L407.61,189.92L421.2,176.35L434.78,153.98L448.37,184.35L461.96,183.52L475.54,159.46L489.13,178.17L502.72,189.11L516.3,189.55L529.89,182.29L543.48,174.06L557.07,189.3L570.65,179.59L584.24,184.71L597.83,197.39L625,218.8" style="vector-effect: none; fill: none; stroke: rgb(239, 85, 59); stroke-opacity: 1; stroke-width: 2px; opacity: 1;"/></g><g class="points"/><g class="text"/></g><g class="trace scatter trace33f02f" style="stroke-miterlimit: 2;"><g class="fills"><g><path class="js-fill" d="M0,219.92L122.28,219.42L135.87,219.03L149.46,219.72L163.04,219.31L176.63,217.09L190.22,219.85L203.8,217.75L217.39,217.7L230.98,216.58L244.57,213.56L258.15,213.65L271.74,210.22L285.33,210.35L298.91,200.06L312.5,204.94L326.09,187.31L339.67,202.93L353.26,198.27L366.85,184.38L380.43,168.47L394.02,158.19L407.61,173.79L421.2,139.83L434.78,113.11L448.37,158L461.96,157.68L475.54,113.22L489.13,152.01L502.72,170.19L516.3,170.88L529.89,166.13L543.48,153.5L557.07,173.41L570.65,162.95L584.24,167.17L597.83,186.28L625,218.34L625,218.64L611.41,205.97L597.83,194.83L584.24,178.88L570.65,175.53L557.07,183.22L543.48,166.35L529.89,175.66L516.3,182.79L502.72,183.53L489.13,165.49L475.54,133.66L461.96,170.7L448.37,170.86L434.78,137.99L421.2,161.8L407.61,183.59L394.02,168.98L380.43,181.22L366.85,194.06L353.26,202.26L339.67,205.14L326.09,191.43L312.5,207.34L298.91,201.19L285.33,210.72L271.74,210.32L258.15,213.88L244.57,213.86L230.98,217.44L217.39,218.02L203.8,218.48L190.22,219.95L176.63,217.09L163.04,219.47L149.46,220L135.87,219.03L122.28,219.42L0,219.92Z" style="fill: rgb(171, 99, 250); fill-opacity: 0.5; stroke-width: 0;"/></g></g><g class="errorbars"/><g class="lines"><path class="js-line" d="M0,219.92L122.28,219.42L135.87,219.03L149.46,220L163.04,219.47L176.63,217.09L190.22,219.95L203.8,218.48L217.39,218.02L230.98,217.44L244.57,213.86L258.15,213.88L271.74,210.32L285.33,210.72L298.91,201.19L312.5,207.34L326.09,191.43L339.67,205.14L353.26,202.26L366.85,194.06L380.43,181.22L394.02,168.98L407.61,183.59L421.2,161.8L434.78,137.99L448.37,170.86L461.96,170.7L475.54,133.66L489.13,165.49L502.72,183.53L516.3,182.79L529.89,175.66L543.48,166.35L557.07,183.22L570.65,175.53L584.24,178.88L597.83,194.83L611.41,205.97L625,218.64" style="vector-effect: none; fill: none; stroke: rgb(0, 204, 150); stroke-opacity: 1; stroke-width: 2px; opacity: 1;"/></g><g class="points"/><g class="text"/></g><g class="trace scatter traceef6bb4" style="stroke-miterlimit: 2;"><g class="fills"><g><path class="js-fill" d="M0,219.92L122.28,219.42L135.87,219.03L163.04,219.31L176.63,216.61L190.22,219.85L203.8,217.46L217.39,217.58L230.98,216.53L244.57,212.5L258.15,213.34L271.74,210.17L285.33,210.35L298.91,199.83L312.5,203.5L326.09,185.55L339.67,201.88L353.26,196.52L366.85,180.5L380.43,163.85L394.02,149.47L407.61,170.52L421.2,136.64L434.78,110.08L448.37,152.2L461.96,152.76L475.54,98.1L489.13,146.24L502.72,162.37L516.3,164.06L529.89,159.04L543.48,148.95L557.07,168.38L570.65,159.4L584.24,163.29L597.83,182.99L611.41,200.69L625,218.13L625,218.34L597.83,186.28L584.24,167.17L570.65,162.95L557.07,173.41L543.48,153.5L529.89,166.13L516.3,170.88L502.72,170.19L489.13,152.01L475.54,113.22L461.96,157.68L448.37,158L434.78,113.11L421.2,139.83L407.61,173.79L394.02,158.19L380.43,168.47L366.85,184.38L353.26,198.27L339.67,202.93L326.09,187.31L312.5,204.94L298.91,200.06L285.33,210.35L271.74,210.22L258.15,213.65L244.57,213.56L230.98,216.58L217.39,217.7L203.8,217.75L190.22,219.85L176.63,217.09L163.04,219.31L149.46,219.72L135.87,219.03L122.28,219.42L0,219.92Z" style="fill: rgb(255, 161, 90); fill-opacity: 0.5; stroke-width: 0;"/></g></g><g class="errorbars"/><g class="lines"><path class="js-line" d="M0,219.92L122.28,219.42L135.87,219.03L149.46,219.72L163.04,219.31L176.63,217.09L190.22,219.85L203.8,217.75L217.39,217.7L230.98,216.58L244.57,213.56L258.15,213.65L271.74,210.22L285.33,210.35L298.91,200.06L312.5,204.94L326.09,187.31L339.67,202.93L353.26,198.27L366.85,184.38L380.43,168.47L394.02,158.19L407.61,173.79L421.2,139.83L434.78,113.11L448.37,158L461.96,157.68L475.54,113.22L489.13,152.01L502.72,170.19L516.3,170.88L529.89,166.13L543.48,153.5L557.07,173.41L570.65,162.95L584.24,167.17L597.83,186.28L625,218.34" style="vector-effect: none; fill: none; stroke: rgb(171, 99, 250); stroke-opacity: 1; stroke-width: 2px; opacity: 1;"/></g><g class="points"/><g class="text"/></g><g class="trace scatter trace88887a" style="stroke-miterlimit: 2;"><g class="fills"><g><path class="js-fill" d="M0,219.92L122.28,219.42L135.87,219.03L163.04,219.09L176.63,216.61L190.22,218.26L203.8,217.46L217.39,217.58L230.98,216.5L244.57,212.5L258.15,211.86L271.74,210.17L285.33,210.08L298.91,199.83L312.5,203.4L326.09,185.51L339.67,200.61L353.26,194.9L366.85,179.02L394.02,146.08L407.61,166.89L421.2,131.95L434.78,103.43L448.37,143.54L461.96,140.39L475.54,79.36L489.13,130.04L502.72,154.03L516.3,151.74L529.89,147.22L543.48,138.2L557.07,156.05L570.65,146.12L584.24,152.57L597.83,162.49L611.41,194.85L625,217.65L625,218.13L611.41,200.69L597.83,182.99L584.24,163.29L570.65,159.4L557.07,168.38L543.48,148.95L529.89,159.04L516.3,164.06L502.72,162.37L489.13,146.24L475.54,98.1L461.96,152.76L448.37,152.2L434.78,110.08L421.2,136.64L407.61,170.52L394.02,149.47L380.43,163.85L366.85,180.5L353.26,196.52L339.67,201.88L326.09,185.55L312.5,203.5L298.91,199.83L285.33,210.35L271.74,210.17L258.15,213.34L244.57,212.5L230.98,216.53L217.39,217.58L203.8,217.46L190.22,219.85L176.63,216.61L163.04,219.31L135.87,219.03L122.28,219.42L0,219.92Z" style="fill: rgb(25, 211, 243); fill-opacity: 0.5; stroke-width: 0;"/></g></g><g class="errorbars"/><g class="lines"><path class="js-line" d="M0,219.92L122.28,219.42L135.87,219.03L163.04,219.31L176.63,216.61L190.22,219.85L203.8,217.46L217.39,217.58L230.98,216.53L244.57,212.5L258.15,213.34L271.74,210.17L285.33,210.35L298.91,199.83L312.5,203.5L326.09,185.55L339.67,201.88L353.26,196.52L366.85,180.5L380.43,163.85L394.02,149.47L407.61,170.52L421.2,136.64L434.78,110.08L448.37,152.2L461.96,152.76L475.54,98.1L489.13,146.24L502.72,162.37L516.3,164.06L529.89,159.04L543.48,148.95L557.07,168.38L570.65,159.4L584.24,163.29L597.83,182.99L611.41,200.69L625,218.13" style="vector-effect: none; fill: none; stroke: rgb(255, 161, 90); stroke-opacity: 1; stroke-width: 2px; opacity: 1;"/></g><g class="points"/><g class="text"/></g><g class="trace scatter trace24b91b" style="stroke-miterlimit: 2;"><g class="fills"><g><path class="js-fill" d="M0,219.92L122.28,219.42L135.87,219.03L163.04,219.06L176.63,216.61L190.22,218.26L203.8,217.37L217.39,217.54L230.98,215.8L244.57,212.21L258.15,211.85L285.33,207.65L298.91,197.47L312.5,202.58L326.09,178.62L339.67,197.71L353.26,190.52L366.85,167.43L380.43,156.86L394.02,135.05L407.61,158.26L421.2,107.3L434.78,84.33L448.37,131.24L461.96,128.16L475.54,59.14L489.13,113.93L502.72,147.42L516.3,144.26L529.89,139.52L543.48,130.3L557.07,141.89L570.65,139.84L584.24,143.28L597.83,157.76L611.41,191.74L625,217.48L625,217.65L611.41,194.85L597.83,162.49L584.24,152.57L570.65,146.12L557.07,156.05L543.48,138.2L529.89,147.22L516.3,151.74L502.72,154.03L489.13,130.04L475.54,79.36L461.96,140.39L448.37,143.54L434.78,103.43L421.2,131.95L407.61,166.89L394.02,146.08L366.85,179.02L353.26,194.9L339.67,200.61L326.09,185.51L312.5,203.4L298.91,199.83L285.33,210.08L271.74,210.17L258.15,211.86L244.57,212.5L230.98,216.5L217.39,217.58L203.8,217.46L190.22,218.26L176.63,216.61L163.04,219.09L135.87,219.03L122.28,219.42L0,219.92Z" style="fill: rgb(255, 102, 146); fill-opacity: 0.5; stroke-width: 0;"/></g></g><g class="errorbars"/><g class="lines"><path class="js-line" d="M0,219.92L122.28,219.42L135.87,219.03L163.04,219.09L176.63,216.61L190.22,218.26L203.8,217.46L217.39,217.58L230.98,216.5L244.57,212.5L258.15,211.86L271.74,210.17L285.33,210.08L298.91,199.83L312.5,203.4L326.09,185.51L339.67,200.61L353.26,194.9L366.85,179.02L394.02,146.08L407.61,166.89L421.2,131.95L434.78,103.43L448.37,143.54L461.96,140.39L475.54,79.36L489.13,130.04L502.72,154.03L516.3,151.74L529.89,147.22L543.48,138.2L557.07,156.05L570.65,146.12L584.24,152.57L597.83,162.49L611.41,194.85L625,217.65" style="vector-effect: none; fill: none; stroke: rgb(25, 211, 243); stroke-opacity: 1; stroke-width: 2px; opacity: 1;"/></g><g class="points"/><g class="text"/></g><g class="trace scatter trace1e604d" style="stroke-miterlimit: 2;"><g class="fills"><g><path class="js-fill" d="M0,219.92L122.28,219.42L135.87,219.03L163.04,219.06L176.63,214.66L190.22,218.26L203.8,216.46L217.39,217.28L230.98,215.57L244.57,209.89L258.15,210.35L271.74,206.5L285.33,204.63L298.91,195.4L312.5,199.81L326.09,173.33L339.67,193.44L353.26,185.51L366.85,161.5L380.43,151.25L394.02,123.16L407.61,150.94L421.2,99.02L434.78,65.43L448.37,122.25L461.96,120.33L475.54,40.76L489.13,106.67L502.72,143.63L516.3,138.37L529.89,134.06L543.48,122.23L557.07,133.89L570.65,131.84L584.24,135.86L597.83,152.86L611.41,188.57L625,217.34L625,217.48L611.41,191.74L597.83,157.76L584.24,143.28L570.65,139.84L557.07,141.89L543.48,130.3L529.89,139.52L516.3,144.26L502.72,147.42L489.13,113.93L475.54,59.14L461.96,128.16L448.37,131.24L434.78,84.33L421.2,107.3L407.61,158.26L394.02,135.05L380.43,156.86L366.85,167.43L353.26,190.52L339.67,197.71L326.09,178.62L312.5,202.58L298.91,197.47L285.33,207.65L258.15,211.85L244.57,212.21L230.98,215.8L217.39,217.54L203.8,217.37L190.22,218.26L176.63,216.61L163.04,219.06L135.87,219.03L122.28,219.42L0,219.92Z" style="fill: rgb(182, 232, 128); fill-opacity: 0.5; stroke-width: 0;"/></g></g><g class="errorbars"/><g class="lines"><path class="js-line" d="M0,219.92L122.28,219.42L135.87,219.03L163.04,219.06L176.63,216.61L190.22,218.26L203.8,217.37L217.39,217.54L230.98,215.8L244.57,212.21L258.15,211.85L285.33,207.65L298.91,197.47L312.5,202.58L326.09,178.62L339.67,197.71L353.26,190.52L366.85,167.43L380.43,156.86L394.02,135.05L407.61,158.26L421.2,107.3L434.78,84.33L448.37,131.24L461.96,128.16L475.54,59.14L489.13,113.93L502.72,147.42L516.3,144.26L529.89,139.52L543.48,130.3L557.07,141.89L570.65,139.84L584.24,143.28L597.83,157.76L611.41,191.74L625,217.48" style="vector-effect: none; fill: none; stroke: rgb(255, 102, 146); stroke-opacity: 1; stroke-width: 2px; opacity: 1;"/></g><g class="points"/><g class="text"/></g><g class="trace scatter trace0c1022" style="stroke-miterlimit: 2;"><g class="fills"><g><path class="js-fill" d="M0,219.92L122.28,219.42L135.87,219.03L163.04,219.06L176.63,214.66L190.22,218.26L203.8,216.46L217.39,216.96L230.98,215.49L244.57,209.89L258.15,210.35L271.74,206.5L285.33,204.41L298.91,195.38L312.5,199.35L326.09,173.07L339.67,193.26L353.26,185.25L366.85,160.03L380.43,149.68L394.02,120.99L407.61,148.49L421.2,95.02L434.78,56.29L448.37,113.32L461.96,108.01L475.54,25.32L489.13,90.63L502.72,136.82L516.3,127.14L529.89,125.09L543.48,112.62L557.07,121.43L570.65,120.98L584.24,127.55L597.83,144.52L611.41,183.23L625,216.83L625,217.34L611.41,188.57L597.83,152.86L584.24,135.86L570.65,131.84L557.07,133.89L543.48,122.23L529.89,134.06L516.3,138.37L502.72,143.63L489.13,106.67L475.54,40.76L461.96,120.33L448.37,122.25L434.78,65.43L421.2,99.02L407.61,150.94L394.02,123.16L380.43,151.25L366.85,161.5L353.26,185.51L339.67,193.44L326.09,173.33L312.5,199.81L298.91,195.4L285.33,204.63L271.74,206.5L258.15,210.35L244.57,209.89L230.98,215.57L217.39,217.28L203.8,216.46L190.22,218.26L176.63,214.66L163.04,219.06L135.87,219.03L122.28,219.42L0,219.92Z" style="fill: rgb(255, 151, 255); fill-opacity: 0.5; stroke-width: 0;"/></g></g><g class="errorbars"/><g class="lines"><path class="js-line" d="M0,219.92L122.28,219.42L135.87,219.03L163.04,219.06L176.63,214.66L190.22,218.26L203.8,216.46L217.39,217.28L230.98,215.57L244.57,209.89L258.15,210.35L271.74,206.5L285.33,204.63L298.91,195.4L312.5,199.81L326.09,173.33L339.67,193.44L353.26,185.51L366.85,161.5L380.43,151.25L394.02,123.16L407.61,150.94L421.2,99.02L434.78,65.43L448.37,122.25L461.96,120.33L475.54,40.76L489.13,106.67L502.72,143.63L516.3,138.37L529.89,134.06L543.48,122.23L557.07,133.89L570.65,131.84L584.24,135.86L597.83,152.86L611.41,188.57L625,217.34" style="vector-effect: none; fill: none; stroke: rgb(182, 232, 128); stroke-opacity: 1; stroke-width: 2px; opacity: 1;"/></g><g class="points"/><g class="text"/></g><g class="trace scatter trace2c05d4" style="stroke-miterlimit: 2;"><g class="fills"><g><path class="js-fill" d="M0,219.92L122.28,219.42L135.87,219.03L163.04,219.06L176.63,214.66L190.22,218.26L203.8,216.46L217.39,216.96L230.98,214.72L244.57,209.28L258.15,209.44L271.74,205.05L285.33,203L298.91,193.5L312.5,197.57L326.09,166.93L339.67,190.68L353.26,182.33L366.85,154.79L380.43,145.07L394.02,111.55L407.61,142.8L421.2,86.44L434.78,33.39L448.37,105.79L461.96,99.28L475.54,11L489.13,82.52L502.72,131.68L529.89,110.12L543.48,104.72L557.07,116.59L570.65,115.9L584.24,121.47L597.83,139.96L611.41,181.53L625,216.56L625,216.83L611.41,183.23L597.83,144.52L584.24,127.55L570.65,120.98L557.07,121.43L543.48,112.62L529.89,125.09L516.3,127.14L502.72,136.82L489.13,90.63L475.54,25.32L461.96,108.01L448.37,113.32L434.78,56.29L421.2,95.02L407.61,148.49L394.02,120.99L380.43,149.68L366.85,160.03L353.26,185.25L339.67,193.26L326.09,173.07L312.5,199.35L298.91,195.38L285.33,204.41L271.74,206.5L258.15,210.35L244.57,209.89L230.98,215.49L217.39,216.96L203.8,216.46L190.22,218.26L176.63,214.66L163.04,219.06L135.87,219.03L122.28,219.42L0,219.92Z" style="fill: rgb(254, 203, 82); fill-opacity: 0.5; stroke-width: 0;"/></g></g><g class="errorbars"/><g class="lines"><path class="js-line" d="M0,219.92L122.28,219.42L135.87,219.03L163.04,219.06L176.63,214.66L190.22,218.26L203.8,216.46L217.39,216.96L230.98,215.49L244.57,209.89L258.15,210.35L271.74,206.5L285.33,204.41L298.91,195.38L312.5,199.35L326.09,173.07L339.67,193.26L353.26,185.25L366.85,160.03L380.43,149.68L394.02,120.99L407.61,148.49L421.2,95.02L434.78,56.29L448.37,113.32L461.96,108.01L475.54,25.32L489.13,90.63L502.72,136.82L516.3,127.14L529.89,125.09L543.48,112.62L557.07,121.43L570.65,120.98L584.24,127.55L597.83,144.52L611.41,183.23L625,216.83" style="vector-effect: none; fill: none; stroke: rgb(255, 151, 255); stroke-opacity: 1; stroke-width: 2px; opacity: 1;"/></g><g class="points"/><g class="text"/></g><g class="trace scatter trace943ec0" style="stroke-miterlimit: 2;"><g class="fills"/><g class="errorbars"/><g class="lines"><path class="js-line" d="M0,219.92L122.28,219.42L135.87,219.03L163.04,219.06L176.63,214.66L190.22,218.26L203.8,216.46L217.39,216.96L230.98,214.72L244.57,209.28L258.15,209.44L271.74,205.05L285.33,203L298.91,193.5L312.5,197.57L326.09,166.93L339.67,190.68L353.26,182.33L366.85,154.79L380.43,145.07L394.02,111.55L407.61,142.8L421.2,86.44L434.78,33.39L448.37,105.79L461.96,99.28L475.54,11L489.13,82.52L502.72,131.68L529.89,110.12L543.48,104.72L557.07,116.59L570.65,115.9L584.24,121.47L597.83,139.96L611.41,181.53L625,216.56" style="vector-effect: none; fill: none; stroke: rgb(254, 203, 82); stroke-opacity: 1; stroke-width: 2px; opacity: 1;"/></g><g class="points"/><g class="text"/></g></g></g></g><path class="xlines-above crisp" d="M0,0" style="fill: none;"/><path class="ylines-above crisp" d="M0,0" style="fill: none;"/><g class="overlines-above"/><g class="xaxislayer-above"><g class="xtick"><text text-anchor="middle" x="0" y="333" transform="translate(134.35,0)" style="font-family: 'Open Sans', verdana, arial, sans-serif; font-size: 12px; fill: rgb(242, 245, 250); fill-opacity: 1; white-space: pre; opacity: 1;">1980</text></g><g class="xtick"><text text-anchor="middle" x="0" y="333" style="font-family: 'Open Sans', verdana, arial, sans-serif; font-size: 12px; fill: rgb(242, 245, 250); fill-opacity: 1; white-space: pre; opacity: 1;" transform="translate(270.22,0)">1990</text></g><g class="xtick"><text text-anchor="middle" x="0" y="333" style="font-family: 'Open Sans', verdana, arial, sans-serif; font-size: 12px; fill: rgb(242, 245, 250); fill-opacity: 1; white-space: pre; opacity: 1;" transform="translate(406.09,0)">2000</text></g><g class="xtick"><text text-anchor="middle" x="0" y="333" style="font-family: 'Open Sans', verdana, arial, sans-serif; font-size: 12px; fill: rgb(242, 245, 250); fill-opacity: 1; white-space: pre; opacity: 1;" transform="translate(541.96,0)">2010</text></g><g class="xtick"><text text-anchor="middle" x="0" y="333" style="font-family: 'Open Sans', verdana, arial, sans-serif; font-size: 12px; fill: rgb(242, 245, 250); fill-opacity: 1; white-space: pre; opacity: 1;" transform="translate(677.83,0)">2020</text></g></g><g class="yaxislayer-above"><g class="ytick"><text text-anchor="end" x="79" y="4.199999999999999" transform="translate(0,320)" style="font-family: 'Open Sans', verdana, arial, sans-serif; font-size: 12px; fill: rgb(242, 245, 250); fill-opacity: 1; white-space: pre; opacity: 1;">0</text></g><g class="ytick"><text text-anchor="end" x="79" y="4.199999999999999" style="font-family: 'Open Sans', verdana, arial, sans-serif; font-size: 12px; fill: rgb(242, 245, 250); fill-opacity: 1; white-space: pre; opacity: 1;" transform="translate(0,260.2)">20k</text></g><g class="ytick"><text text-anchor="end" x="79" y="4.199999999999999" style="font-family: 'Open Sans', verdana, arial, sans-serif; font-size: 12px; fill: rgb(242, 245, 250); fill-opacity: 1; white-space: pre; opacity: 1;" transform="translate(0,200.39)">40k</text></g><g class="ytick"><text text-anchor="end" x="79" y="4.199999999999999" style="font-family: 'Open Sans', verdana, arial, sans-serif; font-size: 12px; fill: rgb(242, 245, 250); fill-opacity: 1; white-space: pre; opacity: 1;" transform="translate(0,140.59)">60k</text></g></g><g class="overaxes-above"/></g></g><g class="polarlayer"/><g class="smithlayer"/><g class="ternarylayer"/><g class="geolayer"/><g class="funnelarealayer"/><g class="pielayer"/><g class="iciclelayer"/><g class="treemaplayer"/><g class="sunburstlayer"/><g class="glimages"/><defs id="topdefs-eddcc3"><g class="clips"/><clipPath id="legendeddcc3"><rect width="271" height="219" x="0" y="0"/></clipPath></defs><g class="layer-above"><g class="imagelayer"/><g class="shapelayer"/></g><g class="infolayer"><g class="legend" pointer-events="all" transform="translate(717.5,100)"><rect class="bg" shape-rendering="crispEdges" style="stroke: rgb(68, 68, 68); stroke-opacity: 1; fill: rgb(34, 37, 41); fill-opacity: 1; stroke-width: 0px;" width="271" height="219" x="0" y="0"/><g class="scrollbox" transform="" clip-path="url(#legendeddcc3)"><text class="legendtitletext" text-anchor="start" x="2" y="18.2" style="font-family: 'Open Sans', verdana, arial, sans-serif; font-size: 14px; fill: rgb(242, 245, 250); fill-opacity: 1; white-space: pre;">Disease Classes</text><g class="groups" transform=""><g class="traces" transform="translate(0,32.7)" style="opacity: 1;"><text class="legendtext" text-anchor="start" x="40" y="4.680000000000001" style="font-family: 'Open Sans', verdana, arial, sans-serif; font-size: 12px; fill: rgb(242, 245, 250); fill-opacity: 1; white-space: pre;">Ischemic stroke</text><g class="layers"><g class="legendfill"><path class="js-fill" d="M5,-2h30v6h-30z" style="stroke-width: 0; fill: rgb(99, 110, 250); fill-opacity: 0.5;"/></g><g class="legendlines"><path class="js-line" d="M5,-2h30" style="fill: none; stroke: rgb(99, 110, 250); stroke-opacity: 1; stroke-width: 2px;"/></g><g class="legendsymbols"><g class="legendpoints"/></g></g><rect class="legendtoggle" x="0" y="-9.5" width="265.34375" height="19" style="fill: rgb(0, 0, 0); fill-opacity: 0;"/></g></g><g class="groups" transform=""><g class="traces" transform="translate(0,51.7)" style="opacity: 1;"><text class="legendtext" text-anchor="start" x="40" y="4.680000000000001" style="font-family: 'Open Sans', verdana, arial, sans-serif; font-size: 12px; fill: rgb(242, 245, 250); fill-opacity: 1; white-space: pre;">Cancer</text><g class="layers"><g class="legendfill"><path class="js-fill" d="M5,-2h30v6h-30z" style="stroke-width: 0; fill: rgb(239, 85, 59); fill-opacity: 0.5;"/></g><g class="legendlines"><path class="js-line" d="M5,-2h30" style="fill: none; stroke: rgb(239, 85, 59); stroke-opacity: 1; stroke-width: 2px;"/></g><g class="legendsymbols"><g class="legendpoints"/></g></g><rect class="legendtoggle" x="0" y="-9.5" width="265.34375" height="19" style="fill: rgb(0, 0, 0); fill-opacity: 0;"/></g></g><g class="groups" transform=""><g class="traces" transform="translate(0,70.7)" style="opacity: 1;"><text class="legendtext" text-anchor="start" x="40" y="4.680000000000001" style="font-family: 'Open Sans', verdana, arial, sans-serif; font-size: 12px; fill: rgb(242, 245, 250); fill-opacity: 1; white-space: pre;">Diabetes</text><g class="layers"><g class="legendfill"><path class="js-fill" d="M5,-2h30v6h-30z" style="stroke-width: 0; fill: rgb(0, 204, 150); fill-opacity: 0.5;"/></g><g class="legendlines"><path class="js-line" d="M5,-2h30" style="fill: none; stroke: rgb(0, 204, 150); stroke-opacity: 1; stroke-width: 2px;"/></g><g class="legendsymbols"><g class="legendpoints"/></g></g><rect class="legendtoggle" x="0" y="-9.5" width="265.34375" height="19" style="fill: rgb(0, 0, 0); fill-opacity: 0;"/></g></g><g class="groups" transform=""><g class="traces" transform="translate(0,89.7)" style="opacity: 1;"><text class="legendtext" text-anchor="start" x="40" y="4.680000000000001" style="font-family: 'Open Sans', verdana, arial, sans-serif; font-size: 12px; fill: rgb(242, 245, 250); fill-opacity: 1; white-space: pre;">Immunodeficiency</text><g class="layers"><g class="legendfill"><path class="js-fill" d="M5,-2h30v6h-30z" style="stroke-width: 0; fill: rgb(171, 99, 250); fill-opacity: 0.5;"/></g><g class="legendlines"><path class="js-line" d="M5,-2h30" style="fill: none; stroke: rgb(171, 99, 250); stroke-opacity: 1; stroke-width: 2px;"/></g><g class="legendsymbols"><g class="legendpoints"/></g></g><rect class="legendtoggle" x="0" y="-9.5" width="265.34375" height="19" style="fill: rgb(0, 0, 0); fill-opacity: 0;"/></g></g><g class="groups" transform=""><g class="traces" transform="translate(0,108.7)" style="opacity: 1;"><text class="legendtext" text-anchor="start" x="40" y="4.680000000000001" style="font-family: 'Open Sans', verdana, arial, sans-serif; font-size: 12px; fill: rgb(242, 245, 250); fill-opacity: 1; white-space: pre;">Osteopetrosis</text><g class="layers"><g class="legendfill"><path class="js-fill" d="M5,-2h30v6h-30z" style="stroke-width: 0; fill: rgb(255, 161, 90); fill-opacity: 0.5;"/></g><g class="legendlines"><path class="js-line" d="M5,-2h30" style="fill: none; stroke: rgb(255, 161, 90); stroke-opacity: 1; stroke-width: 2px;"/></g><g class="legendsymbols"><g class="legendpoints"/></g></g><rect class="legendtoggle" x="0" y="-9.5" width="265.34375" height="19" style="fill: rgb(0, 0, 0); fill-opacity: 0;"/></g></g><g class="groups" transform=""><g class="traces" transform="translate(0,127.7)" style="opacity: 1;"><text class="legendtext" text-anchor="start" x="40" y="4.680000000000001" style="font-family: 'Open Sans', verdana, arial, sans-serif; font-size: 12px; fill: rgb(242, 245, 250); fill-opacity: 1; white-space: pre;">QT syndrome</text><g class="layers"><g class="legendfill"><path class="js-fill" d="M5,-2h30v6h-30z" style="stroke-width: 0; fill: rgb(25, 211, 243); fill-opacity: 0.5;"/></g><g class="legendlines"><path class="js-line" d="M5,-2h30" style="fill: none; stroke: rgb(25, 211, 243); stroke-opacity: 1; stroke-width: 2px;"/></g><g class="legendsymbols"><g class="legendpoints"/></g></g><rect class="legendtoggle" x="0" y="-9.5" width="265.34375" height="19" style="fill: rgb(0, 0, 0); fill-opacity: 0;"/></g></g><g class="groups" transform=""><g class="traces" transform="translate(0,146.7)" style="opacity: 1;"><text class="legendtext" text-anchor="start" x="40" y="4.680000000000001" style="font-family: 'Open Sans', verdana, arial, sans-serif; font-size: 12px; fill: rgb(242, 245, 250); fill-opacity: 1; white-space: pre;">Neurodegeneration</text><g class="layers"><g class="legendfill"><path class="js-fill" d="M5,-2h30v6h-30z" style="stroke-width: 0; fill: rgb(255, 102, 146); fill-opacity: 0.5;"/></g><g class="legendlines"><path class="js-line" d="M5,-2h30" style="fill: none; stroke: rgb(255, 102, 146); stroke-opacity: 1; stroke-width: 2px;"/></g><g class="legendsymbols"><g class="legendpoints"/></g></g><rect class="legendtoggle" x="0" y="-9.5" width="265.34375" height="19" style="fill: rgb(0, 0, 0); fill-opacity: 0;"/></g></g><g class="groups" transform=""><g class="traces" transform="translate(0,165.7)" style="opacity: 1;"><text class="legendtext" text-anchor="start" x="40" y="4.680000000000001" style="font-family: 'Open Sans', verdana, arial, sans-serif; font-size: 12px; fill: rgb(242, 245, 250); fill-opacity: 1; white-space: pre;">Inflammatory skin and bowel disease</text><g class="layers"><g class="legendfill"><path class="js-fill" d="M5,-2h30v6h-30z" style="stroke-width: 0; fill: rgb(182, 232, 128); fill-opacity: 0.5;"/></g><g class="legendlines"><path class="js-line" d="M5,-2h30" style="fill: none; stroke: rgb(182, 232, 128); stroke-opacity: 1; stroke-width: 2px;"/></g><g class="legendsymbols"><g class="legendpoints"/></g></g><rect class="legendtoggle" x="0" y="-9.5" width="265.34375" height="19" style="fill: rgb(0, 0, 0); fill-opacity: 0;"/></g></g><g class="groups" transform=""><g class="traces" transform="translate(0,184.7)" style="opacity: 1;"><text class="legendtext" text-anchor="start" x="40" y="4.680000000000001" style="font-family: 'Open Sans', verdana, arial, sans-serif; font-size: 12px; fill: rgb(242, 245, 250); fill-opacity: 1; white-space: pre;">Vitamin D-dependent rickets 3</text><g class="layers"><g class="legendfill"><path class="js-fill" d="M5,-2h30v6h-30z" style="stroke-width: 0; fill: rgb(255, 151, 255); fill-opacity: 0.5;"/></g><g class="legendlines"><path class="js-line" d="M5,-2h30" style="fill: none; stroke: rgb(255, 151, 255); stroke-opacity: 1; stroke-width: 2px;"/></g><g class="legendsymbols"><g class="legendpoints"/></g></g><rect class="legendtoggle" x="0" y="-9.5" width="265.34375" height="19" style="fill: rgb(0, 0, 0); fill-opacity: 0;"/></g></g><g class="groups" transform=""><g class="traces" transform="translate(0,203.7)" style="opacity: 1;"><text class="legendtext" text-anchor="start" x="40" y="4.680000000000001" style="font-family: 'Open Sans', verdana, arial, sans-serif; font-size: 12px; fill: rgb(242, 245, 250); fill-opacity: 1; white-space: pre;">Obesity</text><g class="layers"><g class="legendfill"><path class="js-fill" d="M5,-2h30v6h-30z" style="stroke-width: 0; fill: rgb(254, 203, 82); fill-opacity: 0.5;"/></g><g class="legendlines"><path class="js-line" d="M5,-2h30" style="fill: none; stroke: rgb(254, 203, 82); stroke-opacity: 1; stroke-width: 2px;"/></g><g class="legendsymbols"><g class="legendpoints"/></g></g><rect class="legendtoggle" x="0" y="-9.5" width="265.34375" height="19" style="fill: rgb(0, 0, 0); fill-opacity: 0;"/></g></g></g><rect class="scrollbar" rx="20" ry="3" width="0" height="0" style="fill: rgb(128, 139, 164); fill-opacity: 1;" x="0" y="0"/></g><g class="g-gtitle"><text class="gtitle" x="500" y="50" text-anchor="middle" dy="0em" style="opacity: 1; font-family: 'Open Sans', verdana, arial, sans-serif; font-size: 17px; fill: rgb(242, 245, 250); fill-opacity: 1; white-space: pre;">Citations Over Time by Disease Class</text></g><g class="g-xtitle"><text class="xtitle" x="392.5" y="359.8" text-anchor="middle" style="opacity: 1; font-family: 'Open Sans', verdana, arial, sans-serif; font-size: 14px; fill: rgb(242, 245, 250); fill-opacity: 1; white-space: pre;">Publication Year</text></g><g class="g-ytitle"><text class="ytitle" transform="rotate(-90,37.240625,210)" x="37.240625" y="210" text-anchor="middle" style="opacity: 1; font-family: 'Open Sans', verdana, arial, sans-serif; font-size: 14px; fill: rgb(242, 245, 250); fill-opacity: 1; white-space: pre;">Citation Count</text></g></g></svg>