<svg class="main-svg" xmlns="http://www.w3.org/2000/svg" xmlns:xlink="http://www.w3.org/1999/xlink" width="700" height="500" style="" viewBox="0 0 700 500"><rect x="0" y="0" width="700" height="500" style="fill: rgb(34, 37, 41); fill-opacity: 1;"/><defs id="defs-05c12b"><g class="clips"><clipPath id="clip05c12bxyplot" class="plotclip"><rect width="330" height="320"/></clipPath><clipPath class="axesclip" id="clip05c12bx"><rect x="80" y="0" width="330" height="500"/></clipPath><clipPath class="axesclip" id="clip05c12by"><rect x="0" y="100" width="700" height="320"/></clipPath><clipPath class="axesclip" id="clip05c12bxy"><rect x="80" y="100" width="330" height="320"/></clipPath></g><g class="gradients"/><g class="patterns"/></defs><g class="bglayer"/><g class="layer-below"><g class="imagelayer"/><g class="shapelayer"/></g><g class="cartesianlayer"><g class="subplot xy"><g class="layer-subplot"><g class="shapelayer"/><g class="imagelayer"/></g><g class="minor-gridlayer"><g class="x"/><g class="y"/></g><g class="gridlayer"><g class="x"><path class="xgrid crisp" transform="translate(108.7,0)" d="M0,100v320" style="stroke: rgb(40, 52, 66); stroke-opacity: 1; stroke-width: 1px;"/><path class="xgrid crisp" transform="translate(180.43,0)" d="M0,100v320" style="stroke: rgb(40, 52, 66); stroke-opacity: 1; stroke-width: 1px;"/><path class="xgrid crisp" transform="translate(252.17,0)" d="M0,100v320" style="stroke: rgb(40, 52, 66); stroke-opacity: 1; stroke-width: 1px;"/><path class="xgrid crisp" transform="translate(323.90999999999997,0)" d="M0,100v320" style="stroke: rgb(40, 52, 66); stroke-opacity: 1; stroke-width: 1px;"/><path class="xgrid crisp" transform="translate(395.65,0)" d="M0,100v320" style="stroke: rgb(40, 52, 66); stroke-opacity: 1; stroke-width: 1px;"/></g><g class="y"><path class="ygrid crisp" transform="translate(0,353.59000000000003)" d="M80,0h330" style="stroke: rgb(40, 52, 66); stroke-opacity: 1; stroke-width: 1px;"/><path class="ygrid crisp" transform="translate(0,287.18)" d="M80,0h330" style="stroke: rgb(40, 52, 66); stroke-opacity: 1; stroke-width: 1px;"/><path class="ygrid crisp" transform="translate(0,220.76)" d="M80,0h330" style="stroke: rgb(40, 52, 66); stroke-opacity: 1; stroke-width: 1px;"/><path class="ygrid crisp" transform="translate(0,154.35)" d="M80,0h330" style="stroke: rgb(40, 52, 66); stroke-opacity: 1; stroke-width: 1px;"/></g></g><g class="zerolinelayer"><path class="yzl zl crisp" transform="translate(0,420)" d="M80,0h330" style="stroke: rgb(40, 52, 66); stroke-opacity: 1; stroke-width: 2px;"/></g><g class="layer-between"><g class="shapelayer"/><g class="imagelayer"/></g><path class="xlines-below"/><path class="ylines-below"/><g class="overlines-below"/><g class="xaxislayer-below"/><g class="yaxislayer-below"/><g class="overaxes-below"/><g class="overplot"><g class="xy" transform="translate(80,100)" clip-path="url(#clip05c12bxyplot)"><g class="scatterlayer mlayer"><g class="trace scatter trace609730" style="stroke-miterlimit: 2;"><g class="fills"><g><path class="js-fill" d="M330,320L0,320L0,320L107.61,319.26L114.78,318.49L121.96,317.82L129.13,315.76L136.3,316.65L143.48,315.14L150.65,314.91L157.83,310.93L165,314.63L172.17,313.12L179.35,312.48L186.52,308.38L193.7,305.29L200.87,304.94L208.04,295.89L215.22,291.01L222.39,280.96L229.57,251.13L236.74,266.84L243.91,256.64L251.09,174.62L258.26,251.85L265.43,270.5L272.61,279.58L279.78,267.34L286.96,252.55L294.13,277.25L301.3,265.37L308.48,255.98L315.65,282.84L322.83,266.92L330,313.7" style="fill: rgb(239, 85, 59); fill-opacity: 0.5; stroke-width: 0;"/></g><g><path class="js-fill" d="M0,320L57.39,320L64.57,319.12L78.91,319.5L86.09,319.88L93.26,319.16L100.43,319.77L121.96,317.63L129.13,314.91L136.3,315.76L143.48,314.54L150.65,314L157.83,307.67L165,310.91L172.17,308.03L179.35,303.97L186.52,304.89L193.7,298.09L200.87,299.53L208.04,289.75L215.22,286.94L222.39,271.43L229.57,238.73L236.74,251.63L243.91,245.21L251.09,145.95L258.26,241.36L265.43,261.68L272.61,270.9L279.78,258.61L286.96,239.45L294.13,262.53L301.3,254.49L308.48,244.12L315.65,270.93L322.83,254.49L330,311.92L330,313.7L322.83,266.92L315.65,282.84L308.48,255.98L301.3,265.37L294.13,277.25L286.96,252.55L279.78,267.34L272.61,279.58L265.43,270.5L258.26,251.85L251.09,174.62L243.91,256.64L236.74,266.84L229.57,251.13L222.39,280.96L215.22,291.01L208.04,295.89L200.87,304.94L193.7,305.29L186.52,308.38L179.35,312.48L172.17,313.12L165,314.63L157.83,310.93L150.65,314.91L143.48,315.14L136.3,316.65L129.13,315.76L121.96,317.82L114.78,318.49L107.61,319.26L0,320Z" style="fill: rgb(0, 204, 150); fill-opacity: 0.5; stroke-width: 0;"/></g></g><g class="errorbars"/><g class="lines"><path class="js-line" d="M0,320L107.61,319.26L114.78,318.49L121.96,317.82L129.13,315.76L136.3,316.65L143.48,315.14L150.65,314.91L157.83,310.93L165,314.63L172.17,313.12L179.35,312.48L186.52,308.38L193.7,305.29L200.87,304.94L208.04,295.89L215.22,291.01L222.39,280.96L229.57,251.13L236.74,266.84L243.91,256.64L251.09,174.62L258.26,251.85L265.43,270.5L272.61,279.58L279.78,267.34L286.96,252.55L294.13,277.25L301.3,265.37L308.48,255.98L315.65,282.84L322.83,266.92L330,313.7" style="vector-effect: none; fill: none; stroke: rgb(239, 85, 59); stroke-opacity: 1; stroke-width: 2px; opacity: 1;"/></g><g class="points"/><g class="text"/></g><g class="trace scatter trace1b5fff" style="stroke-miterlimit: 2;"><g class="fills"><g><path class="js-fill" d="M0,320L57.39,320L64.57,319.12L78.91,319.45L86.09,319.82L93.26,319.16L100.43,319.76L107.61,318.09L114.78,317.42L121.96,317.28L129.13,314.65L136.3,315.58L143.48,314.53L150.65,313.68L157.83,307.05L165,309.55L172.17,307.22L179.35,302.34L186.52,303.46L193.7,295.07L200.87,296.66L208.04,287.05L215.22,281.43L222.39,264.92L229.57,228.17L236.74,242.73L243.91,236.8L251.09,129.38L258.26,223.03L265.43,248.32L272.61,257.55L279.78,242.66L286.96,221.68L294.13,241.1L301.3,234.29L308.48,215.79L315.65,246.72L322.83,236.59L330,309.54L330,311.92L322.83,254.49L315.65,270.93L308.48,244.12L301.3,254.49L294.13,262.53L286.96,239.45L279.78,258.61L272.61,270.9L265.43,261.68L258.26,241.36L251.09,145.95L243.91,245.21L236.74,251.63L229.57,238.73L222.39,271.43L215.22,286.94L208.04,289.75L200.87,299.53L193.7,298.09L186.52,304.89L179.35,303.97L172.17,308.03L165,310.91L157.83,307.67L150.65,314L143.48,314.54L136.3,315.76L129.13,314.91L121.96,317.63L100.43,319.77L93.26,319.16L86.09,319.88L78.91,319.5L64.57,319.12L57.39,320L0,320Z" style="fill: rgb(171, 99, 250); fill-opacity: 0.5; stroke-width: 0;"/></g></g><g class="errorbars"/><g class="lines"><path class="js-line" d="M0,320L57.39,320L64.57,319.12L78.91,319.5L86.09,319.88L93.26,319.16L100.43,319.77L121.96,317.63L129.13,314.91L136.3,315.76L143.48,314.54L150.65,314L157.83,307.67L165,310.91L172.17,308.03L179.35,303.97L186.52,304.89L193.7,298.09L200.87,299.53L208.04,289.75L215.22,286.94L222.39,271.43L229.57,238.73L236.74,251.63L243.91,245.21L251.09,145.95L258.26,241.36L265.43,261.68L272.61,270.9L279.78,258.61L286.96,239.45L294.13,262.53L301.3,254.49L308.48,244.12L315.65,270.93L322.83,254.49L330,311.92" style="vector-effect: none; fill: none; stroke: rgb(0, 204, 150); stroke-opacity: 1; stroke-width: 2px; opacity: 1;"/></g><g class="points"/><g class="text"/></g><g class="trace scatter trace322a73" style="stroke-miterlimit: 2;"><g class="fills"><g><path class="js-fill" d="M0,320L57.39,320L64.57,319.12L71.74,319.64L78.91,319.35L86.09,319.69L93.26,319.16L100.43,319.44L107.61,318.09L121.96,317.26L129.13,314.65L136.3,315.34L143.48,314.53L150.65,313.54L157.83,307.05L165,309.49L172.17,307.19L179.35,301.32L186.52,302.69L193.7,293.45L200.87,294.96L208.04,285.16L215.22,277.89L222.39,260.44L229.57,217.67L236.74,227.43L243.91,223.94L251.09,109.45L258.26,202.32L265.43,240.19L272.61,247.26L279.78,230.07L286.96,204.95L294.13,230.69L301.3,223.42L308.48,204.4L315.65,236.45L322.83,226.78L330,308.16L330,309.54L322.83,236.59L315.65,246.72L308.48,215.79L301.3,234.29L294.13,241.1L286.96,221.68L279.78,242.66L272.61,257.55L265.43,248.32L258.26,223.03L251.09,129.38L243.91,236.8L236.74,242.73L229.57,228.17L222.39,264.92L215.22,281.43L208.04,287.05L200.87,296.66L193.7,295.07L186.52,303.46L179.35,302.34L172.17,307.22L165,309.55L157.83,307.05L150.65,313.68L143.48,314.53L136.3,315.58L129.13,314.65L121.96,317.28L114.78,317.42L107.61,318.09L100.43,319.76L93.26,319.16L86.09,319.82L78.91,319.45L64.57,319.12L57.39,320L0,320Z" style="fill: rgb(255, 161, 90); fill-opacity: 0.5; stroke-width: 0;"/></g></g><g class="errorbars"/><g class="lines"><path class="js-line" d="M0,320L57.39,320L64.57,319.12L78.91,319.45L86.09,319.82L93.26,319.16L100.43,319.76L107.61,318.09L114.78,317.42L121.96,317.28L129.13,314.65L136.3,315.58L143.48,314.53L150.65,313.68L157.83,307.05L165,309.55L172.17,307.22L179.35,302.34L186.52,303.46L193.7,295.07L200.87,296.66L208.04,287.05L215.22,281.43L222.39,264.92L229.57,228.17L236.74,242.73L243.91,236.8L251.09,129.38L258.26,223.03L265.43,248.32L272.61,257.55L279.78,242.66L286.96,221.68L294.13,241.1L301.3,234.29L308.48,215.79L315.65,246.72L322.83,236.59L330,309.54" style="vector-effect: none; fill: none; stroke: rgb(171, 99, 250); stroke-opacity: 1; stroke-width: 2px; opacity: 1;"/></g><g class="points"/><g class="text"/></g><g class="trace scatter trace1eaf12" style="stroke-miterlimit: 2;"><g class="fills"><g><path class="js-fill" d="M0,320L50.22,319.99L57.39,320L64.57,318.85L71.74,319.34L100.43,319.44L107.61,318.03L121.96,316.19L129.13,314.17L136.3,314.95L143.48,314.43L150.65,312.87L157.83,305.85L165,308.69L172.17,305.42L179.35,297.26L186.52,300.57L193.7,288.77L200.87,287.48L208.04,281.36L215.22,271.47L222.39,256.19L229.57,206.95L243.91,213.39L251.09,98.03L258.26,192.5L265.43,233.18L272.61,240.24L279.78,226.55L286.96,195.58L294.13,225.48L301.3,220.08L308.48,200.54L315.65,234.06L322.83,223.77L330,307.38L330,308.16L322.83,226.78L315.65,236.45L308.48,204.4L301.3,223.42L294.13,230.69L286.96,204.95L279.78,230.07L272.61,247.26L265.43,240.19L258.26,202.32L251.09,109.45L243.91,223.94L236.74,227.43L229.57,217.67L222.39,260.44L215.22,277.89L208.04,285.16L200.87,294.96L193.7,293.45L186.52,302.69L179.35,301.32L172.17,307.19L165,309.49L157.83,307.05L150.65,313.54L143.48,314.53L136.3,315.34L129.13,314.65L121.96,317.26L107.61,318.09L100.43,319.44L93.26,319.16L86.09,319.69L78.91,319.35L71.74,319.64L64.57,319.12L57.39,320L0,320Z" style="fill: rgb(25, 211, 243); fill-opacity: 0.5; stroke-width: 0;"/></g></g><g class="errorbars"/><g class="lines"><path class="js-line" d="M0,320L57.39,320L64.57,319.12L71.74,319.64L78.91,319.35L86.09,319.69L93.26,319.16L100.43,319.44L107.61,318.09L121.96,317.26L129.13,314.65L136.3,315.34L143.48,314.53L150.65,313.54L157.83,307.05L165,309.49L172.17,307.19L179.35,301.32L186.52,302.69L193.7,293.45L200.87,294.96L208.04,285.16L215.22,277.89L222.39,260.44L229.57,217.67L236.74,227.43L243.91,223.94L251.09,109.45L258.26,202.32L265.43,240.19L272.61,247.26L279.78,230.07L286.96,204.95L294.13,230.69L301.3,223.42L308.48,204.4L315.65,236.45L322.83,226.78L330,308.16" style="vector-effect: none; fill: none; stroke: rgb(255, 161, 90); stroke-opacity: 1; stroke-width: 2px; opacity: 1;"/></g><g class="points"/><g class="text"/></g><g class="trace scatter traceef21ab" style="stroke-miterlimit: 2;"><g class="fills"><g><path class="js-fill" d="M0,320L50.22,319.99L57.39,320L64.57,318.85L71.74,319.34L100.43,319.44L107.61,318.03L121.96,316.17L129.13,314.07L136.3,314.89L143.48,313.92L150.65,311.98L157.83,302.6L165,307.54L172.17,303.94L179.35,295.24L186.52,298.66L193.7,283.09L200.87,282.82L215.22,262.14L222.39,242.23L229.57,194.12L236.74,200.14L243.91,201.48L251.09,89.59L258.26,181.48L265.43,227.61L272.61,236.29L279.78,219.81L286.96,189.55L294.13,218.91L301.3,213.85L308.48,192.06L315.65,228.61L322.83,218.26L330,306.09L330,307.38L322.83,223.77L315.65,234.06L308.48,200.54L301.3,220.08L294.13,225.48L286.96,195.58L279.78,226.55L272.61,240.24L265.43,233.18L258.26,192.5L251.09,98.03L243.91,213.39L229.57,206.95L222.39,256.19L215.22,271.47L208.04,281.36L200.87,287.48L193.7,288.77L186.52,300.57L179.35,297.26L172.17,305.42L165,308.69L157.83,305.85L150.65,312.87L143.48,314.43L136.3,314.95L129.13,314.17L121.96,316.19L107.61,318.03L100.43,319.44L71.74,319.34L64.57,318.85L57.39,320L50.22,319.99L0,320Z" style="fill: rgb(255, 102, 146); fill-opacity: 0.5; stroke-width: 0;"/></g></g><g class="errorbars"/><g class="lines"><path class="js-line" d="M0,320L50.22,319.99L57.39,320L64.57,318.85L71.74,319.34L100.43,319.44L107.61,318.03L121.96,316.19L129.13,314.17L136.3,314.95L143.48,314.43L150.65,312.87L157.83,305.85L165,308.69L172.17,305.42L179.35,297.26L186.52,300.57L193.7,288.77L200.87,287.48L208.04,281.36L215.22,271.47L222.39,256.19L229.57,206.95L243.91,213.39L251.09,98.03L258.26,192.5L265.43,233.18L272.61,240.24L279.78,226.55L286.96,195.58L294.13,225.48L301.3,220.08L308.48,200.54L315.65,234.06L322.83,223.77L330,307.38" style="vector-effect: none; fill: none; stroke: rgb(25, 211, 243); stroke-opacity: 1; stroke-width: 2px; opacity: 1;"/></g><g class="points"/><g class="text"/></g><g class="trace scatter tracec2047f" style="stroke-miterlimit: 2;"><g class="fills"><g><path class="js-fill" d="M0,320L57.39,319.97L64.57,318.82L78.91,319.35L86.09,319.54L93.26,318.86L100.43,319.38L121.96,315.65L129.13,312.87L136.3,314.53L143.48,312.61L150.65,309.43L157.83,299.83L165,305.13L172.17,301.46L179.35,292.74L186.52,293.64L193.7,277.62L200.87,276.82L208.04,267.42L215.22,256.15L222.39,231.47L229.57,180.99L236.74,188.35L243.91,192.08L251.09,77.48L258.26,170.43L265.43,220.14L272.61,228.19L279.78,212.56L286.96,177.75L294.13,209.33L301.3,207.75L308.48,181.03L315.65,221.97L322.83,207.42L330,305.96L330,306.09L322.83,218.26L315.65,228.61L308.48,192.06L301.3,213.85L294.13,218.91L286.96,189.55L279.78,219.81L272.61,236.29L265.43,227.61L258.26,181.48L251.09,89.59L243.91,201.48L236.74,200.14L229.57,194.12L222.39,242.23L215.22,262.14L200.87,282.82L193.7,283.09L186.52,298.66L179.35,295.24L172.17,303.94L165,307.54L157.83,302.6L150.65,311.98L143.48,313.92L136.3,314.89L129.13,314.07L121.96,316.17L107.61,318.03L100.43,319.44L71.74,319.34L64.57,318.85L57.39,320L50.22,319.99L0,320Z" style="fill: rgb(182, 232, 128); fill-opacity: 0.5; stroke-width: 0;"/></g></g><g class="errorbars"/><g class="lines"><path class="js-line" d="M0,320L50.22,319.99L57.39,320L64.57,318.85L71.74,319.34L100.43,319.44L107.61,318.03L121.96,316.17L129.13,314.07L136.3,314.89L143.48,313.92L150.65,311.98L157.83,302.6L165,307.54L172.17,303.94L179.35,295.24L186.52,298.66L193.7,283.09L200.87,282.82L215.22,262.14L222.39,242.23L229.57,194.12L236.74,200.14L243.91,201.48L251.09,89.59L258.26,181.48L265.43,227.61L272.61,236.29L279.78,219.81L286.96,189.55L294.13,218.91L301.3,213.85L308.48,192.06L315.65,228.61L322.83,218.26L330,306.09" style="vector-effect: none; fill: none; stroke: rgb(255, 102, 146); stroke-opacity: 1; stroke-width: 2px; opacity: 1;"/></g><g class="points"/><g class="text"/></g><g class="trace scatter trace581e8a" style="stroke-miterlimit: 2;"><g class="fills"><g><path class="js-fill" d="M0,320L57.39,319.97L64.57,315.76L71.74,318.51L78.91,319.23L86.09,319.41L93.26,318.5L107.61,317.69L114.78,316.96L121.96,315.57L129.13,312.63L136.3,314.1L143.48,311.03L150.65,308.43L157.83,294.68L165,297.28L172.17,298.18L179.35,290.98L186.52,287.33L193.7,272.36L200.87,265.25L208.04,256.14L215.22,250.24L222.39,226.45L229.57,172.93L236.74,180.87L243.91,181.45L251.09,67.06L258.26,162.47L265.43,214.74L272.61,222.58L279.78,208.42L286.96,169.5L294.13,201.57L301.3,201.36L308.48,169.11L315.65,214.9L322.83,202.28L330,305.55L330,305.96L322.83,207.42L315.65,221.97L308.48,181.03L301.3,207.75L294.13,209.33L286.96,177.75L279.78,212.56L272.61,228.19L265.43,220.14L258.26,170.43L251.09,77.48L243.91,192.08L236.74,188.35L229.57,180.99L222.39,231.47L215.22,256.15L208.04,267.42L200.87,276.82L193.7,277.62L186.52,293.64L179.35,292.74L172.17,301.46L165,305.13L157.83,299.83L150.65,309.43L143.48,312.61L136.3,314.53L129.13,312.87L121.96,315.65L100.43,319.38L93.26,318.86L86.09,319.54L78.91,319.35L64.57,318.82L57.39,319.97L0,320Z" style="fill: rgb(255, 151, 255); fill-opacity: 0.5; stroke-width: 0;"/></g></g><g class="errorbars"/><g class="lines"><path class="js-line" d="M0,320L57.39,319.97L64.57,318.82L78.91,319.35L86.09,319.54L93.26,318.86L100.43,319.38L121.96,315.65L129.13,312.87L136.3,314.53L143.48,312.61L150.65,309.43L157.83,299.83L165,305.13L172.17,301.46L179.35,292.74L186.52,293.64L193.7,277.62L200.87,276.82L208.04,267.42L215.22,256.15L222.39,231.47L229.57,180.99L236.74,188.35L243.91,192.08L251.09,77.48L258.26,170.43L265.43,220.14L272.61,228.19L279.78,212.56L286.96,177.75L294.13,209.33L301.3,207.75L308.48,181.03L315.65,221.97L322.83,207.42L330,305.96" style="vector-effect: none; fill: none; stroke: rgb(182, 232, 128); stroke-opacity: 1; stroke-width: 2px; opacity: 1;"/></g><g class="points"/><g class="text"/></g><g class="trace scatter traced46672" style="stroke-miterlimit: 2;"><g class="fills"><g><path class="js-fill" d="M0,320L57.39,319.97L64.57,315.76L71.74,318.51L78.91,319.23L86.09,319.41L93.26,318.5L107.61,317.69L114.78,316.91L121.96,315.57L129.13,312.62L136.3,314.1L143.48,310.94L150.65,308.41L157.83,294.65L165,297.27L172.17,298.18L179.35,290.93L186.52,287.07L193.7,272.29L200.87,263.07L208.04,255.66L215.22,249.81L222.39,225.8L229.57,169.67L236.74,176.84L243.91,179.88L251.09,55.81L258.26,158.57L265.43,211.58L272.61,219.1L279.78,205.32L286.96,163.03L294.13,199.12L301.3,196.51L308.48,165.9L315.65,211L322.83,198.13L330,305.33L330,305.55L322.83,202.28L315.65,214.9L308.48,169.11L301.3,201.36L294.13,201.57L286.96,169.5L279.78,208.42L272.61,222.58L265.43,214.74L258.26,162.47L251.09,67.06L243.91,181.45L236.74,180.87L229.57,172.93L222.39,226.45L215.22,250.24L208.04,256.14L200.87,265.25L193.7,272.36L186.52,287.33L179.35,290.98L172.17,298.18L165,297.28L157.83,294.68L150.65,308.43L143.48,311.03L136.3,314.1L129.13,312.63L121.96,315.57L114.78,316.96L107.61,317.69L93.26,318.5L86.09,319.41L78.91,319.23L71.74,318.51L64.57,315.76L57.39,319.97L0,320Z" style="fill: rgb(254, 203, 82); fill-opacity: 0.5; stroke-width: 0;"/></g></g><g class="errorbars"/><g class="lines"><path class="js-line" d="M0,320L57.39,319.97L64.57,315.76L71.74,318.51L78.91,319.23L86.09,319.41L93.26,318.5L107.61,317.69L114.78,316.96L121.96,315.57L129.13,312.63L136.3,314.1L143.48,311.03L150.65,308.43L157.83,294.68L165,297.28L172.17,298.18L179.35,290.98L186.52,287.33L193.7,272.36L200.87,265.25L208.04,256.14L215.22,250.24L222.39,226.45L229.57,172.93L236.74,180.87L243.91,181.45L251.09,67.06L258.26,162.47L265.43,214.74L272.61,222.58L279.78,208.42L286.96,169.5L294.13,201.57L301.3,201.36L308.48,169.11L315.65,214.9L322.83,202.28L330,305.55" style="vector-effect: none; fill: none; stroke: rgb(255, 151, 255); stroke-opacity: 1; stroke-width: 2px; opacity: 1;"/></g><g class="points"/><g class="text"/></g><g class="trace scatter tracec398c8" style="stroke-miterlimit: 2;"><g class="fills"><g><path class="js-fill" d="M0,320L57.39,319.97L64.57,315.76L71.74,318.51L78.91,319.23L86.09,319.41L93.26,318.5L107.61,317.69L114.78,316.91L121.96,315.57L129.13,312.62L136.3,314.1L143.48,310.94L150.65,308.41L157.83,294.65L165,297.27L172.17,298.18L179.35,290.89L186.52,287.07L193.7,272.28L200.87,263.07L208.04,255.62L215.22,249.58L222.39,225.64L229.57,168.67L236.74,176.28L243.91,179.69L251.09,54.15L258.26,157.08L265.43,211.08L272.61,217.87L279.78,199.5L286.96,158.57L294.13,189.95L301.3,187.46L308.48,155.22L315.65,202.7L322.83,188.57L330,304.85L330,305.33L322.83,198.13L315.65,211L308.48,165.9L301.3,196.51L294.13,199.12L286.96,163.03L279.78,205.32L272.61,219.1L265.43,211.58L258.26,158.57L251.09,55.81L243.91,179.88L236.74,176.84L229.57,169.67L222.39,225.8L215.22,249.81L208.04,255.66L200.87,263.07L193.7,272.29L186.52,287.07L179.35,290.93L172.17,298.18L165,297.27L157.83,294.65L150.65,308.41L143.48,310.94L136.3,314.1L129.13,312.62L121.96,315.57L114.78,316.91L107.61,317.69L93.26,318.5L86.09,319.41L78.91,319.23L71.74,318.51L64.57,315.76L57.39,319.97L0,320Z" style="fill: rgb(99, 110, 250); fill-opacity: 0.5; stroke-width: 0;"/></g></g><g class="errorbars"/><g class="lines"><path class="js-line" d="M0,320L57.39,319.97L64.57,315.76L71.74,318.51L78.91,319.23L86.09,319.41L93.26,318.5L107.61,317.69L114.78,316.91L121.96,315.57L129.13,312.62L136.3,314.1L143.48,310.94L150.65,308.41L157.83,294.65L165,297.27L172.17,298.18L179.35,290.93L186.52,287.07L193.7,272.29L200.87,263.07L208.04,255.66L215.22,249.81L222.39,225.8L229.57,169.67L236.74,176.84L243.91,179.88L251.09,55.81L258.26,158.57L265.43,211.58L272.61,219.1L279.78,205.32L286.96,163.03L294.13,199.12L301.3,196.51L308.48,165.9L315.65,211L322.83,198.13L330,305.33" style="vector-effect: none; fill: none; stroke: rgb(254, 203, 82); stroke-opacity: 1; stroke-width: 2px; opacity: 1;"/></g><g class="points"/><g class="text"/></g><g class="trace scatter trace7d6c3c" style="stroke-miterlimit: 2;"><g class="fills"><g><path class="js-fill" d="M0,320L57.39,319.97L64.57,315.76L71.74,318.51L78.91,319.23L86.09,319.41L93.26,318.5L107.61,317.69L114.78,316.91L121.96,315.57L129.13,312.62L136.3,314.1L143.48,310.94L150.65,308.41L157.83,294.65L165,297.27L172.17,298.12L179.35,290.84L186.52,287.07L193.7,272.24L200.87,262.87L215.22,247.8L222.39,224.31L229.57,165.5L236.74,172.66L243.91,173.96L251.09,43.9L258.26,150.78L265.43,207.84L272.61,215.36L279.78,196.02L286.96,155.94L294.13,188.81L301.3,185.2L308.48,151.81L315.65,201.71L322.83,186.22L330,304.51L330,304.85L322.83,188.57L315.65,202.7L308.48,155.22L301.3,187.46L294.13,189.95L286.96,158.57L279.78,199.5L272.61,217.87L265.43,211.08L258.26,157.08L251.09,54.15L243.91,179.69L236.74,176.28L229.57,168.67L222.39,225.64L215.22,249.58L208.04,255.62L200.87,263.07L193.7,272.28L186.52,287.07L179.35,290.89L172.17,298.18L165,297.27L157.83,294.65L150.65,308.41L143.48,310.94L136.3,314.1L129.13,312.62L121.96,315.57L114.78,316.91L107.61,317.69L93.26,318.5L86.09,319.41L78.91,319.23L71.74,318.51L64.57,315.76L57.39,319.97L0,320Z" style="fill: rgb(239, 85, 59); fill-opacity: 0.5; stroke-width: 0;"/></g></g><g class="errorbars"/><g class="lines"><path class="js-line" d="M0,320L57.39,319.97L64.57,315.76L71.74,318.51L78.91,319.23L86.09,319.41L93.26,318.5L107.61,317.69L114.78,316.91L121.96,315.57L129.13,312.62L136.3,314.1L143.48,310.94L150.65,308.41L157.83,294.65L165,297.27L172.17,298.18L179.35,290.89L186.52,287.07L193.7,272.28L200.87,263.07L208.04,255.62L215.22,249.58L222.39,225.64L229.57,168.67L236.74,176.28L243.91,179.69L251.09,54.15L258.26,157.08L265.43,211.08L272.61,217.87L279.78,199.5L286.96,158.57L294.13,189.95L301.3,187.46L308.48,155.22L315.65,202.7L322.83,188.57L330,304.85" style="vector-effect: none; fill: none; stroke: rgb(99, 110, 250); stroke-opacity: 1; stroke-width: 2px; opacity: 1;"/></g><g class="points"/><g class="text"/></g><g class="trace scatter trace1aacca" style="stroke-miterlimit: 2;"><g class="fills"><g><path class="js-fill" d="M0,320L57.39,319.97L64.57,315.76L71.74,318.51L78.91,319.23L86.09,319.41L93.26,318.5L107.61,317.64L114.78,316.89L121.96,315.55L129.13,311.94L136.3,313.66L143.48,308.8L150.65,307.55L157.83,293.73L165,297.08L172.17,296.42L179.35,290.33L186.52,286.79L193.7,271.86L200.87,262.44L208.04,253.59L215.22,247.11L222.39,221.25L229.57,163.75L236.74,170.47L243.91,171.49L251.09,42.45L258.26,147.08L265.43,203.67L272.61,213.55L279.78,191.09L286.96,146.63L294.13,185.29L301.3,181.7L308.48,147.91L315.65,199.54L322.83,184.37L330,304.49L330,304.51L322.83,186.22L315.65,201.71L308.48,151.81L301.3,185.2L294.13,188.81L286.96,155.94L279.78,196.02L272.61,215.36L265.43,207.84L258.26,150.78L251.09,43.9L243.91,173.96L236.74,172.66L229.57,165.5L222.39,224.31L215.22,247.8L200.87,262.87L193.7,272.24L186.52,287.07L179.35,290.84L172.17,298.12L165,297.27L157.83,294.65L150.65,308.41L143.48,310.94L136.3,314.1L129.13,312.62L121.96,315.57L114.78,316.91L107.61,317.69L93.26,318.5L86.09,319.41L78.91,319.23L71.74,318.51L64.57,315.76L57.39,319.97L0,320Z" style="fill: rgb(0, 204, 150); fill-opacity: 0.5; stroke-width: 0;"/></g></g><g class="errorbars"/><g class="lines"><path class="js-line" d="M0,320L57.39,319.97L64.57,315.76L71.74,318.51L78.91,319.23L86.09,319.41L93.26,318.5L107.61,317.69L114.78,316.91L121.96,315.57L129.13,312.62L136.3,314.1L143.48,310.94L150.65,308.41L157.83,294.65L165,297.27L172.17,298.12L179.35,290.84L186.52,287.07L193.7,272.24L200.87,262.87L215.22,247.8L222.39,224.31L229.57,165.5L236.74,172.66L243.91,173.96L251.09,43.9L258.26,150.78L265.43,207.84L272.61,215.36L279.78,196.02L286.96,155.94L294.13,188.81L301.3,185.2L308.48,151.81L315.65,201.71L322.83,186.22L330,304.51" style="vector-effect: none; fill: none; stroke: rgb(239, 85, 59); stroke-opacity: 1; stroke-width: 2px; opacity: 1;"/></g><g class="points"/><g class="text"/></g><g class="trace scatter traceb43a8f" style="stroke-miterlimit: 2;"><g class="fills"><g><path class="js-fill" d="M0,320L57.39,319.97L64.57,315.76L71.74,318.51L78.91,319.23L86.09,319.41L93.26,318.5L107.61,317.64L114.78,316.89L121.96,315.55L129.13,311.94L136.3,313.66L143.48,308.8L150.65,307.55L157.83,293.73L165,297.08L172.17,296.42L179.35,290.33L186.52,286.79L193.7,271.86L200.87,262.32L208.04,253.59L215.22,247.09L222.39,221.03L229.57,163.12L236.74,169.93L243.91,170.36L251.09,40.66L258.26,145.78L265.43,201.34L272.61,211.89L279.78,186.72L286.96,142.51L294.13,177.25L301.3,173.99L308.48,142.25L315.65,190.42L322.83,177.29L330,303.52L330,304.49L322.83,184.37L315.65,199.54L308.48,147.91L301.3,181.7L294.13,185.29L286.96,146.63L279.78,191.09L272.61,213.55L265.43,203.67L258.26,147.08L251.09,42.45L243.91,171.49L236.74,170.47L229.57,163.75L222.39,221.25L215.22,247.11L208.04,253.59L200.87,262.44L193.7,271.86L186.52,286.79L179.35,290.33L172.17,296.42L165,297.08L157.83,293.73L150.65,307.55L143.48,308.8L136.3,313.66L129.13,311.94L121.96,315.55L114.78,316.89L107.61,317.64L93.26,318.5L86.09,319.41L78.91,319.23L71.74,318.51L64.57,315.76L57.39,319.97L0,320Z" style="fill: rgb(171, 99, 250); fill-opacity: 0.5; stroke-width: 0;"/></g></g><g class="errorbars"/><g class="lines"><path class="js-line" d="M0,320L57.39,319.97L64.57,315.76L71.74,318.51L78.91,319.23L86.09,319.41L93.26,318.5L107.61,317.64L114.78,316.89L121.96,315.55L129.13,311.94L136.3,313.66L143.48,308.8L150.65,307.55L157.83,293.73L165,297.08L172.17,296.42L179.35,290.33L186.52,286.79L193.7,271.86L200.87,262.44L208.04,253.59L215.22,247.11L222.39,221.25L229.57,163.75L236.74,170.47L243.91,171.49L251.09,42.45L258.26,147.08L265.43,203.67L272.61,213.55L279.78,191.09L286.96,146.63L294.13,185.29L301.3,181.7L308.48,147.91L315.65,199.54L322.83,184.37L330,304.49" style="vector-effect: none; fill: none; stroke: rgb(0, 204, 150); stroke-opacity: 1; stroke-width: 2px; opacity: 1;"/></g><g class="points"/><g class="text"/></g><g class="trace scatter tracea1526f" style="stroke-miterlimit: 2;"><g class="fills"><g><path class="js-fill" d="M0,320L57.39,319.97L64.57,315.76L71.74,318.51L78.91,319.23L86.09,319.41L93.26,318.03L100.43,318.36L107.61,317.13L121.96,314.69L129.13,309.91L136.3,312.39L143.48,306.95L150.65,305.87L157.83,292.77L165,295.02L172.17,295.18L179.35,288.1L186.52,284.92L193.7,269.55L200.87,260.29L208.04,251.04L215.22,243.91L222.39,218.34L229.57,157.02L236.74,166.77L243.91,165.01L251.09,31.84L258.26,142.2L265.43,198.48L272.61,209.41L279.78,183.15L286.96,136.6L294.13,168.36L301.3,168.71L308.48,135.46L315.65,187.12L322.83,174.51L330,302.72L330,303.52L322.83,177.29L315.65,190.42L308.48,142.25L301.3,173.99L294.13,177.25L286.96,142.51L279.78,186.72L272.61,211.89L265.43,201.34L258.26,145.78L251.09,40.66L243.91,170.36L236.74,169.93L229.57,163.12L222.39,221.03L215.22,247.09L208.04,253.59L200.87,262.32L193.7,271.86L186.52,286.79L179.35,290.33L172.17,296.42L165,297.08L157.83,293.73L150.65,307.55L143.48,308.8L136.3,313.66L129.13,311.94L121.96,315.55L114.78,316.89L107.61,317.64L93.26,318.5L86.09,319.41L78.91,319.23L71.74,318.51L64.57,315.76L57.39,319.97L0,320Z" style="fill: rgb(255, 161, 90); fill-opacity: 0.5; stroke-width: 0;"/></g></g><g class="errorbars"/><g class="lines"><path class="js-line" d="M0,320L57.39,319.97L64.57,315.76L71.74,318.51L78.91,319.23L86.09,319.41L93.26,318.5L107.61,317.64L114.78,316.89L121.96,315.55L129.13,311.94L136.3,313.66L143.48,308.8L150.65,307.55L157.83,293.73L165,297.08L172.17,296.42L179.35,290.33L186.52,286.79L193.7,271.86L200.87,262.32L208.04,253.59L215.22,247.09L222.39,221.03L229.57,163.12L236.74,169.93L243.91,170.36L251.09,40.66L258.26,145.78L265.43,201.34L272.61,211.89L279.78,186.72L286.96,142.51L294.13,177.25L301.3,173.99L308.48,142.25L315.65,190.42L322.83,177.29L330,303.52" style="vector-effect: none; fill: none; stroke: rgb(171, 99, 250); stroke-opacity: 1; stroke-width: 2px; opacity: 1;"/></g><g class="points"/><g class="text"/></g><g class="trace scatter trace1f8925" style="stroke-miterlimit: 2;"><g class="fills"><g><path class="js-fill" d="M0,320L57.39,319.97L64.57,315.76L71.74,318.51L78.91,319.23L86.09,319.41L93.26,318.03L100.43,318.16L107.61,315.69L114.78,313.98L121.96,309.85L129.13,305.73L136.3,305.97L143.48,298.64L150.65,303.03L157.83,287.13L165,291.32L172.17,291.69L179.35,285.58L186.52,282.5L193.7,267.08L200.87,256.91L208.04,248.91L215.22,241.85L222.39,217.31L229.57,155.85L236.74,164.88L243.91,164.98L251.09,30.68L258.26,141.49L265.43,197.36L272.61,209.39L279.78,183.07L286.96,136.08L294.13,168.02L301.3,167.57L308.48,134.57L315.65,186.05L322.83,174.07L330,302.72L330,302.72L322.83,174.51L315.65,187.12L308.48,135.46L301.3,168.71L294.13,168.36L286.96,136.6L279.78,183.15L272.61,209.41L265.43,198.48L258.26,142.2L251.09,31.84L243.91,165.01L236.74,166.77L229.57,157.02L222.39,218.34L215.22,243.91L208.04,251.04L200.87,260.29L193.7,269.55L186.52,284.92L179.35,288.1L172.17,295.18L165,295.02L157.83,292.77L150.65,305.87L143.48,306.95L136.3,312.39L129.13,309.91L121.96,314.69L107.61,317.13L100.43,318.36L93.26,318.03L86.09,319.41L78.91,319.23L71.74,318.51L64.57,315.76L57.39,319.97L0,320Z" style="fill: rgb(25, 211, 243); fill-opacity: 0.5; stroke-width: 0;"/></g></g><g class="errorbars"/><g class="lines"><path class="js-line" d="M0,320L57.39,319.97L64.57,315.76L71.74,318.51L78.91,319.23L86.09,319.41L93.26,318.03L100.43,318.36L107.61,317.13L121.96,314.69L129.13,309.91L136.3,312.39L143.48,306.95L150.65,305.87L157.83,292.77L165,295.02L172.17,295.18L179.35,288.1L186.52,284.92L193.7,269.55L200.87,260.29L208.04,251.04L215.22,243.91L222.39,218.34L229.57,157.02L236.74,166.77L243.91,165.01L251.09,31.84L258.26,142.2L265.43,198.48L272.61,209.41L279.78,183.15L286.96,136.6L294.13,168.36L301.3,168.71L308.48,135.46L315.65,187.12L322.83,174.51L330,302.72" style="vector-effect: none; fill: none; stroke: rgb(255, 161, 90); stroke-opacity: 1; stroke-width: 2px; opacity: 1;"/></g><g class="points"/><g class="text"/></g><g class="trace scatter trace3b1413" style="stroke-miterlimit: 2;"><g class="fills"><g><path class="js-fill" d="M0,320L57.39,319.97L64.57,315.76L71.74,318.51L78.91,319.13L86.09,319.41L93.26,317.93L100.43,318.16L107.61,315.49L114.78,313.84L121.96,309.75L129.13,305.23L136.3,305.93L143.48,297.92L150.65,303.03L157.83,287.06L165,289.22L172.17,288.98L179.35,284.39L186.52,279.91L193.7,265.16L200.87,253.73L208.04,245.71L215.22,240.13L222.39,216.55L229.57,154L236.74,161.26L243.91,161.79L251.09,25.84L258.26,137L265.43,190.28L272.61,202.94L279.78,177.33L286.96,130.23L294.13,161.58L301.3,163.37L308.48,130.06L315.65,180.56L322.83,170.34L330,302.16L330,302.72L322.83,174.07L315.65,186.05L308.48,134.57L301.3,167.57L294.13,168.02L286.96,136.08L279.78,183.07L272.61,209.39L265.43,197.36L258.26,141.49L251.09,30.68L243.91,164.98L236.74,164.88L229.57,155.85L222.39,217.31L215.22,241.85L208.04,248.91L200.87,256.91L193.7,267.08L186.52,282.5L179.35,285.58L172.17,291.69L165,291.32L157.83,287.13L150.65,303.03L143.48,298.64L136.3,305.97L129.13,305.73L121.96,309.85L114.78,313.98L107.61,315.69L100.43,318.16L93.26,318.03L86.09,319.41L78.91,319.23L71.74,318.51L64.57,315.76L57.39,319.97L0,320Z" style="fill: rgb(255, 102, 146); fill-opacity: 0.5; stroke-width: 0;"/></g></g><g class="errorbars"/><g class="lines"><path class="js-line" d="M0,320L57.39,319.97L64.57,315.76L71.74,318.51L78.91,319.23L86.09,319.41L93.26,318.03L100.43,318.16L107.61,315.69L114.78,313.98L121.96,309.85L129.13,305.73L136.3,305.97L143.48,298.64L150.65,303.03L157.83,287.13L165,291.32L172.17,291.69L179.35,285.58L186.52,282.5L193.7,267.08L200.87,256.91L208.04,248.91L215.22,241.85L222.39,217.31L229.57,155.85L236.74,164.88L243.91,164.98L251.09,30.68L258.26,141.49L265.43,197.36L272.61,209.39L279.78,183.07L286.96,136.08L294.13,168.02L301.3,167.57L308.48,134.57L315.65,186.05L322.83,174.07L330,302.72" style="vector-effect: none; fill: none; stroke: rgb(25, 211, 243); stroke-opacity: 1; stroke-width: 2px; opacity: 1;"/></g><g class="points"/><g class="text"/></g><g class="trace scatter trace45a47b" style="stroke-miterlimit: 2;"><g class="fills"><g><path class="js-fill" d="M0,319.9L21.52,319.99L35.87,319.38L57.39,319.97L64.57,315.49L71.74,318.21L78.91,319.13L86.09,319.38L93.26,317.74L100.43,318.16L107.61,315.45L114.78,313.54L121.96,308.38L129.13,304.22L136.3,304.82L143.48,296.59L150.65,300.89L157.83,282.98L165,285.09L172.17,284.95L179.35,282.3L186.52,276.01L193.7,259.13L200.87,250.41L208.04,244.38L215.22,238.25L222.39,214.08L229.57,151.19L236.74,159.16L243.91,160.62L251.09,22.65L258.26,134.83L265.43,189.61L272.61,201.73L279.78,175.49L286.96,128.9L294.13,160.13L301.3,162.13L308.48,129.19L315.65,179.88L322.83,170.19L330,302.06L330,302.16L322.83,170.34L315.65,180.56L308.48,130.06L301.3,163.37L294.13,161.58L286.96,130.23L279.78,177.33L272.61,202.94L265.43,190.28L258.26,137L251.09,25.84L243.91,161.79L236.74,161.26L229.57,154L222.39,216.55L215.22,240.13L208.04,245.71L200.87,253.73L193.7,265.16L186.52,279.91L179.35,284.39L172.17,288.98L165,289.22L157.83,287.06L150.65,303.03L143.48,297.92L136.3,305.93L129.13,305.23L121.96,309.75L114.78,313.84L107.61,315.49L100.43,318.16L93.26,317.93L86.09,319.41L78.91,319.13L71.74,318.51L64.57,315.76L57.39,319.97L0,320Z" style="fill: rgb(182, 232, 128); fill-opacity: 0.5; stroke-width: 0;"/></g></g><g class="errorbars"/><g class="lines"><path class="js-line" d="M0,320L57.39,319.97L64.57,315.76L71.74,318.51L78.91,319.13L86.09,319.41L93.26,317.93L100.43,318.16L107.61,315.49L114.78,313.84L121.96,309.75L129.13,305.23L136.3,305.93L143.48,297.92L150.65,303.03L157.83,287.06L165,289.22L172.17,288.98L179.35,284.39L186.52,279.91L193.7,265.16L200.87,253.73L208.04,245.71L215.22,240.13L222.39,216.55L229.57,154L236.74,161.26L243.91,161.79L251.09,25.84L258.26,137L265.43,190.28L272.61,202.94L279.78,177.33L286.96,130.23L294.13,161.58L301.3,163.37L308.48,130.06L315.65,180.56L322.83,170.34L330,302.16" style="vector-effect: none; fill: none; stroke: rgb(255, 102, 146); stroke-opacity: 1; stroke-width: 2px; opacity: 1;"/></g><g class="points"/><g class="text"/></g><g class="trace scatter trace99583b" style="stroke-miterlimit: 2;"><g class="fills"><g><path class="js-fill" d="M0,319.8L21.52,319.99L35.87,319.38L57.39,319.97L64.57,315.49L71.74,318.21L78.91,319.13L86.09,319.38L93.26,317.74L100.43,318.16L107.61,315.45L114.78,313.37L121.96,308.12L129.13,303.69L136.3,304.53L143.48,295.63L150.65,299.11L157.83,278.85L165,281.04L172.17,281.05L179.35,280.27L186.52,271.84L193.7,253.18L200.87,245.72L208.04,242.87L215.22,236.07L222.39,211.5L229.57,149.33L236.74,157.78L243.91,159.07L251.09,21.53L258.26,133.43L265.43,188.8L272.61,200.92L279.78,173.44L286.96,126.65L294.13,159.42L301.3,161.01L308.48,128.65L315.65,178.93L322.83,170.04L330,302.02L330,302.06L322.83,170.19L315.65,179.88L308.48,129.19L301.3,162.13L294.13,160.13L286.96,128.9L279.78,175.49L272.61,201.73L265.43,189.61L258.26,134.83L251.09,22.65L243.91,160.62L236.74,159.16L229.57,151.19L222.39,214.08L215.22,238.25L208.04,244.38L200.87,250.41L193.7,259.13L186.52,276.01L179.35,282.3L172.17,284.95L165,285.09L157.83,282.98L150.65,300.89L143.48,296.59L136.3,304.82L129.13,304.22L121.96,308.38L114.78,313.54L107.61,315.45L100.43,318.16L93.26,317.74L86.09,319.38L78.91,319.13L71.74,318.21L64.57,315.49L57.39,319.97L35.87,319.38L21.52,319.99L0,319.9Z" style="fill: rgb(255, 151, 255); fill-opacity: 0.5; stroke-width: 0;"/></g></g><g class="errorbars"/><g class="lines"><path class="js-line" d="M0,319.9L21.52,319.99L35.87,319.38L57.39,319.97L64.57,315.49L71.74,318.21L78.91,319.13L86.09,319.38L93.26,317.74L100.43,318.16L107.61,315.45L114.78,313.54L121.96,308.38L129.13,304.22L136.3,304.82L143.48,296.59L150.65,300.89L157.83,282.98L165,285.09L172.17,284.95L179.35,282.3L186.52,276.01L193.7,259.13L200.87,250.41L208.04,244.38L215.22,238.25L222.39,214.08L229.57,151.19L236.74,159.16L243.91,160.62L251.09,22.65L258.26,134.83L265.43,189.61L272.61,201.73L279.78,175.49L286.96,128.9L294.13,160.13L301.3,162.13L308.48,129.19L315.65,179.88L322.83,170.19L330,302.06" style="vector-effect: none; fill: none; stroke: rgb(182, 232, 128); stroke-opacity: 1; stroke-width: 2px; opacity: 1;"/></g><g class="points"/><g class="text"/></g><g class="trace scatter trace13bd38" style="stroke-miterlimit: 2;"><g class="fills"><g><path class="js-fill" d="M0,319.8L21.52,319.99L35.87,319.38L57.39,319.81L64.57,315.48L71.74,318.18L78.91,319.01L86.09,319.21L93.26,317.68L100.43,318.16L107.61,315.43L114.78,313.37L121.96,308.11L129.13,303.5L136.3,304.23L143.48,295.36L150.65,298.8L157.83,276.06L165,280.68L179.35,279.48L186.52,270.72L193.7,249.79L200.87,241.96L208.04,239.67L215.22,232.36L222.39,206.71L229.57,145.26L236.74,154.32L243.91,156.26L251.09,18.47L258.26,128.72L265.43,187.51L272.61,199.97L279.78,170.6L286.96,125.73L294.13,157.82L301.3,159.03L308.48,126.58L315.65,177.35L322.83,168.56L330,301.58L330,302.02L322.83,170.04L315.65,178.93L308.48,128.65L301.3,161.01L294.13,159.42L286.96,126.65L279.78,173.44L272.61,200.92L265.43,188.8L258.26,133.43L251.09,21.53L243.91,159.07L236.74,157.78L229.57,149.33L222.39,211.5L215.22,236.07L208.04,242.87L200.87,245.72L193.7,253.18L186.52,271.84L179.35,280.27L172.17,281.05L165,281.04L157.83,278.85L150.65,299.11L143.48,295.63L136.3,304.53L129.13,303.69L121.96,308.12L114.78,313.37L107.61,315.45L100.43,318.16L93.26,317.74L86.09,319.38L78.91,319.13L71.74,318.21L64.57,315.49L57.39,319.97L35.87,319.38L21.52,319.99L0,319.8Z" style="fill: rgb(254, 203, 82); fill-opacity: 0.5; stroke-width: 0;"/></g></g><g class="errorbars"/><g class="lines"><path class="js-line" d="M0,319.8L21.52,319.99L35.87,319.38L57.39,319.97L64.57,315.49L71.74,318.21L78.91,319.13L86.09,319.38L93.26,317.74L100.43,318.16L107.61,315.45L114.78,313.37L121.96,308.12L129.13,303.69L136.3,304.53L143.48,295.63L150.65,299.11L157.83,278.85L165,281.04L172.17,281.05L179.35,280.27L186.52,271.84L193.7,253.18L200.87,245.72L208.04,242.87L215.22,236.07L222.39,211.5L229.57,149.33L236.74,157.78L243.91,159.07L251.09,21.53L258.26,133.43L265.43,188.8L272.61,200.92L279.78,173.44L286.96,126.65L294.13,159.42L301.3,161.01L308.48,128.65L315.65,178.93L322.83,170.04L330,302.02" style="vector-effect: none; fill: none; stroke: rgb(255, 151, 255); stroke-opacity: 1; stroke-width: 2px; opacity: 1;"/></g><g class="points"/><g class="text"/></g><g class="trace scatter trace2d02dd" style="stroke-miterlimit: 2;"><g class="fills"><g><path class="js-fill" d="M0,319.8L21.52,319.99L35.87,319.38L57.39,319.81L64.57,315.48L71.74,318.18L78.91,319.01L86.09,319.21L93.26,317.62L100.43,318.1L107.61,314.77L114.78,310.13L121.96,306.92L129.13,301.56L136.3,303.05L143.48,293.77L150.65,295.71L157.83,273.73L165,276.95L172.17,278L179.35,277.39L186.52,268.91L193.7,248.12L200.87,238.43L208.04,238.37L215.22,230.2L222.39,204.64L229.57,143.9L236.74,150.37L243.91,152.76L251.09,16L258.26,127.11L265.43,184.98L272.61,197.64L279.78,170.51L286.96,124.61L294.13,157.16L301.3,158.36L308.48,125.7L315.65,176.48L322.83,168.49L330,301.58L330,301.58L322.83,168.56L315.65,177.35L308.48,126.58L301.3,159.03L294.13,157.82L286.96,125.73L279.78,170.6L272.61,199.97L265.43,187.51L258.26,128.72L251.09,18.47L243.91,156.26L236.74,154.32L229.57,145.26L222.39,206.71L215.22,232.36L208.04,239.67L200.87,241.96L193.7,249.79L186.52,270.72L179.35,279.48L165,280.68L157.83,276.06L150.65,298.8L143.48,295.36L136.3,304.23L129.13,303.5L121.96,308.11L114.78,313.37L107.61,315.43L100.43,318.16L93.26,317.68L86.09,319.21L78.91,319.01L71.74,318.18L64.57,315.48L57.39,319.81L35.87,319.38L21.52,319.99L0,319.8Z" style="fill: rgb(99, 110, 250); fill-opacity: 0.5; stroke-width: 0;"/></g></g><g class="errorbars"/><g class="lines"><path class="js-line" d="M0,319.8L21.52,319.99L35.87,319.38L57.39,319.81L64.57,315.48L71.74,318.18L78.91,319.01L86.09,319.21L93.26,317.68L100.43,318.16L107.61,315.43L114.78,313.37L121.96,308.11L129.13,303.5L136.3,304.23L143.48,295.36L150.65,298.8L157.83,276.06L165,280.68L179.35,279.48L186.52,270.72L193.7,249.79L200.87,241.96L208.04,239.67L215.22,232.36L222.39,206.71L229.57,145.26L236.74,154.32L243.91,156.26L251.09,18.47L258.26,128.72L265.43,187.51L272.61,199.97L279.78,170.6L286.96,125.73L294.13,157.82L301.3,159.03L308.48,126.58L315.65,177.35L322.83,168.56L330,301.58" style="vector-effect: none; fill: none; stroke: rgb(254, 203, 82); stroke-opacity: 1; stroke-width: 2px; opacity: 1;"/></g><g class="points"/><g class="text"/></g><g class="trace scatter traceccfb73" style="stroke-miterlimit: 2;"><g class="fills"/><g class="errorbars"/><g class="lines"><path class="js-line" d="M0,319.8L21.52,319.99L35.87,319.38L57.39,319.81L64.57,315.48L71.74,318.18L78.91,319.01L86.09,319.21L93.26,317.62L100.43,318.1L107.61,314.77L114.78,310.13L121.96,306.92L129.13,301.56L136.3,303.05L143.48,293.77L150.65,295.71L157.83,273.73L165,276.95L172.17,278L179.35,277.39L186.52,268.91L193.7,248.12L200.87,238.43L208.04,238.37L215.22,230.2L222.39,204.64L229.57,143.9L236.74,150.37L243.91,152.76L251.09,16L258.26,127.11L265.43,184.98L272.61,197.64L279.78,170.51L286.96,124.61L294.13,157.16L301.3,158.36L308.48,125.7L315.65,176.48L322.83,168.49L330,301.58" style="vector-effect: none; fill: none; stroke: rgb(99, 110, 250); stroke-opacity: 1; stroke-width: 2px; opacity: 1;"/></g><g class="points"/><g class="text"/></g></g></g></g><path class="xlines-above crisp" d="M0,0" style="fill: none;"/><path class="ylines-above crisp" d="M0,0" style="fill: none;"/><g class="overlines-above"/><g class="xaxislayer-above"><g class="xtick"><text text-anchor="middle" x="0" y="433" transform="translate(108.7,0)" style="font-family: 'Open Sans', verdana, arial, sans-serif; font-size: 12px; fill: rgb(242, 245, 250); fill-opacity: 1; white-space: pre; opacity: 1;">1980</text></g><g class="xtick"><text text-anchor="middle" x="0" y="433" style="font-family: 'Open Sans', verdana, arial, sans-serif; font-size: 12px; fill: rgb(242, 245, 250); fill-opacity: 1; white-space: pre; opacity: 1;" transform="translate(180.43,0)">1990</text></g><g class="xtick"><text text-anchor="middle" x="0" y="433" style="font-family: 'Open Sans', verdana, arial, sans-serif; font-size: 12px; fill: rgb(242, 245, 250); fill-opacity: 1; white-space: pre; opacity: 1;" transform="translate(252.17,0)">2000</text></g><g class="xtick"><text text-anchor="middle" x="0" y="433" style="font-family: 'Open Sans', verdana, arial, sans-serif; font-size: 12px; fill: rgb(242, 245, 250); fill-opacity: 1; white-space: pre; opacity: 1;" transform="translate(323.90999999999997,0)">2010</text></g><g class="xtick"><text text-anchor="middle" x="0" y="433" style="font-family: 'Open Sans', verdana, arial, sans-serif; font-size: 12px; fill: rgb(242, 245, 250); fill-opacity: 1; white-space: pre; opacity: 1;" transform="translate(395.65,0)">2020</text></g></g><g class="yaxislayer-above"><g class="ytick"><text text-anchor="end" x="79" y="4.199999999999999" transform="translate(0,420)" style="font-family: 'Open Sans', verdana, arial, sans-serif; font-size: 12px; fill: rgb(242, 245, 250); fill-opacity: 1; white-space: pre; opacity: 1;">0</text></g><g class="ytick"><text text-anchor="end" x="79" y="4.199999999999999" style="font-family: 'Open Sans', verdana, arial, sans-serif; font-size: 12px; fill: rgb(242, 245, 250); fill-opacity: 1; white-space: pre; opacity: 1;" transform="translate(0,353.59000000000003)">10k</text></g><g class="ytick"><text text-anchor="end" x="79" y="4.199999999999999" style="font-family: 'Open Sans', verdana, arial, sans-serif; font-size: 12px; fill: rgb(242, 245, 250); fill-opacity: 1; white-space: pre; opacity: 1;" transform="translate(0,287.18)">20k</text></g><g class="ytick"><text text-anchor="end" x="79" y="4.199999999999999" style="font-family: 'Open Sans', verdana, arial, sans-serif; font-size: 12px; fill: rgb(242, 245, 250); fill-opacity: 1; white-space: pre; opacity: 1;" transform="translate(0,220.76)">30k</text></g><g class="ytick"><text text-anchor="end" x="79" y="4.199999999999999" style="font-family: 'Open Sans', verdana, arial, sans-serif; font-size: 12px; fill: rgb(242, 245, 250); fill-opacity: 1; white-space: pre; opacity: 1;" transform="translate(0,154.35)">40k</text></g></g><g class="overaxes-above"/></g></g><g class="polarlayer"/><g class="smithlayer"/><g class="ternarylayer"/><g class="geolayer"/><g class="funnelarealayer"/><g class="pielayer"/><g class="iciclelayer"/><g class="treemaplayer"/><g class="sunburstlayer"/><g class="glimages"/><defs id="topdefs-05c12b"><g class="clips"/><clipPath id="legend05c12b"><rect width="271" height="320" x="0" y="0"/></clipPath></defs><g class="layer-above"><g class="imagelayer"/><g class="shapelayer"/></g><g class="infolayer"><g class="legend" pointer-events="all" transform="translate(416.6,100)"><rect class="bg" shape-rendering="crispEdges" width="271" height="320" x="0" y="0" style="stroke: rgb(68, 68, 68); stroke-opacity: 1; fill: rgb(34, 37, 41); fill-opacity: 1; stroke-width: 0px;"/><g class="scrollbox" transform="" clip-path="url(#legend05c12b)"><text class="legendtitletext" text-anchor="start" x="2" y="18.2" style="font-family: 'Open Sans', verdana, arial, sans-serif; font-size: 14px; fill: rgb(242, 245, 250); fill-opacity: 1; white-space: pre;">Disease Classes</text><g class="groups" transform=""><g class="traces" transform="translate(0,32.7)" style="opacity: 0.5;"><text class="legendtext" text-anchor="start" x="40" y="4.680000000000001" style="font-family: 'Open Sans', verdana, arial, sans-serif; font-size: 12px; fill: rgb(242, 245, 250); fill-opacity: 1; white-space: pre;">Other Diseases</text><g class="layers"><g class="legendfill"><path class="js-fill" d="M5,-2h30v6h-30z" style="stroke-width: 0; fill: rgb(99, 110, 250); fill-opacity: 0.5;"/></g><g class="legendlines"><path class="js-line" d="M5,-2h30" style="fill: none; stroke: rgb(99, 110, 250); stroke-opacity: 1; stroke-width: 2px;"/></g><g class="legendsymbols"><g class="legendpoints"/></g></g><rect class="legendtoggle" x="0" y="-9.5" width="265.34375" height="19" style="fill: rgb(0, 0, 0); fill-opacity: 0;"/></g></g><g class="groups" transform=""><g class="traces" transform="translate(0,51.7)" style="opacity: 1;"><text class="legendtext" text-anchor="start" x="40" y="4.680000000000001" style="font-family: 'Open Sans', verdana, arial, sans-serif; font-size: 12px; fill: rgb(242, 245, 250); fill-opacity: 1; white-space: pre;">Cancer</text><g class="layers"><g class="legendfill"><path class="js-fill" d="M5,-2h30v6h-30z" style="stroke-width: 0; fill: rgb(239, 85, 59); fill-opacity: 0.5;"/></g><g class="legendlines"><path class="js-line" d="M5,-2h30" style="fill: none; stroke: rgb(239, 85, 59); stroke-opacity: 1; stroke-width: 2px;"/></g><g class="legendsymbols"><g class="legendpoints"/></g></g><rect class="legendtoggle" x="0" y="-9.5" width="265.34375" height="19" style="fill: rgb(0, 0, 0); fill-opacity: 0;"/></g></g><g class="groups" transform=""><g class="traces" transform="translate(0,70.7)" style="opacity: 1;"><text class="legendtext" text-anchor="start" x="40" y="4.680000000000001" style="font-family: 'Open Sans', verdana, arial, sans-serif; font-size: 12px; fill: rgb(242, 245, 250); fill-opacity: 1; white-space: pre;">Dysplasia</text><g class="layers"><g class="legendfill"><path class="js-fill" d="M5,-2h30v6h-30z" style="stroke-width: 0; fill: rgb(0, 204, 150); fill-opacity: 0.5;"/></g><g class="legendlines"><path class="js-line" d="M5,-2h30" style="fill: none; stroke: rgb(0, 204, 150); stroke-opacity: 1; stroke-width: 2px;"/></g><g class="legendsymbols"><g class="legendpoints"/></g></g><rect class="legendtoggle" x="0" y="-9.5" width="265.34375" height="19" style="fill: rgb(0, 0, 0); fill-opacity: 0;"/></g></g><g class="groups" transform=""><g class="traces" transform="translate(0,89.7)" style="opacity: 1;"><text class="legendtext" text-anchor="start" x="40" y="4.680000000000001" style="font-family: 'Open Sans', verdana, arial, sans-serif; font-size: 12px; fill: rgb(242, 245, 250); fill-opacity: 1; white-space: pre;">Immunodeficiency</text><g class="layers"><g class="legendfill"><path class="js-fill" d="M5,-2h30v6h-30z" style="stroke-width: 0; fill: rgb(171, 99, 250); fill-opacity: 0.5;"/></g><g class="legendlines"><path class="js-line" d="M5,-2h30" style="fill: none; stroke: rgb(171, 99, 250); stroke-opacity: 1; stroke-width: 2px;"/></g><g class="legendsymbols"><g class="legendpoints"/></g></g><rect class="legendtoggle" x="0" y="-9.5" width="265.34375" height="19" style="fill: rgb(0, 0, 0); fill-opacity: 0;"/></g></g><g class="groups" transform=""><g class="traces" transform="translate(0,108.7)" style="opacity: 1;"><text class="legendtext" text-anchor="start" x="40" y="4.680000000000001" style="font-family: 'Open Sans', verdana, arial, sans-serif; font-size: 12px; fill: rgb(242, 245, 250); fill-opacity: 1; white-space: pre;">QT syndrome</text><g class="layers"><g class="legendfill"><path class="js-fill" d="M5,-2h30v6h-30z" style="stroke-width: 0; fill: rgb(255, 161, 90); fill-opacity: 0.5;"/></g><g class="legendlines"><path class="js-line" d="M5,-2h30" style="fill: none; stroke: rgb(255, 161, 90); stroke-opacity: 1; stroke-width: 2px;"/></g><g class="legendsymbols"><g class="legendpoints"/></g></g><rect class="legendtoggle" x="0" y="-9.5" width="265.34375" height="19" style="fill: rgb(0, 0, 0); fill-opacity: 0;"/></g></g><g class="groups" transform=""><g class="traces" transform="translate(0,127.7)" style="opacity: 1;"><text class="legendtext" text-anchor="start" x="40" y="4.680000000000001" style="font-family: 'Open Sans', verdana, arial, sans-serif; font-size: 12px; fill: rgb(242, 245, 250); fill-opacity: 1; white-space: pre;">Diabetes</text><g class="layers"><g class="legendfill"><path class="js-fill" d="M5,-2h30v6h-30z" style="stroke-width: 0; fill: rgb(25, 211, 243); fill-opacity: 0.5;"/></g><g class="legendlines"><path class="js-line" d="M5,-2h30" style="fill: none; stroke: rgb(25, 211, 243); stroke-opacity: 1; stroke-width: 2px;"/></g><g class="legendsymbols"><g class="legendpoints"/></g></g><rect class="legendtoggle" x="0" y="-9.5" width="265.34375" height="19" style="fill: rgb(0, 0, 0); fill-opacity: 0;"/></g></g><g class="groups" transform=""><g class="traces" transform="translate(0,146.7)" style="opacity: 1;"><text class="legendtext" text-anchor="start" x="40" y="4.680000000000001" style="font-family: 'Open Sans', verdana, arial, sans-serif; font-size: 12px; fill: rgb(242, 245, 250); fill-opacity: 1; white-space: pre;">Obesity</text><g class="layers"><g class="legendfill"><path class="js-fill" d="M5,-2h30v6h-30z" style="stroke-width: 0; fill: rgb(255, 102, 146); fill-opacity: 0.5;"/></g><g class="legendlines"><path class="js-line" d="M5,-2h30" style="fill: none; stroke: rgb(255, 102, 146); stroke-opacity: 1; stroke-width: 2px;"/></g><g class="legendsymbols"><g class="legendpoints"/></g></g><rect class="legendtoggle" x="0" y="-9.5" width="265.34375" height="19" style="fill: rgb(0, 0, 0); fill-opacity: 0;"/></g></g><g class="groups" transform=""><g class="traces" transform="translate(0,165.7)" style="opacity: 1;"><text class="legendtext" text-anchor="start" x="40" y="4.680000000000001" style="font-family: 'Open Sans', verdana, arial, sans-serif; font-size: 12px; fill: rgb(242, 245, 250); fill-opacity: 1; white-space: pre;">Neurodegeneration</text><g class="layers"><g class="legendfill"><path class="js-fill" d="M5,-2h30v6h-30z" style="stroke-width: 0; fill: rgb(182, 232, 128); fill-opacity: 0.5;"/></g><g class="legendlines"><path class="js-line" d="M5,-2h30" style="fill: none; stroke: rgb(182, 232, 128); stroke-opacity: 1; stroke-width: 2px;"/></g><g class="legendsymbols"><g class="legendpoints"/></g></g><rect class="legendtoggle" x="0" y="-9.5" width="265.34375" height="19" style="fill: rgb(0, 0, 0); fill-opacity: 0;"/></g></g><g class="groups" transform=""><g class="traces" transform="translate(0,184.7)" style="opacity: 1;"><text class="legendtext" text-anchor="start" x="40" y="4.680000000000001" style="font-family: 'Open Sans', verdana, arial, sans-serif; font-size: 12px; fill: rgb(242, 245, 250); fill-opacity: 1; white-space: pre;">Epilepsy</text><g class="layers"><g class="legendfill"><path class="js-fill" d="M5,-2h30v6h-30z" style="stroke-width: 0; fill: rgb(255, 151, 255); fill-opacity: 0.5;"/></g><g class="legendlines"><path class="js-line" d="M5,-2h30" style="fill: none; stroke: rgb(255, 151, 255); stroke-opacity: 1; stroke-width: 2px;"/></g><g class="legendsymbols"><g class="legendpoints"/></g></g><rect class="legendtoggle" x="0" y="-9.5" width="265.34375" height="19" style="fill: rgb(0, 0, 0); fill-opacity: 0;"/></g></g><g class="groups" transform=""><g class="traces" transform="translate(0,203.7)" style="opacity: 1;"><text class="legendtext" text-anchor="start" x="40" y="4.680000000000001" style="font-family: 'Open Sans', verdana, arial, sans-serif; font-size: 12px; fill: rgb(242, 245, 250); fill-opacity: 1; white-space: pre;">Deafness</text><g class="layers"><g class="legendfill"><path class="js-fill" d="M5,-2h30v6h-30z" style="stroke-width: 0; fill: rgb(254, 203, 82); fill-opacity: 0.5;"/></g><g class="legendlines"><path class="js-line" d="M5,-2h30" style="fill: none; stroke: rgb(254, 203, 82); stroke-opacity: 1; stroke-width: 2px;"/></g><g class="legendsymbols"><g class="legendpoints"/></g></g><rect class="legendtoggle" x="0" y="-9.5" width="265.34375" height="19" style="fill: rgb(0, 0, 0); fill-opacity: 0;"/></g></g><g class="groups" transform=""><g class="traces" transform="translate(0,222.7)" style="opacity: 1;"><text class="legendtext" text-anchor="start" x="40" y="4.680000000000001" style="font-family: 'Open Sans', verdana, arial, sans-serif; font-size: 12px; fill: rgb(242, 245, 250); fill-opacity: 1; white-space: pre;">Agammaglobulinemia</text><g class="layers"><g class="legendfill"><path class="js-fill" d="M5,-2h30v6h-30z" style="stroke-width: 0; fill: rgb(99, 110, 250); fill-opacity: 0.5;"/></g><g class="legendlines"><path class="js-line" d="M5,-2h30" style="fill: none; stroke: rgb(99, 110, 250); stroke-opacity: 1; stroke-width: 2px;"/></g><g class="legendsymbols"><g class="legendpoints"/></g></g><rect class="legendtoggle" x="0" y="-9.5" width="265.34375" height="19" style="fill: rgb(0, 0, 0); fill-opacity: 0;"/></g></g><g class="groups" transform=""><g class="traces" transform="translate(0,241.7)" style="opacity: 1;"><text class="legendtext" text-anchor="start" x="40" y="4.680000000000001" style="font-family: 'Open Sans', verdana, arial, sans-serif; font-size: 12px; fill: rgb(242, 245, 250); fill-opacity: 1; white-space: pre;">Cowden syndrome</text><g class="layers"><g class="legendfill"><path class="js-fill" d="M5,-2h30v6h-30z" style="stroke-width: 0; fill: rgb(239, 85, 59); fill-opacity: 0.5;"/></g><g class="legendlines"><path class="js-line" d="M5,-2h30" style="fill: none; stroke: rgb(239, 85, 59); stroke-opacity: 1; stroke-width: 2px;"/></g><g class="legendsymbols"><g class="legendpoints"/></g></g><rect class="legendtoggle" x="0" y="-9.5" width="265.34375" height="19" style="fill: rgb(0, 0, 0); fill-opacity: 0;"/></g></g><g class="groups" transform=""><g class="traces" transform="translate(0,260.7)" style="opacity: 1;"><text class="legendtext" text-anchor="start" x="40" y="4.680000000000001" style="font-family: 'Open Sans', verdana, arial, sans-serif; font-size: 12px; fill: rgb(242, 245, 250); fill-opacity: 1; white-space: pre;">Ataxia</text><g class="layers"><g class="legendfill"><path class="js-fill" d="M5,-2h30v6h-30z" style="stroke-width: 0; fill: rgb(0, 204, 150); fill-opacity: 0.5;"/></g><g class="legendlines"><path class="js-line" d="M5,-2h30" style="fill: none; stroke: rgb(0, 204, 150); stroke-opacity: 1; stroke-width: 2px;"/></g><g class="legendsymbols"><g class="legendpoints"/></g></g><rect class="legendtoggle" x="0" y="-9.5" width="265.34375" height="19" style="fill: rgb(0, 0, 0); fill-opacity: 0;"/></g></g><g class="groups" transform=""><g class="traces" transform="translate(0,279.7)" style="opacity: 1;"><text class="legendtext" text-anchor="start" x="40" y="4.680000000000001" style="font-family: 'Open Sans', verdana, arial, sans-serif; font-size: 12px; fill: rgb(242, 245, 250); fill-opacity: 1; white-space: pre;">Cornelia de Lange syndrome</text><g class="layers"><g class="legendfill"><path class="js-fill" d="M5,-2h30v6h-30z" style="stroke-width: 0; fill: rgb(171, 99, 250); fill-opacity: 0.5;"/></g><g class="legendlines"><path class="js-line" d="M5,-2h30" style="fill: none; stroke: rgb(171, 99, 250); stroke-opacity: 1; stroke-width: 2px;"/></g><g class="legendsymbols"><g class="legendpoints"/></g></g><rect class="legendtoggle" x="0" y="-9.5" width="265.34375" height="19" style="fill: rgb(0, 0, 0); fill-opacity: 0;"/></g></g><g class="groups" transform=""><g class="traces" transform="translate(0,298.7)" style="opacity: 1;"><text class="legendtext" text-anchor="start" x="40" y="4.680000000000001" style="font-family: 'Open Sans', verdana, arial, sans-serif; font-size: 12px; fill: rgb(242, 245, 250); fill-opacity: 1; white-space: pre;">Inflammatory skin and bowel disease</text><g class="layers"><g class="legendfill"><path class="js-fill" d="M5,-2h30v6h-30z" style="stroke-width: 0; fill: rgb(255, 161, 90); fill-opacity: 0.5;"/></g><g class="legendlines"><path class="js-line" d="M5,-2h30" style="fill: none; stroke: rgb(255, 161, 90); stroke-opacity: 1; stroke-width: 2px;"/></g><g class="legendsymbols"><g class="legendpoints"/></g></g><rect class="legendtoggle" x="0" y="-9.5" width="265.34375" height="19" style="fill: rgb(0, 0, 0); fill-opacity: 0;"/></g></g><g class="groups" transform=""><g class="traces" transform="translate(0,317.7)" style="opacity: 1;"><text class="legendtext" text-anchor="start" x="40" y="4.680000000000001" style="font-family: 'Open Sans', verdana, arial, sans-serif; font-size: 12px; fill: rgb(242, 245, 250); fill-opacity: 1; white-space: pre;">AIDS</text><g class="layers"><g class="legendfill"><path class="js-fill" d="M5,-2h30v6h-30z" style="stroke-width: 0; fill: rgb(25, 211, 243); fill-opacity: 0.5;"/></g><g class="legendlines"><path class="js-line" d="M5,-2h30" style="fill: none; stroke: rgb(25, 211, 243); stroke-opacity: 1; stroke-width: 2px;"/></g><g class="legendsymbols"><g class="legendpoints"/></g></g><rect class="legendtoggle" x="0" y="-9.5" width="265.34375" height="19" style="fill: rgb(0, 0, 0); fill-opacity: 0;"/></g></g><g class="groups" transform=""><g class="traces" transform="translate(0,336.7)" style="opacity: 1;"><text class="legendtext" text-anchor="start" x="40" y="4.680000000000001" style="font-family: 'Open Sans', verdana, arial, sans-serif; font-size: 12px; fill: rgb(242, 245, 250); fill-opacity: 1; white-space: pre;">Osteopetrosis</text><g class="layers"><g class="legendfill"><path class="js-fill" d="M5,-2h30v6h-30z" style="stroke-width: 0; fill: rgb(255, 102, 146); fill-opacity: 0.5;"/></g><g class="legendlines"><path class="js-line" d="M5,-2h30" style="fill: none; stroke: rgb(255, 102, 146); stroke-opacity: 1; stroke-width: 2px;"/></g><g class="legendsymbols"><g class="legendpoints"/></g></g><rect class="legendtoggle" x="0" y="-9.5" width="265.34375" height="19" style="fill: rgb(0, 0, 0); fill-opacity: 0;"/></g></g><g class="groups" transform=""><g class="traces" transform="translate(0,355.7)" style="opacity: 1;"><text class="legendtext" text-anchor="start" x="40" y="4.680000000000001" style="font-family: 'Open Sans', verdana, arial, sans-serif; font-size: 12px; fill: rgb(242, 245, 250); fill-opacity: 1; white-space: pre;">Ischemic stroke</text><g class="layers"><g class="legendfill"><path class="js-fill" d="M5,-2h30v6h-30z" style="stroke-width: 0; fill: rgb(182, 232, 128); fill-opacity: 0.5;"/></g><g class="legendlines"><path class="js-line" d="M5,-2h30" style="fill: none; stroke: rgb(182, 232, 128); stroke-opacity: 1; stroke-width: 2px;"/></g><g class="legendsymbols"><g class="legendpoints"/></g></g><rect class="legendtoggle" x="0" y="-9.5" width="265.34375" height="19" style="fill: rgb(0, 0, 0); fill-opacity: 0;"/></g></g><g class="groups" transform=""><g class="traces" transform="translate(0,374.7)" style="opacity: 1;"><text class="legendtext" text-anchor="start" x="40" y="4.680000000000001" style="font-family: 'Open Sans', verdana, arial, sans-serif; font-size: 12px; fill: rgb(242, 245, 250); fill-opacity: 1; white-space: pre;">Thrombophilia</text><g class="layers"><g class="legendfill"><path class="js-fill" d="M5,-2h30v6h-30z" style="stroke-width: 0; fill: rgb(255, 151, 255); fill-opacity: 0.5;"/></g><g class="legendlines"><path class="js-line" d="M5,-2h30" style="fill: none; stroke: rgb(255, 151, 255); stroke-opacity: 1; stroke-width: 2px;"/></g><g class="legendsymbols"><g class="legendpoints"/></g></g><rect class="legendtoggle" x="0" y="-9.5" width="265.34375" height="19" style="fill: rgb(0, 0, 0); fill-opacity: 0;"/></g></g><g class="groups" transform=""><g class="traces" transform="translate(0,393.7)" style="opacity: 1;"><text class="legendtext" text-anchor="start" x="40" y="4.680000000000001" style="font-family: 'Open Sans', verdana, arial, sans-serif; font-size: 12px; fill: rgb(242, 245, 250); fill-opacity: 1; white-space: pre;">Lipodystrophy</text><g class="layers"><g class="legendfill"><path class="js-fill" d="M5,-2h30v6h-30z" style="stroke-width: 0; fill: rgb(254, 203, 82); fill-opacity: 0.5;"/></g><g class="legendlines"><path class="js-line" d="M5,-2h30" style="fill: none; stroke: rgb(254, 203, 82); stroke-opacity: 1; stroke-width: 2px;"/></g><g class="legendsymbols"><g class="legendpoints"/></g></g><rect class="legendtoggle" x="0" y="-9.5" width="265.34375" height="19" style="fill: rgb(0, 0, 0); fill-opacity: 0;"/></g></g><g class="groups" transform=""><g class="traces" transform="translate(0,412.7)" style="opacity: 1;"><text class="legendtext" text-anchor="start" x="40" y="4.680000000000001" style="font-family: 'Open Sans', verdana, arial, sans-serif; font-size: 12px; fill: rgb(242, 245, 250); fill-opacity: 1; white-space: pre;">Bleeding disorder</text><g class="layers"><g class="legendfill"><path class="js-fill" d="M5,-2h30v6h-30z" style="stroke-width: 0; fill: rgb(99, 110, 250); fill-opacity: 0.5;"/></g><g class="legendlines"><path class="js-line" d="M5,-2h30" style="fill: none; stroke: rgb(99, 110, 250); stroke-opacity: 1; stroke-width: 2px;"/></g><g class="legendsymbols"><g class="legendpoints"/></g></g><rect class="legendtoggle" x="0" y="-9.5" width="265.34375" height="19" style="fill: rgb(0, 0, 0); fill-opacity: 0;"/></g></g></g><rect class="scrollbar" rx="20" ry="3" width="0" height="0" x="0" y="0" style="fill: rgb(128, 139, 164); fill-opacity: 1;"/></g><g class="g-gtitle"><text class="gtitle" x="35" y="50" text-anchor="start" dy="0em" style="opacity: 1; font-family: 'Open Sans', verdana, arial, sans-serif; font-size: 17px; fill: rgb(242, 245, 250); fill-opacity: 1; white-space: pre;">Related disease classes across targets in BindingDB over time</text></g><g class="g-xtitle"><text class="xtitle" x="245" y="459.8" text-anchor="middle" style="opacity: 1; font-family: 'Open Sans', verdana, arial, sans-serif; font-size: 14px; fill: rgb(242, 245, 250); fill-opacity: 1; white-space: pre;">Publication Year</text></g><g class="g-ytitle"><text class="ytitle" transform="rotate(-90,37.240625,260)" x="37.240625" y="260" text-anchor="middle" style="opacity: 1; font-family: 'Open Sans', verdana, arial, sans-serif; font-size: 14px; fill: rgb(242, 245, 250); fill-opacity: 1; white-space: pre;">Occurences in Uniprot disease section</text></g></g></svg>