<svg class="main-svg" xmlns="http://www.w3.org/2000/svg" xmlns:xlink="http://www.w3.org/1999/xlink" width="700" height="500" style="" viewBox="0 0 700 500"><rect x="0" y="0" width="700" height="500" style="fill: rgb(34, 37, 41); fill-opacity: 1;"/><defs id="defs-856df7"><g class="clips"><clipPath id="clip856df7xyplot" class="plotclip"><rect width="330" height="320"/></clipPath><clipPath class="axesclip" id="clip856df7x"><rect x="80" y="0" width="330" height="500"/></clipPath><clipPath class="axesclip" id="clip856df7y"><rect x="0" y="100" width="700" height="320"/></clipPath><clipPath class="axesclip" id="clip856df7xy"><rect x="80" y="100" width="330" height="320"/></clipPath></g><g class="gradients"/><g class="patterns"/></defs><g class="bglayer"/><g class="layer-below"><g class="imagelayer"/><g class="shapelayer"/></g><g class="cartesianlayer"><g class="subplot xy"><g class="layer-subplot"><g class="shapelayer"/><g class="imagelayer"/></g><g class="minor-gridlayer"><g class="x"/><g class="y"/></g><g class="gridlayer"><g class="x"><path class="xgrid crisp" transform="translate(108.7,0)" d="M0,100v320" style="stroke: rgb(40, 52, 66); stroke-opacity: 1; stroke-width: 1px;"/><path class="xgrid crisp" transform="translate(180.43,0)" d="M0,100v320" style="stroke: rgb(40, 52, 66); stroke-opacity: 1; stroke-width: 1px;"/><path class="xgrid crisp" transform="translate(252.17,0)" d="M0,100v320" style="stroke: rgb(40, 52, 66); stroke-opacity: 1; stroke-width: 1px;"/><path class="xgrid crisp" transform="translate(323.90999999999997,0)" d="M0,100v320" style="stroke: rgb(40, 52, 66); stroke-opacity: 1; stroke-width: 1px;"/><path class="xgrid crisp" transform="translate(395.65,0)" d="M0,100v320" style="stroke: rgb(40, 52, 66); stroke-opacity: 1; stroke-width: 1px;"/></g><g class="y"><path class="ygrid crisp" transform="translate(0,353.59000000000003)" d="M80,0h330" style="stroke: rgb(40, 52, 66); stroke-opacity: 1; stroke-width: 1px;"/><path class="ygrid crisp" transform="translate(0,287.18)" d="M80,0h330" style="stroke: rgb(40, 52, 66); stroke-opacity: 1; stroke-width: 1px;"/><path class="ygrid crisp" transform="translate(0,220.76)" d="M80,0h330" style="stroke: rgb(40, 52, 66); stroke-opacity: 1; stroke-width: 1px;"/><path class="ygrid crisp" transform="translate(0,154.35)" d="M80,0h330" style="stroke: rgb(40, 52, 66); stroke-opacity: 1; stroke-width: 1px;"/></g></g><g class="zerolinelayer"><path class="yzl zl crisp" transform="translate(0,420)" d="M80,0h330" style="stroke: rgb(40, 52, 66); stroke-opacity: 1; stroke-width: 2px;"/></g><g class="layer-between"><g class="shapelayer"/><g class="imagelayer"/></g><path class="xlines-below"/><path class="ylines-below"/><g class="overlines-below"/><g class="xaxislayer-below"/><g class="yaxislayer-below"/><g class="overaxes-below"/><g class="overplot"><g class="xy" transform="translate(80,100)" clip-path="url(#clip856df7xyplot)"><g class="scatterlayer mlayer"><g class="trace scatter tracece1970" style="stroke-miterlimit: 2;"><g class="fills"><g><path class="js-fill" d="M330,320L0,320L0,320L107.61,319.26L114.78,318.49L121.96,317.82L129.13,315.76L136.3,316.65L143.48,315.14L150.65,314.91L157.83,310.93L165,314.63L172.17,313.12L179.35,312.48L186.52,308.38L193.7,305.29L200.87,304.94L208.04,295.89L215.22,291.01L222.39,280.96L229.57,251.13L236.74,266.84L243.91,256.64L251.09,174.62L258.26,251.85L265.43,270.5L272.61,279.58L279.78,267.34L286.96,252.55L294.13,277.25L301.3,265.37L308.48,255.98L315.65,282.84L322.83,266.92L330,313.7" style="fill: rgb(239, 85, 59); fill-opacity: 0.5; stroke-width: 0;"/></g><g><path class="js-fill" d="M0,320L100.43,319.92L107.61,318.49L121.96,317.47L129.13,315.49L136.3,316.47L143.48,315.13L150.65,314.59L157.83,310.31L165,313.27L172.17,312.31L179.35,310.84L186.52,306.94L193.7,302.27L200.87,302.06L215.22,285.5L222.39,274.45L229.57,240.56L236.74,257.94L243.91,248.24L251.09,158.05L258.26,233.52L265.43,257.13L272.61,266.22L279.78,251.38L286.96,234.78L294.13,255.81L301.3,245.17L308.48,227.65L315.65,258.63L322.83,249.03L330,311.32L330,313.7L322.83,266.92L315.65,282.84L308.48,255.98L301.3,265.37L294.13,277.25L286.96,252.55L279.78,267.34L272.61,279.58L265.43,270.5L258.26,251.85L251.09,174.62L243.91,256.64L236.74,266.84L229.57,251.13L222.39,280.96L215.22,291.01L208.04,295.89L200.87,304.94L193.7,305.29L186.52,308.38L179.35,312.48L172.17,313.12L165,314.63L157.83,310.93L150.65,314.91L143.48,315.14L136.3,316.65L129.13,315.76L121.96,317.82L114.78,318.49L107.61,319.26L0,320Z" style="fill: rgb(0, 204, 150); fill-opacity: 0.5; stroke-width: 0;"/></g></g><g class="errorbars"/><g class="lines"><path class="js-line" d="M0,320L107.61,319.26L114.78,318.49L121.96,317.82L129.13,315.76L136.3,316.65L143.48,315.14L150.65,314.91L157.83,310.93L165,314.63L172.17,313.12L179.35,312.48L186.52,308.38L193.7,305.29L200.87,304.94L208.04,295.89L215.22,291.01L222.39,280.96L229.57,251.13L236.74,266.84L243.91,256.64L251.09,174.62L258.26,251.85L265.43,270.5L272.61,279.58L279.78,267.34L286.96,252.55L294.13,277.25L301.3,265.37L308.48,255.98L315.65,282.84L322.83,266.92L330,313.7" style="vector-effect: none; fill: none; stroke: rgb(239, 85, 59); stroke-opacity: 1; stroke-width: 2px; opacity: 1;"/></g><g class="points"/><g class="text"/></g><g class="trace scatter tracecaa4f6" style="stroke-miterlimit: 2;"><g class="fills"><g><path class="js-fill" d="M0,320L57.39,320L64.57,319.12L78.91,319.45L86.09,319.82L93.26,319.16L100.43,319.76L107.61,318.09L114.78,317.42L121.96,317.28L129.13,314.65L136.3,315.58L143.48,314.53L150.65,313.68L157.83,307.05L165,309.55L172.17,307.22L179.35,302.34L186.52,303.46L193.7,295.07L200.87,296.66L208.04,287.05L215.22,281.43L222.39,264.92L229.57,228.17L236.74,242.73L243.91,236.8L251.09,129.38L258.26,223.03L265.43,248.32L272.61,257.55L279.78,242.66L286.96,221.68L294.13,241.1L301.3,234.29L308.48,215.79L315.65,246.72L322.83,236.59L330,309.54L330,311.32L322.83,249.03L315.65,258.63L308.48,227.65L301.3,245.17L294.13,255.81L286.96,234.78L279.78,251.38L272.61,266.22L265.43,257.13L258.26,233.52L251.09,158.05L243.91,248.24L236.74,257.94L229.57,240.56L222.39,274.45L215.22,285.5L200.87,302.06L193.7,302.27L186.52,306.94L179.35,310.84L172.17,312.31L165,313.27L157.83,310.31L150.65,314.59L143.48,315.13L136.3,316.47L129.13,315.49L121.96,317.47L107.61,318.49L100.43,319.92L0,320Z" style="fill: rgb(171, 99, 250); fill-opacity: 0.5; stroke-width: 0;"/></g></g><g class="errorbars"/><g class="lines"><path class="js-line" d="M0,320L100.43,319.92L107.61,318.49L121.96,317.47L129.13,315.49L136.3,316.47L143.48,315.13L150.65,314.59L157.83,310.31L165,313.27L172.17,312.31L179.35,310.84L186.52,306.94L193.7,302.27L200.87,302.06L215.22,285.5L222.39,274.45L229.57,240.56L236.74,257.94L243.91,248.24L251.09,158.05L258.26,233.52L265.43,257.13L272.61,266.22L279.78,251.38L286.96,234.78L294.13,255.81L301.3,245.17L308.48,227.65L315.65,258.63L322.83,249.03L330,311.32" style="vector-effect: none; fill: none; stroke: rgb(0, 204, 150); stroke-opacity: 1; stroke-width: 2px; opacity: 1;"/></g><g class="points"/><g class="text"/></g><g class="trace scatter trace2ac7dc" style="stroke-miterlimit: 2;"><g class="fills"><g><path class="js-fill" d="M0,320L57.39,320L64.57,319.12L71.74,319.64L78.91,319.35L86.09,319.69L93.26,319.16L100.43,319.44L107.61,318.09L121.96,317.26L129.13,314.65L136.3,315.34L143.48,314.53L150.65,313.54L157.83,307.05L165,309.49L172.17,307.19L179.35,301.32L186.52,302.69L193.7,293.45L200.87,294.96L208.04,285.16L215.22,277.89L222.39,260.44L229.57,217.67L236.74,227.43L243.91,223.94L251.09,109.45L258.26,202.32L265.43,240.19L272.61,247.26L279.78,230.07L286.96,204.95L294.13,230.69L301.3,223.42L308.48,204.4L315.65,236.45L322.83,226.78L330,308.16L330,309.54L322.83,236.59L315.65,246.72L308.48,215.79L301.3,234.29L294.13,241.1L286.96,221.68L279.78,242.66L272.61,257.55L265.43,248.32L258.26,223.03L251.09,129.38L243.91,236.8L236.74,242.73L229.57,228.17L222.39,264.92L215.22,281.43L208.04,287.05L200.87,296.66L193.7,295.07L186.52,303.46L179.35,302.34L172.17,307.22L165,309.55L157.83,307.05L150.65,313.68L143.48,314.53L136.3,315.58L129.13,314.65L121.96,317.28L114.78,317.42L107.61,318.09L100.43,319.76L93.26,319.16L86.09,319.82L78.91,319.45L64.57,319.12L57.39,320L0,320Z" style="fill: rgb(255, 161, 90); fill-opacity: 0.5; stroke-width: 0;"/></g></g><g class="errorbars"/><g class="lines"><path class="js-line" d="M0,320L57.39,320L64.57,319.12L78.91,319.45L86.09,319.82L93.26,319.16L100.43,319.76L107.61,318.09L114.78,317.42L121.96,317.28L129.13,314.65L136.3,315.58L143.48,314.53L150.65,313.68L157.83,307.05L165,309.55L172.17,307.22L179.35,302.34L186.52,303.46L193.7,295.07L200.87,296.66L208.04,287.05L215.22,281.43L222.39,264.92L229.57,228.17L236.74,242.73L243.91,236.8L251.09,129.38L258.26,223.03L265.43,248.32L272.61,257.55L279.78,242.66L286.96,221.68L294.13,241.1L301.3,234.29L308.48,215.79L315.65,246.72L322.83,236.59L330,309.54" style="vector-effect: none; fill: none; stroke: rgb(171, 99, 250); stroke-opacity: 1; stroke-width: 2px; opacity: 1;"/></g><g class="points"/><g class="text"/></g><g class="trace scatter trace4cf112" style="stroke-miterlimit: 2;"><g class="fills"><g><path class="js-fill" d="M0,320L57.39,319.97L64.57,319.09L71.74,319.64L78.91,319.35L93.26,319.16L100.43,319.38L114.78,317.36L121.96,316.74L129.13,313.45L136.3,314.99L150.65,310.98L157.83,304.28L165,307.08L172.17,304.71L179.35,298.82L186.52,297.67L193.7,287.97L200.87,288.96L208.04,279.51L215.22,271.9L222.39,249.68L229.57,204.53L236.74,215.64L243.91,214.53L251.09,97.34L258.26,191.27L265.43,232.73L272.61,239.16L279.78,222.82L286.96,193.14L294.13,221.11L301.3,217.33L308.48,193.36L315.65,229.81L322.83,215.93L330,308.03L330,308.16L322.83,226.78L315.65,236.45L308.48,204.4L301.3,223.42L294.13,230.69L286.96,204.95L279.78,230.07L272.61,247.26L265.43,240.19L258.26,202.32L251.09,109.45L243.91,223.94L236.74,227.43L229.57,217.67L222.39,260.44L215.22,277.89L208.04,285.16L200.87,294.96L193.7,293.45L186.52,302.69L179.35,301.32L172.17,307.19L165,309.49L157.83,307.05L150.65,313.54L143.48,314.53L136.3,315.34L129.13,314.65L121.96,317.26L107.61,318.09L100.43,319.44L93.26,319.16L86.09,319.69L78.91,319.35L71.74,319.64L64.57,319.12L57.39,320L0,320Z" style="fill: rgb(25, 211, 243); fill-opacity: 0.5; stroke-width: 0;"/></g></g><g class="errorbars"/><g class="lines"><path class="js-line" d="M0,320L57.39,320L64.57,319.12L71.74,319.64L78.91,319.35L86.09,319.69L93.26,319.16L100.43,319.44L107.61,318.09L121.96,317.26L129.13,314.65L136.3,315.34L143.48,314.53L150.65,313.54L157.83,307.05L165,309.49L172.17,307.19L179.35,301.32L186.52,302.69L193.7,293.45L200.87,294.96L208.04,285.16L215.22,277.89L222.39,260.44L229.57,217.67L236.74,227.43L243.91,223.94L251.09,109.45L258.26,202.32L265.43,240.19L272.61,247.26L279.78,230.07L286.96,204.95L294.13,230.69L301.3,223.42L308.48,204.4L315.65,236.45L322.83,226.78L330,308.16" style="vector-effect: none; fill: none; stroke: rgb(255, 161, 90); stroke-opacity: 1; stroke-width: 2px; opacity: 1;"/></g><g class="points"/><g class="text"/></g><g class="trace scatter trace57d0ac" style="stroke-miterlimit: 2;"><g class="fills"><g><path class="js-fill" d="M0,320L57.39,319.97L64.57,316.04L71.74,318.82L78.91,319.23L86.09,319.5L93.26,318.8L121.96,316.66L129.13,313.21L136.3,314.55L143.48,311.63L150.65,309.99L157.83,299.13L165,299.23L172.17,301.43L179.35,297.06L186.52,291.36L193.7,282.71L200.87,277.39L208.04,268.23L215.22,265.99L222.39,244.66L229.57,196.47L236.74,208.16L243.91,203.91L251.09,86.91L258.26,183.31L265.43,227.32L272.61,233.55L279.78,218.68L286.96,184.89L294.13,213.36L301.3,210.93L308.48,181.45L315.65,222.75L322.83,210.79L330,307.62L330,308.03L322.83,215.93L315.65,229.81L308.48,193.36L301.3,217.33L294.13,221.11L286.96,193.14L279.78,222.82L272.61,239.16L265.43,232.73L258.26,191.27L251.09,97.34L243.91,214.53L236.74,215.64L229.57,204.53L222.39,249.68L215.22,271.9L208.04,279.51L200.87,288.96L193.7,287.97L186.52,297.67L179.35,298.82L172.17,304.71L165,307.08L157.83,304.28L150.65,310.98L136.3,314.99L129.13,313.45L121.96,316.74L114.78,317.36L100.43,319.38L93.26,319.16L78.91,319.35L71.74,319.64L64.57,319.09L57.39,319.97L0,320Z" style="fill: rgb(255, 102, 146); fill-opacity: 0.5; stroke-width: 0;"/></g></g><g class="errorbars"/><g class="lines"><path class="js-line" d="M0,320L57.39,319.97L64.57,319.09L71.74,319.64L78.91,319.35L93.26,319.16L100.43,319.38L114.78,317.36L121.96,316.74L129.13,313.45L136.3,314.99L150.65,310.98L157.83,304.28L165,307.08L172.17,304.71L179.35,298.82L186.52,297.67L193.7,287.97L200.87,288.96L208.04,279.51L215.22,271.9L222.39,249.68L229.57,204.53L236.74,215.64L243.91,214.53L251.09,97.34L258.26,191.27L265.43,232.73L272.61,239.16L279.78,222.82L286.96,193.14L294.13,221.11L301.3,217.33L308.48,193.36L315.65,229.81L322.83,215.93L330,308.03" style="vector-effect: none; fill: none; stroke: rgb(25, 211, 243); stroke-opacity: 1; stroke-width: 2px; opacity: 1;"/></g><g class="points"/><g class="text"/></g><g class="trace scatter trace042b92" style="stroke-miterlimit: 2;"><g class="fills"><g><path class="js-fill" d="M0,320L57.39,319.97L64.57,316.04L71.74,318.82L78.91,319.23L86.09,319.5L93.26,318.8L121.96,316.64L129.13,313.11L136.3,314.49L143.48,311.13L150.65,309.1L157.83,295.88L172.17,299.95L179.35,295.04L186.52,289.44L193.7,277.03L200.87,272.73L208.04,259.94L215.22,256.67L222.39,230.7L229.57,183.65L236.74,198.21L243.91,192L251.09,78.48L258.26,172.29L265.43,221.75L272.61,229.6L279.78,211.95L286.96,178.87L294.13,206.78L301.3,204.7L308.48,172.97L315.65,217.29L322.83,205.29L330,306.33L330,307.62L322.83,210.79L315.65,222.75L308.48,181.45L301.3,210.93L294.13,213.36L286.96,184.89L279.78,218.68L272.61,233.55L265.43,227.32L258.26,183.31L251.09,86.91L243.91,203.91L236.74,208.16L229.57,196.47L222.39,244.66L215.22,265.99L208.04,268.23L200.87,277.39L193.7,282.71L186.52,291.36L179.35,297.06L172.17,301.43L165,299.23L157.83,299.13L150.65,309.99L143.48,311.63L136.3,314.55L129.13,313.21L121.96,316.66L93.26,318.8L86.09,319.5L78.91,319.23L71.74,318.82L64.57,316.04L57.39,319.97L0,320Z" style="fill: rgb(182, 232, 128); fill-opacity: 0.5; stroke-width: 0;"/></g></g><g class="errorbars"/><g class="lines"><path class="js-line" d="M0,320L57.39,319.97L64.57,316.04L71.74,318.82L78.91,319.23L86.09,319.5L93.26,318.8L121.96,316.66L129.13,313.21L136.3,314.55L143.48,311.63L150.65,309.99L157.83,299.13L165,299.23L172.17,301.43L179.35,297.06L186.52,291.36L193.7,282.71L200.87,277.39L208.04,268.23L215.22,265.99L222.39,244.66L229.57,196.47L236.74,208.16L243.91,203.91L251.09,86.91L258.26,183.31L265.43,227.32L272.61,233.55L279.78,218.68L286.96,184.89L294.13,213.36L301.3,210.93L308.48,181.45L315.65,222.75L322.83,210.79L330,307.62" style="vector-effect: none; fill: none; stroke: rgb(255, 102, 146); stroke-opacity: 1; stroke-width: 2px; opacity: 1;"/></g><g class="points"/><g class="text"/></g><g class="trace scatter tracef32930" style="stroke-miterlimit: 2;"><g class="fills"><g><path class="js-fill" d="M0,320L57.39,319.97L64.57,315.76L71.74,318.51L78.91,319.23L86.09,319.41L93.26,318.5L107.61,317.69L114.78,316.96L121.96,315.57L129.13,312.63L136.3,314.1L143.48,311.03L150.65,308.43L157.83,294.68L165,297.28L172.17,298.18L179.35,290.98L186.52,287.33L193.7,272.36L200.87,265.25L208.04,256.14L215.22,250.24L222.39,226.45L229.57,172.93L236.74,180.87L243.91,181.45L251.09,67.06L258.26,162.47L265.43,214.74L272.61,222.58L279.78,208.42L286.96,169.5L294.13,201.57L301.3,201.36L308.48,169.11L315.65,214.9L322.83,202.28L330,305.55L330,306.33L322.83,205.29L315.65,217.29L308.48,172.97L301.3,204.7L294.13,206.78L286.96,178.87L279.78,211.95L272.61,229.6L265.43,221.75L258.26,172.29L251.09,78.48L243.91,192L236.74,198.21L229.57,183.65L222.39,230.7L215.22,256.67L208.04,259.94L200.87,272.73L193.7,277.03L186.52,289.44L179.35,295.04L172.17,299.95L157.83,295.88L150.65,309.1L143.48,311.13L136.3,314.49L129.13,313.11L121.96,316.64L93.26,318.8L86.09,319.5L78.91,319.23L71.74,318.82L64.57,316.04L57.39,319.97L0,320Z" style="fill: rgb(255, 151, 255); fill-opacity: 0.5; stroke-width: 0;"/></g></g><g class="errorbars"/><g class="lines"><path class="js-line" d="M0,320L57.39,319.97L64.57,316.04L71.74,318.82L78.91,319.23L86.09,319.5L93.26,318.8L121.96,316.64L129.13,313.11L136.3,314.49L143.48,311.13L150.65,309.1L157.83,295.88L172.17,299.95L179.35,295.04L186.52,289.44L193.7,277.03L200.87,272.73L208.04,259.94L215.22,256.67L222.39,230.7L229.57,183.65L236.74,198.21L243.91,192L251.09,78.48L258.26,172.29L265.43,221.75L272.61,229.6L279.78,211.95L286.96,178.87L294.13,206.78L301.3,204.7L308.48,172.97L315.65,217.29L322.83,205.29L330,306.33" style="vector-effect: none; fill: none; stroke: rgb(182, 232, 128); stroke-opacity: 1; stroke-width: 2px; opacity: 1;"/></g><g class="points"/><g class="text"/></g><g class="trace scatter traceb29032" style="stroke-miterlimit: 2;"><g class="fills"><g><path class="js-fill" d="M0,320L57.39,319.97L64.57,315.76L71.74,318.51L78.91,319.23L86.09,319.41L93.26,318.03L100.43,318.36L107.61,317.18L121.96,314.71L129.13,310.6L136.3,312.82L143.48,309.18L150.65,306.74L157.83,293.72L172.17,296.94L179.35,288.74L186.52,285.46L193.7,270.05L200.87,263.22L208.04,253.59L215.22,247.06L222.39,223.76L229.57,166.83L236.74,177.72L243.91,176.1L251.09,58.24L258.26,158.89L265.43,211.87L272.61,220.1L279.78,204.85L286.96,163.59L294.13,192.68L301.3,196.08L308.48,162.33L315.65,211.6L322.83,199.5L330,304.75L330,305.55L322.83,202.28L315.65,214.9L308.48,169.11L301.3,201.36L294.13,201.57L286.96,169.5L279.78,208.42L272.61,222.58L265.43,214.74L258.26,162.47L251.09,67.06L243.91,181.45L236.74,180.87L229.57,172.93L222.39,226.45L215.22,250.24L208.04,256.14L200.87,265.25L193.7,272.36L186.52,287.33L179.35,290.98L172.17,298.18L165,297.28L157.83,294.68L150.65,308.43L143.48,311.03L136.3,314.1L129.13,312.63L121.96,315.57L114.78,316.96L107.61,317.69L93.26,318.5L86.09,319.41L78.91,319.23L71.74,318.51L64.57,315.76L57.39,319.97L0,320Z" style="fill: rgb(254, 203, 82); fill-opacity: 0.5; stroke-width: 0;"/></g></g><g class="errorbars"/><g class="lines"><path class="js-line" d="M0,320L57.39,319.97L64.57,315.76L71.74,318.51L78.91,319.23L86.09,319.41L93.26,318.5L107.61,317.69L114.78,316.96L121.96,315.57L129.13,312.63L136.3,314.1L143.48,311.03L150.65,308.43L157.83,294.68L165,297.28L172.17,298.18L179.35,290.98L186.52,287.33L193.7,272.36L200.87,265.25L208.04,256.14L215.22,250.24L222.39,226.45L229.57,172.93L236.74,180.87L243.91,181.45L251.09,67.06L258.26,162.47L265.43,214.74L272.61,222.58L279.78,208.42L286.96,169.5L294.13,201.57L301.3,201.36L308.48,169.11L315.65,214.9L322.83,202.28L330,305.55" style="vector-effect: none; fill: none; stroke: rgb(255, 151, 255); stroke-opacity: 1; stroke-width: 2px; opacity: 1;"/></g><g class="points"/><g class="text"/></g><g class="trace scatter trace310f5b" style="stroke-miterlimit: 2;"><g class="fills"><g><path class="js-fill" d="M0,320L57.39,319.97L64.57,315.76L71.74,318.51L78.91,319.13L86.09,319.41L93.26,317.93L100.43,318.36L107.61,316.98L121.96,314.61L129.13,310.09L136.3,312.77L143.48,308.46L150.65,306.74L157.83,293.65L165,293.12L172.17,294.23L179.35,287.55L186.52,282.87L193.7,268.13L200.87,260.04L208.04,250.39L215.22,245.33L222.39,222.99L229.57,164.98L236.74,174.1L243.91,172.91L251.09,53.39L258.26,154.4L265.43,204.8L272.61,213.64L279.78,199.12L286.96,157.74L294.13,186.24L301.3,191.88L308.48,157.81L315.65,206.12L322.83,195.77L330,304.19L330,304.75L322.83,199.5L315.65,211.6L308.48,162.33L301.3,196.08L294.13,192.68L286.96,163.59L279.78,204.85L272.61,220.1L265.43,211.87L258.26,158.89L251.09,58.24L243.91,176.1L236.74,177.72L229.57,166.83L222.39,223.76L215.22,247.06L208.04,253.59L200.87,263.22L193.7,270.05L186.52,285.46L179.35,288.74L172.17,296.94L157.83,293.72L150.65,306.74L143.48,309.18L136.3,312.82L129.13,310.6L121.96,314.71L107.61,317.18L100.43,318.36L93.26,318.03L86.09,319.41L78.91,319.23L71.74,318.51L64.57,315.76L57.39,319.97L0,320Z" style="fill: rgb(99, 110, 250); fill-opacity: 0.5; stroke-width: 0;"/></g></g><g class="errorbars"/><g class="lines"><path class="js-line" d="M0,320L57.39,319.97L64.57,315.76L71.74,318.51L78.91,319.23L86.09,319.41L93.26,318.03L100.43,318.36L107.61,317.18L121.96,314.71L129.13,310.6L136.3,312.82L143.48,309.18L150.65,306.74L157.83,293.72L172.17,296.94L179.35,288.74L186.52,285.46L193.7,270.05L200.87,263.22L208.04,253.59L215.22,247.06L222.39,223.76L229.57,166.83L236.74,177.72L243.91,176.1L251.09,58.24L258.26,158.89L265.43,211.87L272.61,220.1L279.78,204.85L286.96,163.59L294.13,192.68L301.3,196.08L308.48,162.33L315.65,211.6L322.83,199.5L330,304.75" style="vector-effect: none; fill: none; stroke: rgb(254, 203, 82); stroke-opacity: 1; stroke-width: 2px; opacity: 1;"/></g><g class="points"/><g class="text"/></g><g class="trace scatter trace3d946a" style="stroke-miterlimit: 2;"><g class="fills"><g><path class="js-fill" d="M0,320L57.39,319.97L64.57,315.76L71.74,318.51L78.91,319.13L86.09,319.41L93.26,317.93L100.43,318.16L107.61,315.54L114.78,313.92L121.96,309.77L129.13,305.91L136.3,306.36L143.48,300.15L150.65,303.9L157.83,288.01L165,289.42L172.17,290.74L179.35,285.03L186.52,280.45L193.7,265.66L208.04,248.26L215.22,243.28L222.39,221.97L229.57,163.81L236.74,172.21L243.91,172.88L251.09,52.23L258.26,153.69L265.43,203.68L272.61,213.62L279.78,199.03L286.96,157.22L294.13,185.91L301.3,190.74L308.48,156.92L315.65,205.05L322.83,195.33L330,304.19L330,304.19L322.83,195.77L315.65,206.12L308.48,157.81L301.3,191.88L294.13,186.24L286.96,157.74L279.78,199.12L272.61,213.64L265.43,204.8L258.26,154.4L251.09,53.39L243.91,172.91L236.74,174.1L229.57,164.98L222.39,222.99L215.22,245.33L208.04,250.39L200.87,260.04L193.7,268.13L186.52,282.87L179.35,287.55L172.17,294.23L165,293.12L157.83,293.65L150.65,306.74L143.48,308.46L136.3,312.77L129.13,310.09L121.96,314.61L107.61,316.98L100.43,318.36L93.26,317.93L86.09,319.41L78.91,319.13L71.74,318.51L64.57,315.76L57.39,319.97L0,320Z" style="fill: rgb(239, 85, 59); fill-opacity: 0.5; stroke-width: 0;"/></g></g><g class="errorbars"/><g class="lines"><path class="js-line" d="M0,320L57.39,319.97L64.57,315.76L71.74,318.51L78.91,319.13L86.09,319.41L93.26,317.93L100.43,318.36L107.61,316.98L121.96,314.61L129.13,310.09L136.3,312.77L143.48,308.46L150.65,306.74L157.83,293.65L165,293.12L172.17,294.23L179.35,287.55L186.52,282.87L193.7,268.13L200.87,260.04L208.04,250.39L215.22,245.33L222.39,222.99L229.57,164.98L236.74,174.1L243.91,172.91L251.09,53.39L258.26,154.4L265.43,204.8L272.61,213.64L279.78,199.12L286.96,157.74L294.13,186.24L301.3,191.88L308.48,157.81L315.65,206.12L322.83,195.77L330,304.19" style="vector-effect: none; fill: none; stroke: rgb(99, 110, 250); stroke-opacity: 1; stroke-width: 2px; opacity: 1;"/></g><g class="points"/><g class="text"/></g><g class="trace scatter trace51985f" style="stroke-miterlimit: 2;"><g class="fills"><g><path class="js-fill" d="M0,320L57.39,319.97L64.57,315.76L71.74,318.51L78.91,319.13L86.09,319.41L93.26,317.93L100.43,318.16L107.61,315.54L114.78,313.92L121.96,309.77L129.13,305.91L136.3,306.36L143.48,300.15L150.65,303.9L157.83,288.01L165,289.42L172.17,290.73L179.35,284.99L186.52,280.45L193.7,265.64L208.04,248.22L215.22,243.06L222.39,221.81L229.57,162.82L236.74,171.65L243.91,172.7L251.09,50.57L258.26,152.2L265.43,203.18L272.61,212.39L279.78,193.21L286.96,152.76L294.13,176.74L301.3,181.69L308.48,146.23L315.65,196.75L322.83,185.77L330,303.71L330,304.19L322.83,195.33L315.65,205.05L308.48,156.92L301.3,190.74L294.13,185.91L286.96,157.22L279.78,199.03L272.61,213.62L265.43,203.68L258.26,153.69L251.09,52.23L243.91,172.88L236.74,172.21L229.57,163.81L222.39,221.97L215.22,243.28L208.04,248.26L193.7,265.66L186.52,280.45L179.35,285.03L172.17,290.74L165,289.42L157.83,288.01L150.65,303.9L143.48,300.15L136.3,306.36L129.13,305.91L121.96,309.77L114.78,313.92L107.61,315.54L100.43,318.16L93.26,317.93L86.09,319.41L78.91,319.13L71.74,318.51L64.57,315.76L57.39,319.97L0,320Z" style="fill: rgb(0, 204, 150); fill-opacity: 0.5; stroke-width: 0;"/></g></g><g class="errorbars"/><g class="lines"><path class="js-line" d="M0,320L57.39,319.97L64.57,315.76L71.74,318.51L78.91,319.13L86.09,319.41L93.26,317.93L100.43,318.16L107.61,315.54L114.78,313.92L121.96,309.77L129.13,305.91L136.3,306.36L143.48,300.15L150.65,303.9L157.83,288.01L165,289.42L172.17,290.74L179.35,285.03L186.52,280.45L193.7,265.66L208.04,248.26L215.22,243.28L222.39,221.97L229.57,163.81L236.74,172.21L243.91,172.88L251.09,52.23L258.26,153.69L265.43,203.68L272.61,213.62L279.78,199.03L286.96,157.22L294.13,185.91L301.3,190.74L308.48,156.92L315.65,205.05L322.83,195.33L330,304.19" style="vector-effect: none; fill: none; stroke: rgb(239, 85, 59); stroke-opacity: 1; stroke-width: 2px; opacity: 1;"/></g><g class="points"/><g class="text"/></g><g class="trace scatter trace23fcd3" style="stroke-miterlimit: 2;"><g class="fills"><g><path class="js-fill" d="M0,320L57.39,319.97L64.57,315.76L71.74,318.51L78.91,319.13L86.09,319.41L93.26,317.93L100.43,318.16L107.61,315.54L114.78,313.87L121.96,309.77L129.13,305.91L136.3,306.36L143.48,300.06L150.65,303.88L157.83,287.98L165,289.4L172.17,290.73L179.35,284.94L186.52,280.2L193.7,265.58L200.87,254.48L208.04,247.74L215.22,242.62L222.39,221.16L229.57,159.56L236.74,167.62L243.91,171.12L251.09,39.32L258.26,148.3L265.43,200.03L272.61,208.91L279.78,190.11L286.96,146.29L294.13,174.29L301.3,176.84L308.48,143.03L315.65,192.84L322.83,181.62L330,303.49L330,303.71L322.83,185.77L315.65,196.75L308.48,146.23L301.3,181.69L294.13,176.74L286.96,152.76L279.78,193.21L272.61,212.39L265.43,203.18L258.26,152.2L251.09,50.57L243.91,172.7L236.74,171.65L229.57,162.82L222.39,221.81L215.22,243.06L208.04,248.22L193.7,265.64L186.52,280.45L179.35,284.99L172.17,290.73L165,289.42L157.83,288.01L150.65,303.9L143.48,300.15L136.3,306.36L129.13,305.91L121.96,309.77L114.78,313.92L107.61,315.54L100.43,318.16L93.26,317.93L86.09,319.41L78.91,319.13L71.74,318.51L64.57,315.76L57.39,319.97L0,320Z" style="fill: rgb(171, 99, 250); fill-opacity: 0.5; stroke-width: 0;"/></g></g><g class="errorbars"/><g class="lines"><path class="js-line" d="M0,320L57.39,319.97L64.57,315.76L71.74,318.51L78.91,319.13L86.09,319.41L93.26,317.93L100.43,318.16L107.61,315.54L114.78,313.92L121.96,309.77L129.13,305.91L136.3,306.36L143.48,300.15L150.65,303.9L157.83,288.01L165,289.42L172.17,290.73L179.35,284.99L186.52,280.45L193.7,265.64L208.04,248.22L215.22,243.06L222.39,221.81L229.57,162.82L236.74,171.65L243.91,172.7L251.09,50.57L258.26,152.2L265.43,203.18L272.61,212.39L279.78,193.21L286.96,152.76L294.13,176.74L301.3,181.69L308.48,146.23L315.65,196.75L322.83,185.77L330,303.71" style="vector-effect: none; fill: none; stroke: rgb(0, 204, 150); stroke-opacity: 1; stroke-width: 2px; opacity: 1;"/></g><g class="points"/><g class="text"/></g><g class="trace scatter traceda8375" style="stroke-miterlimit: 2;"><g class="fills"><g><path class="js-fill" d="M0,319.9L21.52,319.99L35.87,319.38L57.39,319.97L64.57,315.49L71.74,318.21L78.91,319.13L86.09,319.38L93.26,317.74L100.43,318.16L107.61,315.5L114.78,313.56L121.96,308.4L129.13,304.9L136.3,305.25L143.48,298.73L150.65,301.74L157.83,283.91L165,285.27L172.17,286.71L179.35,282.86L186.52,276.29L193.7,259.55L200.87,251.16L208.04,246.41L215.22,240.74L222.39,218.69L229.57,156.75L236.74,165.51L243.91,169.96L251.09,36.14L258.26,146.13L265.43,199.35L272.61,207.7L279.78,188.27L286.96,144.95L294.13,172.83L301.3,175.6L308.48,142.16L315.65,192.16L322.83,181.48L330,303.38L330,303.49L322.83,181.62L315.65,192.84L308.48,143.03L301.3,176.84L294.13,174.29L286.96,146.29L279.78,190.11L272.61,208.91L265.43,200.03L258.26,148.3L251.09,39.32L243.91,171.12L236.74,167.62L229.57,159.56L222.39,221.16L215.22,242.62L208.04,247.74L200.87,254.48L193.7,265.58L186.52,280.2L179.35,284.94L172.17,290.73L165,289.4L157.83,287.98L150.65,303.88L143.48,300.06L136.3,306.36L129.13,305.91L121.96,309.77L114.78,313.87L107.61,315.54L100.43,318.16L93.26,317.93L86.09,319.41L78.91,319.13L71.74,318.51L64.57,315.76L57.39,319.97L0,320Z" style="fill: rgb(255, 161, 90); fill-opacity: 0.5; stroke-width: 0;"/></g></g><g class="errorbars"/><g class="lines"><path class="js-line" d="M0,320L57.39,319.97L64.57,315.76L71.74,318.51L78.91,319.13L86.09,319.41L93.26,317.93L100.43,318.16L107.61,315.54L114.78,313.87L121.96,309.77L129.13,305.91L136.3,306.36L143.48,300.06L150.65,303.88L157.83,287.98L165,289.4L172.17,290.73L179.35,284.94L186.52,280.2L193.7,265.58L200.87,254.48L208.04,247.74L215.22,242.62L222.39,221.16L229.57,159.56L236.74,167.62L243.91,171.12L251.09,39.32L258.26,148.3L265.43,200.03L272.61,208.91L279.78,190.11L286.96,146.29L294.13,174.29L301.3,176.84L308.48,143.03L315.65,192.84L322.83,181.62L330,303.49" style="vector-effect: none; fill: none; stroke: rgb(171, 99, 250); stroke-opacity: 1; stroke-width: 2px; opacity: 1;"/></g><g class="points"/><g class="text"/></g><g class="trace scatter tracec79edd" style="stroke-miterlimit: 2;"><g class="fills"><g><path class="js-fill" d="M0,319.9L21.52,319.99L35.87,319.38L57.39,319.97L64.57,315.49L71.74,318.21L78.91,319.13L86.09,319.38L93.26,317.74L100.43,318.16L107.61,315.45L114.78,313.54L121.96,308.38L129.13,304.22L136.3,304.82L143.48,296.59L150.65,300.89L157.83,282.98L165,285.09L172.17,285.01L179.35,282.35L186.52,276.01L193.7,259.17L200.87,250.73L208.04,244.68L215.22,240.05L222.39,215.62L229.57,155.01L236.74,163.33L243.91,167.49L251.09,34.69L258.26,142.43L265.43,195.18L272.61,205.89L279.78,183.34L286.96,135.64L294.13,169.31L301.3,172.09L308.48,138.26L315.65,189.99L322.83,179.63L330,303.36L330,303.38L322.83,181.48L315.65,192.16L308.48,142.16L301.3,175.6L294.13,172.83L286.96,144.95L279.78,188.27L272.61,207.7L265.43,199.35L258.26,146.13L251.09,36.14L243.91,169.96L236.74,165.51L229.57,156.75L222.39,218.69L215.22,240.74L208.04,246.41L200.87,251.16L193.7,259.55L186.52,276.29L179.35,282.86L172.17,286.71L165,285.27L157.83,283.91L150.65,301.74L143.48,298.73L136.3,305.25L129.13,304.9L121.96,308.4L114.78,313.56L107.61,315.5L100.43,318.16L93.26,317.74L86.09,319.38L78.91,319.13L71.74,318.21L64.57,315.49L57.39,319.97L35.87,319.38L21.52,319.99L0,319.9Z" style="fill: rgb(25, 211, 243); fill-opacity: 0.5; stroke-width: 0;"/></g></g><g class="errorbars"/><g class="lines"><path class="js-line" d="M0,319.9L21.52,319.99L35.87,319.38L57.39,319.97L64.57,315.49L71.74,318.21L78.91,319.13L86.09,319.38L93.26,317.74L100.43,318.16L107.61,315.5L114.78,313.56L121.96,308.4L129.13,304.9L136.3,305.25L143.48,298.73L150.65,301.74L157.83,283.91L165,285.27L172.17,286.71L179.35,282.86L186.52,276.29L193.7,259.55L200.87,251.16L208.04,246.41L215.22,240.74L222.39,218.69L229.57,156.75L236.74,165.51L243.91,169.96L251.09,36.14L258.26,146.13L265.43,199.35L272.61,207.7L279.78,188.27L286.96,144.95L294.13,172.83L301.3,175.6L308.48,142.16L315.65,192.16L322.83,181.48L330,303.38" style="vector-effect: none; fill: none; stroke: rgb(255, 161, 90); stroke-opacity: 1; stroke-width: 2px; opacity: 1;"/></g><g class="points"/><g class="text"/></g><g class="trace scatter trace9fd3c8" style="stroke-miterlimit: 2;"><g class="fills"><g><path class="js-fill" d="M0,319.9L21.52,319.99L35.87,319.38L57.39,319.81L64.57,315.48L71.74,318.18L78.91,319.01L86.09,319.21L93.26,317.68L100.43,318.16L107.61,315.43L114.78,313.54L121.96,308.38L129.13,304.03L136.3,304.52L143.48,296.32L150.65,300.57L157.83,280.19L165,284.73L172.17,284.2L179.35,281.56L186.52,274.88L193.7,255.78L200.87,246.97L208.04,241.49L215.22,236.33L222.39,210.83L229.57,150.94L236.74,159.87L243.91,164.68L251.09,31.63L258.26,137.73L265.43,193.88L272.61,204.95L279.78,180.51L286.96,134.72L294.13,167.7L301.3,170.12L308.48,136.19L315.65,188.41L322.83,178.15L330,302.93L330,303.36L322.83,179.63L315.65,189.99L308.48,138.26L301.3,172.09L294.13,169.31L286.96,135.64L279.78,183.34L272.61,205.89L265.43,195.18L258.26,142.43L251.09,34.69L243.91,167.49L236.74,163.33L229.57,155.01L222.39,215.62L215.22,240.05L208.04,244.68L200.87,250.73L193.7,259.17L186.52,276.01L179.35,282.35L172.17,285.01L165,285.09L157.83,282.98L150.65,300.89L143.48,296.59L136.3,304.82L129.13,304.22L121.96,308.38L114.78,313.54L107.61,315.45L100.43,318.16L93.26,317.74L86.09,319.38L78.91,319.13L71.74,318.21L64.57,315.49L57.39,319.97L35.87,319.38L21.52,319.99L0,319.9Z" style="fill: rgb(255, 102, 146); fill-opacity: 0.5; stroke-width: 0;"/></g></g><g class="errorbars"/><g class="lines"><path class="js-line" d="M0,319.9L21.52,319.99L35.87,319.38L57.39,319.97L64.57,315.49L71.74,318.21L78.91,319.13L86.09,319.38L93.26,317.74L100.43,318.16L107.61,315.45L114.78,313.54L121.96,308.38L129.13,304.22L136.3,304.82L143.48,296.59L150.65,300.89L157.83,282.98L165,285.09L172.17,285.01L179.35,282.35L186.52,276.01L193.7,259.17L200.87,250.73L208.04,244.68L215.22,240.05L222.39,215.62L229.57,155.01L236.74,163.33L243.91,167.49L251.09,34.69L258.26,142.43L265.43,195.18L272.61,205.89L279.78,183.34L286.96,135.64L294.13,169.31L301.3,172.09L308.48,138.26L315.65,189.99L322.83,179.63L330,303.36" style="vector-effect: none; fill: none; stroke: rgb(25, 211, 243); stroke-opacity: 1; stroke-width: 2px; opacity: 1;"/></g><g class="points"/><g class="text"/></g><g class="trace scatter traced0d69d" style="stroke-miterlimit: 2;"><g class="fills"><g><path class="js-fill" d="M0,319.9L21.52,319.99L35.87,319.38L57.39,319.81L64.57,315.48L71.74,318.18L78.91,319.01L86.09,319.21L93.26,317.62L100.43,318.1L107.61,314.77L114.78,310.3L121.96,307.18L129.13,302.1L136.3,303.34L143.48,294.73L150.65,297.48L157.83,277.86L165,281L172.17,281.96L179.35,279.48L186.52,273.07L193.7,254.11L200.87,243.44L208.04,240.18L215.22,234.18L222.39,208.76L229.57,149.57L236.74,155.92L243.91,161.17L251.09,29.16L258.26,136.12L265.43,191.35L272.61,202.62L279.78,180.42L286.96,133.6L294.13,167.05L301.3,169.44L308.48,135.31L315.65,187.54L322.83,178.08L330,302.93L330,302.93L322.83,178.15L315.65,188.41L308.48,136.19L301.3,170.12L294.13,167.7L286.96,134.72L279.78,180.51L272.61,204.95L265.43,193.88L258.26,137.73L251.09,31.63L243.91,164.68L236.74,159.87L229.57,150.94L222.39,210.83L215.22,236.33L208.04,241.49L200.87,246.97L193.7,255.78L186.52,274.88L179.35,281.56L172.17,284.2L165,284.73L157.83,280.19L150.65,300.57L143.48,296.32L136.3,304.52L129.13,304.03L121.96,308.38L114.78,313.54L107.61,315.43L100.43,318.16L93.26,317.68L86.09,319.21L78.91,319.01L71.74,318.18L64.57,315.48L57.39,319.81L35.87,319.38L21.52,319.99L0,319.9Z" style="fill: rgb(182, 232, 128); fill-opacity: 0.5; stroke-width: 0;"/></g></g><g class="errorbars"/><g class="lines"><path class="js-line" d="M0,319.9L21.52,319.99L35.87,319.38L57.39,319.81L64.57,315.48L71.74,318.18L78.91,319.01L86.09,319.21L93.26,317.68L100.43,318.16L107.61,315.43L114.78,313.54L121.96,308.38L129.13,304.03L136.3,304.52L143.48,296.32L150.65,300.57L157.83,280.19L165,284.73L172.17,284.2L179.35,281.56L186.52,274.88L193.7,255.78L200.87,246.97L208.04,241.49L215.22,236.33L222.39,210.83L229.57,150.94L236.74,159.87L243.91,164.68L251.09,31.63L258.26,137.73L265.43,193.88L272.61,204.95L279.78,180.51L286.96,134.72L294.13,167.7L301.3,170.12L308.48,136.19L315.65,188.41L322.83,178.15L330,302.93" style="vector-effect: none; fill: none; stroke: rgb(255, 102, 146); stroke-opacity: 1; stroke-width: 2px; opacity: 1;"/></g><g class="points"/><g class="text"/></g><g class="trace scatter tracefcdd67" style="stroke-miterlimit: 2;"><g class="fills"><g><path class="js-fill" d="M0,319.9L21.52,319.99L35.87,319.38L57.39,319.81L64.57,315.48L71.74,318.18L78.91,319.01L86.09,319.21L93.26,317.62L100.43,318.1L107.61,314.77L114.78,310.3L121.96,307.18L129.13,302.1L136.3,303.34L143.48,294.73L150.65,297.48L157.83,277.86L165,281L172.17,281.96L179.35,279.48L186.52,273.07L193.7,254.11L200.87,243.32L208.04,240.18L215.22,234.16L222.39,208.55L229.57,148.94L236.74,155.38L243.91,160.04L251.09,27.37L258.26,134.81L265.43,189.02L272.61,200.96L279.78,176.05L286.96,129.49L294.13,159.01L301.3,161.73L308.48,129.64L315.65,178.42L322.83,171L330,301.96L330,302.93L322.83,178.08L315.65,187.54L308.48,135.31L301.3,169.44L294.13,167.05L286.96,133.6L279.78,180.42L272.61,202.62L265.43,191.35L258.26,136.12L251.09,29.16L243.91,161.17L236.74,155.92L229.57,149.57L222.39,208.76L215.22,234.18L208.04,240.18L200.87,243.44L193.7,254.11L186.52,273.07L179.35,279.48L172.17,281.96L165,281L157.83,277.86L150.65,297.48L143.48,294.73L136.3,303.34L129.13,302.1L121.96,307.18L114.78,310.3L107.61,314.77L100.43,318.1L93.26,317.62L86.09,319.21L78.91,319.01L71.74,318.18L64.57,315.48L57.39,319.81L35.87,319.38L21.52,319.99L0,319.9Z" style="fill: rgb(255, 151, 255); fill-opacity: 0.5; stroke-width: 0;"/></g></g><g class="errorbars"/><g class="lines"><path class="js-line" d="M0,319.9L21.52,319.99L35.87,319.38L57.39,319.81L64.57,315.48L71.74,318.18L78.91,319.01L86.09,319.21L93.26,317.62L100.43,318.1L107.61,314.77L114.78,310.3L121.96,307.18L129.13,302.1L136.3,303.34L143.48,294.73L150.65,297.48L157.83,277.86L165,281L172.17,281.96L179.35,279.48L186.52,273.07L193.7,254.11L200.87,243.44L208.04,240.18L215.22,234.18L222.39,208.76L229.57,149.57L236.74,155.92L243.91,161.17L251.09,29.16L258.26,136.12L265.43,191.35L272.61,202.62L279.78,180.42L286.96,133.6L294.13,167.05L301.3,169.44L308.48,135.31L315.65,187.54L322.83,178.08L330,302.93" style="vector-effect: none; fill: none; stroke: rgb(182, 232, 128); stroke-opacity: 1; stroke-width: 2px; opacity: 1;"/></g><g class="points"/><g class="text"/></g><g class="trace scatter tracecdbb87" style="stroke-miterlimit: 2;"><g class="fills"><g><path class="js-fill" d="M0,319.8L21.52,319.99L35.87,319.38L57.39,319.81L64.57,315.48L71.74,318.18L78.91,319.01L86.09,319.21L93.26,317.62L100.43,318.1L107.61,314.77L114.78,310.13L121.96,306.92L129.13,301.56L136.3,303.05L143.48,293.77L150.65,295.71L157.83,273.73L165,276.95L172.17,278.05L179.35,277.44L186.52,268.91L193.7,248.15L200.87,238.63L208.04,238.67L215.22,231.98L222.39,205.97L229.57,147.07L236.74,154L243.91,158.49L251.09,26.25L258.26,133.41L265.43,188.22L272.61,200.15L279.78,173.99L286.96,127.24L294.13,158.31L301.3,160.61L308.48,129.11L315.65,177.47L322.83,170.85L330,301.92L330,301.96L322.83,171L315.65,178.42L308.48,129.64L301.3,161.73L294.13,159.01L286.96,129.49L279.78,176.05L272.61,200.96L265.43,189.02L258.26,134.81L251.09,27.37L243.91,160.04L236.74,155.38L229.57,148.94L222.39,208.55L215.22,234.16L208.04,240.18L200.87,243.32L193.7,254.11L186.52,273.07L179.35,279.48L172.17,281.96L165,281L157.83,277.86L150.65,297.48L143.48,294.73L136.3,303.34L129.13,302.1L121.96,307.18L114.78,310.3L107.61,314.77L100.43,318.1L93.26,317.62L86.09,319.21L78.91,319.01L71.74,318.18L64.57,315.48L57.39,319.81L35.87,319.38L21.52,319.99L0,319.9Z" style="fill: rgb(254, 203, 82); fill-opacity: 0.5; stroke-width: 0;"/></g></g><g class="errorbars"/><g class="lines"><path class="js-line" d="M0,319.9L21.52,319.99L35.87,319.38L57.39,319.81L64.57,315.48L71.74,318.18L78.91,319.01L86.09,319.21L93.26,317.62L100.43,318.1L107.61,314.77L114.78,310.3L121.96,307.18L129.13,302.1L136.3,303.34L143.48,294.73L150.65,297.48L157.83,277.86L165,281L172.17,281.96L179.35,279.48L186.52,273.07L193.7,254.11L200.87,243.32L208.04,240.18L215.22,234.16L222.39,208.55L229.57,148.94L236.74,155.38L243.91,160.04L251.09,27.37L258.26,134.81L265.43,189.02L272.61,200.96L279.78,176.05L286.96,129.49L294.13,159.01L301.3,161.73L308.48,129.64L315.65,178.42L322.83,171L330,301.96" style="vector-effect: none; fill: none; stroke: rgb(255, 151, 255); stroke-opacity: 1; stroke-width: 2px; opacity: 1;"/></g><g class="points"/><g class="text"/></g><g class="trace scatter trace565b6d" style="stroke-miterlimit: 2;"><g class="fills"><g><path class="js-fill" d="M0,319.8L21.52,319.99L35.87,319.38L57.39,319.81L64.57,315.48L71.74,318.18L78.91,319.01L86.09,319.21L93.26,317.62L100.43,318.1L107.61,314.77L114.78,310.13L121.96,306.92L129.13,301.56L136.3,303.05L143.48,293.77L150.65,295.71L157.83,273.73L165,276.95L172.17,278L179.35,277.39L186.52,268.91L193.7,248.12L200.87,238.43L208.04,238.37L215.22,230.2L222.39,204.64L229.57,143.9L236.74,150.37L243.91,152.76L251.09,16L258.26,127.11L265.43,184.98L272.61,197.64L279.78,170.51L286.96,124.61L294.13,157.16L301.3,158.36L308.48,125.7L315.65,176.48L322.83,168.49L330,301.58L330,301.92L322.83,170.85L315.65,177.47L308.48,129.11L301.3,160.61L294.13,158.31L286.96,127.24L279.78,173.99L272.61,200.15L265.43,188.22L258.26,133.41L251.09,26.25L243.91,158.49L236.74,154L229.57,147.07L222.39,205.97L215.22,231.98L208.04,238.67L200.87,238.63L193.7,248.15L186.52,268.91L179.35,277.44L172.17,278.05L165,276.95L157.83,273.73L150.65,295.71L143.48,293.77L136.3,303.05L129.13,301.56L121.96,306.92L114.78,310.13L107.61,314.77L100.43,318.1L93.26,317.62L86.09,319.21L78.91,319.01L71.74,318.18L64.57,315.48L57.39,319.81L35.87,319.38L21.52,319.99L0,319.8Z" style="fill: rgb(99, 110, 250); fill-opacity: 0.5; stroke-width: 0;"/></g></g><g class="errorbars"/><g class="lines"><path class="js-line" d="M0,319.8L21.52,319.99L35.87,319.38L57.39,319.81L64.57,315.48L71.74,318.18L78.91,319.01L86.09,319.21L93.26,317.62L100.43,318.1L107.61,314.77L114.78,310.13L121.96,306.92L129.13,301.56L136.3,303.05L143.48,293.77L150.65,295.71L157.83,273.73L165,276.95L172.17,278.05L179.35,277.44L186.52,268.91L193.7,248.15L200.87,238.63L208.04,238.67L215.22,231.98L222.39,205.97L229.57,147.07L236.74,154L243.91,158.49L251.09,26.25L258.26,133.41L265.43,188.22L272.61,200.15L279.78,173.99L286.96,127.24L294.13,158.31L301.3,160.61L308.48,129.11L315.65,177.47L322.83,170.85L330,301.92" style="vector-effect: none; fill: none; stroke: rgb(254, 203, 82); stroke-opacity: 1; stroke-width: 2px; opacity: 1;"/></g><g class="points"/><g class="text"/></g><g class="trace scatter tracec7ac41" style="stroke-miterlimit: 2;"><g class="fills"/><g class="errorbars"/><g class="lines"><path class="js-line" d="M0,319.8L21.52,319.99L35.87,319.38L57.39,319.81L64.57,315.48L71.74,318.18L78.91,319.01L86.09,319.21L93.26,317.62L100.43,318.1L107.61,314.77L114.78,310.13L121.96,306.92L129.13,301.56L136.3,303.05L143.48,293.77L150.65,295.71L157.83,273.73L165,276.95L172.17,278L179.35,277.39L186.52,268.91L193.7,248.12L200.87,238.43L208.04,238.37L215.22,230.2L222.39,204.64L229.57,143.9L236.74,150.37L243.91,152.76L251.09,16L258.26,127.11L265.43,184.98L272.61,197.64L279.78,170.51L286.96,124.61L294.13,157.16L301.3,158.36L308.48,125.7L315.65,176.48L322.83,168.49L330,301.58" style="vector-effect: none; fill: none; stroke: rgb(99, 110, 250); stroke-opacity: 1; stroke-width: 2px; opacity: 1;"/></g><g class="points"/><g class="text"/></g></g></g></g><path class="xlines-above crisp" d="M0,0" style="fill: none;"/><path class="ylines-above crisp" d="M0,0" style="fill: none;"/><g class="overlines-above"/><g class="xaxislayer-above"><g class="xtick"><text text-anchor="middle" x="0" y="433" transform="translate(108.7,0)" style="font-family: 'Open Sans', verdana, arial, sans-serif; font-size: 12px; fill: rgb(242, 245, 250); fill-opacity: 1; white-space: pre; opacity: 1;">1980</text></g><g class="xtick"><text text-anchor="middle" x="0" y="433" style="font-family: 'Open Sans', verdana, arial, sans-serif; font-size: 12px; fill: rgb(242, 245, 250); fill-opacity: 1; white-space: pre; opacity: 1;" transform="translate(180.43,0)">1990</text></g><g class="xtick"><text text-anchor="middle" x="0" y="433" style="font-family: 'Open Sans', verdana, arial, sans-serif; font-size: 12px; fill: rgb(242, 245, 250); fill-opacity: 1; white-space: pre; opacity: 1;" transform="translate(252.17,0)">2000</text></g><g class="xtick"><text text-anchor="middle" x="0" y="433" style="font-family: 'Open Sans', verdana, arial, sans-serif; font-size: 12px; fill: rgb(242, 245, 250); fill-opacity: 1; white-space: pre; opacity: 1;" transform="translate(323.90999999999997,0)">2010</text></g><g class="xtick"><text text-anchor="middle" x="0" y="433" style="font-family: 'Open Sans', verdana, arial, sans-serif; font-size: 12px; fill: rgb(242, 245, 250); fill-opacity: 1; white-space: pre; opacity: 1;" transform="translate(395.65,0)">2020</text></g></g><g class="yaxislayer-above"><g class="ytick"><text text-anchor="end" x="79" y="4.199999999999999" transform="translate(0,420)" style="font-family: 'Open Sans', verdana, arial, sans-serif; font-size: 12px; fill: rgb(242, 245, 250); fill-opacity: 1; white-space: pre; opacity: 1;">0</text></g><g class="ytick"><text text-anchor="end" x="79" y="4.199999999999999" style="font-family: 'Open Sans', verdana, arial, sans-serif; font-size: 12px; fill: rgb(242, 245, 250); fill-opacity: 1; white-space: pre; opacity: 1;" transform="translate(0,353.59000000000003)">10k</text></g><g class="ytick"><text text-anchor="end" x="79" y="4.199999999999999" style="font-family: 'Open Sans', verdana, arial, sans-serif; font-size: 12px; fill: rgb(242, 245, 250); fill-opacity: 1; white-space: pre; opacity: 1;" transform="translate(0,287.18)">20k</text></g><g class="ytick"><text text-anchor="end" x="79" y="4.199999999999999" style="font-family: 'Open Sans', verdana, arial, sans-serif; font-size: 12px; fill: rgb(242, 245, 250); fill-opacity: 1; white-space: pre; opacity: 1;" transform="translate(0,220.76)">30k</text></g><g class="ytick"><text text-anchor="end" x="79" y="4.199999999999999" style="font-family: 'Open Sans', verdana, arial, sans-serif; font-size: 12px; fill: rgb(242, 245, 250); fill-opacity: 1; white-space: pre; opacity: 1;" transform="translate(0,154.35)">40k</text></g></g><g class="overaxes-above"/></g></g><g class="polarlayer"/><g class="smithlayer"/><g class="ternarylayer"/><g class="geolayer"/><g class="funnelarealayer"/><g class="pielayer"/><g class="iciclelayer"/><g class="treemaplayer"/><g class="sunburstlayer"/><g class="glimages"/><defs id="topdefs-856df7"><g class="clips"/><clipPath id="legend856df7"><rect width="271" height="320" x="0" y="0"/></clipPath></defs><g class="layer-above"><g class="imagelayer"/><g class="shapelayer"/></g><g class="infolayer"><g class="legend" pointer-events="all" transform="translate(416.6,100)"><rect class="bg" shape-rendering="crispEdges" style="stroke: rgb(68, 68, 68); stroke-opacity: 1; fill: rgb(34, 37, 41); fill-opacity: 1; stroke-width: 0px;" width="271" height="320" x="0" y="0"/><g class="scrollbox" transform="" clip-path="url(#legend856df7)"><text class="legendtitletext" text-anchor="start" x="2" y="18.2" style="font-family: 'Open Sans', verdana, arial, sans-serif; font-size: 14px; fill: rgb(242, 245, 250); fill-opacity: 1; white-space: pre;">Disease Classes</text><g class="groups" transform=""><g class="traces" transform="translate(0,32.7)" style="opacity: 0.5;"><text class="legendtext" text-anchor="start" x="40" y="4.680000000000001" style="font-family: 'Open Sans', verdana, arial, sans-serif; font-size: 12px; fill: rgb(242, 245, 250); fill-opacity: 1; white-space: pre;">Other Diseases</text><g class="layers"><g class="legendfill"><path class="js-fill" d="M5,-2h30v6h-30z" style="stroke-width: 0; fill: rgb(99, 110, 250); fill-opacity: 0.5;"/></g><g class="legendlines"><path class="js-line" d="M5,-2h30" style="fill: none; stroke: rgb(99, 110, 250); stroke-opacity: 1; stroke-width: 2px;"/></g><g class="legendsymbols"><g class="legendpoints"/></g></g><rect class="legendtoggle" x="0" y="-9.5" width="265.34375" height="19" style="fill: rgb(0, 0, 0); fill-opacity: 0;"/></g></g><g class="groups" transform=""><g class="traces" transform="translate(0,51.7)" style="opacity: 1;"><text class="legendtext" text-anchor="start" x="40" y="4.680000000000001" style="font-family: 'Open Sans', verdana, arial, sans-serif; font-size: 12px; fill: rgb(242, 245, 250); fill-opacity: 1; white-space: pre;">Cancer</text><g class="layers"><g class="legendfill"><path class="js-fill" d="M5,-2h30v6h-30z" style="stroke-width: 0; fill: rgb(239, 85, 59); fill-opacity: 0.5;"/></g><g class="legendlines"><path class="js-line" d="M5,-2h30" style="fill: none; stroke: rgb(239, 85, 59); stroke-opacity: 1; stroke-width: 2px;"/></g><g class="legendsymbols"><g class="legendpoints"/></g></g><rect class="legendtoggle" x="0" y="-9.5" width="265.34375" height="19" style="fill: rgb(0, 0, 0); fill-opacity: 0;"/></g></g><g class="groups" transform=""><g class="traces" transform="translate(0,70.7)" style="opacity: 1;"><text class="legendtext" text-anchor="start" x="40" y="4.680000000000001" style="font-family: 'Open Sans', verdana, arial, sans-serif; font-size: 12px; fill: rgb(242, 245, 250); fill-opacity: 1; white-space: pre;">Immunodeficiency</text><g class="layers"><g class="legendfill"><path class="js-fill" d="M5,-2h30v6h-30z" style="stroke-width: 0; fill: rgb(0, 204, 150); fill-opacity: 0.5;"/></g><g class="legendlines"><path class="js-line" d="M5,-2h30" style="fill: none; stroke: rgb(0, 204, 150); stroke-opacity: 1; stroke-width: 2px;"/></g><g class="legendsymbols"><g class="legendpoints"/></g></g><rect class="legendtoggle" x="0" y="-9.5" width="265.34375" height="19" style="fill: rgb(0, 0, 0); fill-opacity: 0;"/></g></g><g class="groups" transform=""><g class="traces" transform="translate(0,89.7)" style="opacity: 1;"><text class="legendtext" text-anchor="start" x="40" y="4.680000000000001" style="font-family: 'Open Sans', verdana, arial, sans-serif; font-size: 12px; fill: rgb(242, 245, 250); fill-opacity: 1; white-space: pre;">Dysplasia</text><g class="layers"><g class="legendfill"><path class="js-fill" d="M5,-2h30v6h-30z" style="stroke-width: 0; fill: rgb(171, 99, 250); fill-opacity: 0.5;"/></g><g class="legendlines"><path class="js-line" d="M5,-2h30" style="fill: none; stroke: rgb(171, 99, 250); stroke-opacity: 1; stroke-width: 2px;"/></g><g class="legendsymbols"><g class="legendpoints"/></g></g><rect class="legendtoggle" x="0" y="-9.5" width="265.34375" height="19" style="fill: rgb(0, 0, 0); fill-opacity: 0;"/></g></g><g class="groups" transform=""><g class="traces" transform="translate(0,108.7)" style="opacity: 1;"><text class="legendtext" text-anchor="start" x="40" y="4.680000000000001" style="font-family: 'Open Sans', verdana, arial, sans-serif; font-size: 12px; fill: rgb(242, 245, 250); fill-opacity: 1; white-space: pre;">QT syndrome</text><g class="layers"><g class="legendfill"><path class="js-fill" d="M5,-2h30v6h-30z" style="stroke-width: 0; fill: rgb(255, 161, 90); fill-opacity: 0.5;"/></g><g class="legendlines"><path class="js-line" d="M5,-2h30" style="fill: none; stroke: rgb(255, 161, 90); stroke-opacity: 1; stroke-width: 2px;"/></g><g class="legendsymbols"><g class="legendpoints"/></g></g><rect class="legendtoggle" x="0" y="-9.5" width="265.34375" height="19" style="fill: rgb(0, 0, 0); fill-opacity: 0;"/></g></g><g class="groups" transform=""><g class="traces" transform="translate(0,127.7)" style="opacity: 1;"><text class="legendtext" text-anchor="start" x="40" y="4.680000000000001" style="font-family: 'Open Sans', verdana, arial, sans-serif; font-size: 12px; fill: rgb(242, 245, 250); fill-opacity: 1; white-space: pre;">Neurodegeneration</text><g class="layers"><g class="legendfill"><path class="js-fill" d="M5,-2h30v6h-30z" style="stroke-width: 0; fill: rgb(25, 211, 243); fill-opacity: 0.5;"/></g><g class="legendlines"><path class="js-line" d="M5,-2h30" style="fill: none; stroke: rgb(25, 211, 243); stroke-opacity: 1; stroke-width: 2px;"/></g><g class="legendsymbols"><g class="legendpoints"/></g></g><rect class="legendtoggle" x="0" y="-9.5" width="265.34375" height="19" style="fill: rgb(0, 0, 0); fill-opacity: 0;"/></g></g><g class="groups" transform=""><g class="traces" transform="translate(0,146.7)" style="opacity: 1;"><text class="legendtext" text-anchor="start" x="40" y="4.680000000000001" style="font-family: 'Open Sans', verdana, arial, sans-serif; font-size: 12px; fill: rgb(242, 245, 250); fill-opacity: 1; white-space: pre;">Epilepsy</text><g class="layers"><g class="legendfill"><path class="js-fill" d="M5,-2h30v6h-30z" style="stroke-width: 0; fill: rgb(255, 102, 146); fill-opacity: 0.5;"/></g><g class="legendlines"><path class="js-line" d="M5,-2h30" style="fill: none; stroke: rgb(255, 102, 146); stroke-opacity: 1; stroke-width: 2px;"/></g><g class="legendsymbols"><g class="legendpoints"/></g></g><rect class="legendtoggle" x="0" y="-9.5" width="265.34375" height="19" style="fill: rgb(0, 0, 0); fill-opacity: 0;"/></g></g><g class="groups" transform=""><g class="traces" transform="translate(0,165.7)" style="opacity: 1;"><text class="legendtext" text-anchor="start" x="40" y="4.680000000000001" style="font-family: 'Open Sans', verdana, arial, sans-serif; font-size: 12px; fill: rgb(242, 245, 250); fill-opacity: 1; white-space: pre;">Obesity</text><g class="layers"><g class="legendfill"><path class="js-fill" d="M5,-2h30v6h-30z" style="stroke-width: 0; fill: rgb(182, 232, 128); fill-opacity: 0.5;"/></g><g class="legendlines"><path class="js-line" d="M5,-2h30" style="fill: none; stroke: rgb(182, 232, 128); stroke-opacity: 1; stroke-width: 2px;"/></g><g class="legendsymbols"><g class="legendpoints"/></g></g><rect class="legendtoggle" x="0" y="-9.5" width="265.34375" height="19" style="fill: rgb(0, 0, 0); fill-opacity: 0;"/></g></g><g class="groups" transform=""><g class="traces" transform="translate(0,184.7)" style="opacity: 1;"><text class="legendtext" text-anchor="start" x="40" y="4.680000000000001" style="font-family: 'Open Sans', verdana, arial, sans-serif; font-size: 12px; fill: rgb(242, 245, 250); fill-opacity: 1; white-space: pre;">Diabetes</text><g class="layers"><g class="legendfill"><path class="js-fill" d="M5,-2h30v6h-30z" style="stroke-width: 0; fill: rgb(255, 151, 255); fill-opacity: 0.5;"/></g><g class="legendlines"><path class="js-line" d="M5,-2h30" style="fill: none; stroke: rgb(255, 151, 255); stroke-opacity: 1; stroke-width: 2px;"/></g><g class="legendsymbols"><g class="legendpoints"/></g></g><rect class="legendtoggle" x="0" y="-9.5" width="265.34375" height="19" style="fill: rgb(0, 0, 0); fill-opacity: 0;"/></g></g><g class="groups" transform=""><g class="traces" transform="translate(0,203.7)" style="opacity: 1;"><text class="legendtext" text-anchor="start" x="40" y="4.680000000000001" style="font-family: 'Open Sans', verdana, arial, sans-serif; font-size: 12px; fill: rgb(242, 245, 250); fill-opacity: 1; white-space: pre;">Inflammatory skin and bowel disease</text><g class="layers"><g class="legendfill"><path class="js-fill" d="M5,-2h30v6h-30z" style="stroke-width: 0; fill: rgb(254, 203, 82); fill-opacity: 0.5;"/></g><g class="legendlines"><path class="js-line" d="M5,-2h30" style="fill: none; stroke: rgb(254, 203, 82); stroke-opacity: 1; stroke-width: 2px;"/></g><g class="legendsymbols"><g class="legendpoints"/></g></g><rect class="legendtoggle" x="0" y="-9.5" width="265.34375" height="19" style="fill: rgb(0, 0, 0); fill-opacity: 0;"/></g></g><g class="groups" transform=""><g class="traces" transform="translate(0,222.7)" style="opacity: 1;"><text class="legendtext" text-anchor="start" x="40" y="4.680000000000001" style="font-family: 'Open Sans', verdana, arial, sans-serif; font-size: 12px; fill: rgb(242, 245, 250); fill-opacity: 1; white-space: pre;">Osteopetrosis</text><g class="layers"><g class="legendfill"><path class="js-fill" d="M5,-2h30v6h-30z" style="stroke-width: 0; fill: rgb(99, 110, 250); fill-opacity: 0.5;"/></g><g class="legendlines"><path class="js-line" d="M5,-2h30" style="fill: none; stroke: rgb(99, 110, 250); stroke-opacity: 1; stroke-width: 2px;"/></g><g class="legendsymbols"><g class="legendpoints"/></g></g><rect class="legendtoggle" x="0" y="-9.5" width="265.34375" height="19" style="fill: rgb(0, 0, 0); fill-opacity: 0;"/></g></g><g class="groups" transform=""><g class="traces" transform="translate(0,241.7)" style="opacity: 1;"><text class="legendtext" text-anchor="start" x="40" y="4.680000000000001" style="font-family: 'Open Sans', verdana, arial, sans-serif; font-size: 12px; fill: rgb(242, 245, 250); fill-opacity: 1; white-space: pre;">AIDS</text><g class="layers"><g class="legendfill"><path class="js-fill" d="M5,-2h30v6h-30z" style="stroke-width: 0; fill: rgb(239, 85, 59); fill-opacity: 0.5;"/></g><g class="legendlines"><path class="js-line" d="M5,-2h30" style="fill: none; stroke: rgb(239, 85, 59); stroke-opacity: 1; stroke-width: 2px;"/></g><g class="legendsymbols"><g class="legendpoints"/></g></g><rect class="legendtoggle" x="0" y="-9.5" width="265.34375" height="19" style="fill: rgb(0, 0, 0); fill-opacity: 0;"/></g></g><g class="groups" transform=""><g class="traces" transform="translate(0,260.7)" style="opacity: 1;"><text class="legendtext" text-anchor="start" x="40" y="4.680000000000001" style="font-family: 'Open Sans', verdana, arial, sans-serif; font-size: 12px; fill: rgb(242, 245, 250); fill-opacity: 1; white-space: pre;">Agammaglobulinemia</text><g class="layers"><g class="legendfill"><path class="js-fill" d="M5,-2h30v6h-30z" style="stroke-width: 0; fill: rgb(0, 204, 150); fill-opacity: 0.5;"/></g><g class="legendlines"><path class="js-line" d="M5,-2h30" style="fill: none; stroke: rgb(0, 204, 150); stroke-opacity: 1; stroke-width: 2px;"/></g><g class="legendsymbols"><g class="legendpoints"/></g></g><rect class="legendtoggle" x="0" y="-9.5" width="265.34375" height="19" style="fill: rgb(0, 0, 0); fill-opacity: 0;"/></g></g><g class="groups" transform=""><g class="traces" transform="translate(0,279.7)" style="opacity: 1;"><text class="legendtext" text-anchor="start" x="40" y="4.680000000000001" style="font-family: 'Open Sans', verdana, arial, sans-serif; font-size: 12px; fill: rgb(242, 245, 250); fill-opacity: 1; white-space: pre;">Deafness</text><g class="layers"><g class="legendfill"><path class="js-fill" d="M5,-2h30v6h-30z" style="stroke-width: 0; fill: rgb(171, 99, 250); fill-opacity: 0.5;"/></g><g class="legendlines"><path class="js-line" d="M5,-2h30" style="fill: none; stroke: rgb(171, 99, 250); stroke-opacity: 1; stroke-width: 2px;"/></g><g class="legendsymbols"><g class="legendpoints"/></g></g><rect class="legendtoggle" x="0" y="-9.5" width="265.34375" height="19" style="fill: rgb(0, 0, 0); fill-opacity: 0;"/></g></g><g class="groups" transform=""><g class="traces" transform="translate(0,298.7)" style="opacity: 1;"><text class="legendtext" text-anchor="start" x="40" y="4.680000000000001" style="font-family: 'Open Sans', verdana, arial, sans-serif; font-size: 12px; fill: rgb(242, 245, 250); fill-opacity: 1; white-space: pre;">Ischemic stroke</text><g class="layers"><g class="legendfill"><path class="js-fill" d="M5,-2h30v6h-30z" style="stroke-width: 0; fill: rgb(255, 161, 90); fill-opacity: 0.5;"/></g><g class="legendlines"><path class="js-line" d="M5,-2h30" style="fill: none; stroke: rgb(255, 161, 90); stroke-opacity: 1; stroke-width: 2px;"/></g><g class="legendsymbols"><g class="legendpoints"/></g></g><rect class="legendtoggle" x="0" y="-9.5" width="265.34375" height="19" style="fill: rgb(0, 0, 0); fill-opacity: 0;"/></g></g><g class="groups" transform=""><g class="traces" transform="translate(0,317.7)" style="opacity: 1;"><text class="legendtext" text-anchor="start" x="40" y="4.680000000000001" style="font-family: 'Open Sans', verdana, arial, sans-serif; font-size: 12px; fill: rgb(242, 245, 250); fill-opacity: 1; white-space: pre;">Ataxia</text><g class="layers"><g class="legendfill"><path class="js-fill" d="M5,-2h30v6h-30z" style="stroke-width: 0; fill: rgb(25, 211, 243); fill-opacity: 0.5;"/></g><g class="legendlines"><path class="js-line" d="M5,-2h30" style="fill: none; stroke: rgb(25, 211, 243); stroke-opacity: 1; stroke-width: 2px;"/></g><g class="legendsymbols"><g class="legendpoints"/></g></g><rect class="legendtoggle" x="0" y="-9.5" width="265.34375" height="19" style="fill: rgb(0, 0, 0); fill-opacity: 0;"/></g></g><g class="groups" transform=""><g class="traces" transform="translate(0,336.7)" style="opacity: 1;"><text class="legendtext" text-anchor="start" x="40" y="4.680000000000001" style="font-family: 'Open Sans', verdana, arial, sans-serif; font-size: 12px; fill: rgb(242, 245, 250); fill-opacity: 1; white-space: pre;">Lipodystrophy</text><g class="layers"><g class="legendfill"><path class="js-fill" d="M5,-2h30v6h-30z" style="stroke-width: 0; fill: rgb(255, 102, 146); fill-opacity: 0.5;"/></g><g class="legendlines"><path class="js-line" d="M5,-2h30" style="fill: none; stroke: rgb(255, 102, 146); stroke-opacity: 1; stroke-width: 2px;"/></g><g class="legendsymbols"><g class="legendpoints"/></g></g><rect class="legendtoggle" x="0" y="-9.5" width="265.34375" height="19" style="fill: rgb(0, 0, 0); fill-opacity: 0;"/></g></g><g class="groups" transform=""><g class="traces" transform="translate(0,355.7)" style="opacity: 1;"><text class="legendtext" text-anchor="start" x="40" y="4.680000000000001" style="font-family: 'Open Sans', verdana, arial, sans-serif; font-size: 12px; fill: rgb(242, 245, 250); fill-opacity: 1; white-space: pre;">Bleeding disorder</text><g class="layers"><g class="legendfill"><path class="js-fill" d="M5,-2h30v6h-30z" style="stroke-width: 0; fill: rgb(182, 232, 128); fill-opacity: 0.5;"/></g><g class="legendlines"><path class="js-line" d="M5,-2h30" style="fill: none; stroke: rgb(182, 232, 128); stroke-opacity: 1; stroke-width: 2px;"/></g><g class="legendsymbols"><g class="legendpoints"/></g></g><rect class="legendtoggle" x="0" y="-9.5" width="265.34375" height="19" style="fill: rgb(0, 0, 0); fill-opacity: 0;"/></g></g><g class="groups" transform=""><g class="traces" transform="translate(0,374.7)" style="opacity: 1;"><text class="legendtext" text-anchor="start" x="40" y="4.680000000000001" style="font-family: 'Open Sans', verdana, arial, sans-serif; font-size: 12px; fill: rgb(242, 245, 250); fill-opacity: 1; white-space: pre;">Cornelia de Lange syndrome</text><g class="layers"><g class="legendfill"><path class="js-fill" d="M5,-2h30v6h-30z" style="stroke-width: 0; fill: rgb(255, 151, 255); fill-opacity: 0.5;"/></g><g class="legendlines"><path class="js-line" d="M5,-2h30" style="fill: none; stroke: rgb(255, 151, 255); stroke-opacity: 1; stroke-width: 2px;"/></g><g class="legendsymbols"><g class="legendpoints"/></g></g><rect class="legendtoggle" x="0" y="-9.5" width="265.34375" height="19" style="fill: rgb(0, 0, 0); fill-opacity: 0;"/></g></g><g class="groups" transform=""><g class="traces" transform="translate(0,393.7)" style="opacity: 1;"><text class="legendtext" text-anchor="start" x="40" y="4.680000000000001" style="font-family: 'Open Sans', verdana, arial, sans-serif; font-size: 12px; fill: rgb(242, 245, 250); fill-opacity: 1; white-space: pre;">Thrombophilia</text><g class="layers"><g class="legendfill"><path class="js-fill" d="M5,-2h30v6h-30z" style="stroke-width: 0; fill: rgb(254, 203, 82); fill-opacity: 0.5;"/></g><g class="legendlines"><path class="js-line" d="M5,-2h30" style="fill: none; stroke: rgb(254, 203, 82); stroke-opacity: 1; stroke-width: 2px;"/></g><g class="legendsymbols"><g class="legendpoints"/></g></g><rect class="legendtoggle" x="0" y="-9.5" width="265.34375" height="19" style="fill: rgb(0, 0, 0); fill-opacity: 0;"/></g></g><g class="groups" transform=""><g class="traces" transform="translate(0,412.7)" style="opacity: 1;"><text class="legendtext" text-anchor="start" x="40" y="4.680000000000001" style="font-family: 'Open Sans', verdana, arial, sans-serif; font-size: 12px; fill: rgb(242, 245, 250); fill-opacity: 1; white-space: pre;">Cowden syndrome</text><g class="layers"><g class="legendfill"><path class="js-fill" d="M5,-2h30v6h-30z" style="stroke-width: 0; fill: rgb(99, 110, 250); fill-opacity: 0.5;"/></g><g class="legendlines"><path class="js-line" d="M5,-2h30" style="fill: none; stroke: rgb(99, 110, 250); stroke-opacity: 1; stroke-width: 2px;"/></g><g class="legendsymbols"><g class="legendpoints"/></g></g><rect class="legendtoggle" x="0" y="-9.5" width="265.34375" height="19" style="fill: rgb(0, 0, 0); fill-opacity: 0;"/></g></g></g><rect class="scrollbar" rx="20" ry="3" width="0" height="0" style="fill: rgb(128, 139, 164); fill-opacity: 1;" x="0" y="0"/></g><g class="g-gtitle"><text class="gtitle" x="35" y="50" text-anchor="start" dy="0em" style="opacity: 1; font-family: 'Open Sans', verdana, arial, sans-serif; font-size: 17px; fill: rgb(242, 245, 250); fill-opacity: 1; white-space: pre;">Related disease classes across targets in BindingDB over time</text></g><g class="g-xtitle"><text class="xtitle" x="245" y="459.8" text-anchor="middle" style="opacity: 1; font-family: 'Open Sans', verdana, arial, sans-serif; font-size: 14px; fill: rgb(242, 245, 250); fill-opacity: 1; white-space: pre;">Publication Year</text></g><g class="g-ytitle"><text class="ytitle" transform="rotate(-90,37.240625,260)" x="37.240625" y="260" text-anchor="middle" style="opacity: 1; font-family: 'Open Sans', verdana, arial, sans-serif; font-size: 14px; fill: rgb(242, 245, 250); fill-opacity: 1; white-space: pre;">Occurences in Uniprot disease section</text></g></g></svg>