<svg class="main-svg" xmlns="http://www.w3.org/2000/svg" xmlns:xlink="http://www.w3.org/1999/xlink" width="700" height="500" style="" viewBox="0 0 700 500"><rect x="0" y="0" width="700" height="500" style="fill: rgb(34, 37, 41); fill-opacity: 1;"/><defs id="defs-c99b43"><g class="clips"><clipPath id="clipc99b43xyplot" class="plotclip"><rect width="379" height="320"/></clipPath><clipPath class="axesclip" id="clipc99b43x"><rect x="80" y="0" width="379" height="500"/></clipPath><clipPath class="axesclip" id="clipc99b43y"><rect x="0" y="100" width="700" height="320"/></clipPath><clipPath class="axesclip" id="clipc99b43xy"><rect x="80" y="100" width="379" height="320"/></clipPath></g><g class="gradients"/><g class="patterns"/></defs><g class="bglayer"/><g class="layer-below"><g class="imagelayer"/><g class="shapelayer"/></g><g class="cartesianlayer"><g class="subplot xy"><g class="layer-subplot"><g class="shapelayer"/><g class="imagelayer"/></g><g class="minor-gridlayer"><g class="x"/><g class="y"/></g><g class="gridlayer"><g class="x"><path class="xgrid crisp" transform="translate(112.96000000000001,0)" d="M0,100v320" style="stroke: rgb(40, 52, 66); stroke-opacity: 1; stroke-width: 1px;"/><path class="xgrid crisp" transform="translate(195.35,0)" d="M0,100v320" style="stroke: rgb(40, 52, 66); stroke-opacity: 1; stroke-width: 1px;"/><path class="xgrid crisp" transform="translate(277.74,0)" d="M0,100v320" style="stroke: rgb(40, 52, 66); stroke-opacity: 1; stroke-width: 1px;"/><path class="xgrid crisp" transform="translate(360.13,0)" d="M0,100v320" style="stroke: rgb(40, 52, 66); stroke-opacity: 1; stroke-width: 1px;"/><path class="xgrid crisp" transform="translate(442.52,0)" d="M0,100v320" style="stroke: rgb(40, 52, 66); stroke-opacity: 1; stroke-width: 1px;"/></g><g class="y"><path class="ygrid crisp" transform="translate(0,368.39)" d="M80,0h379" style="stroke: rgb(40, 52, 66); stroke-opacity: 1; stroke-width: 1px;"/><path class="ygrid crisp" transform="translate(0,316.77)" d="M80,0h379" style="stroke: rgb(40, 52, 66); stroke-opacity: 1; stroke-width: 1px;"/><path class="ygrid crisp" transform="translate(0,265.15999999999997)" d="M80,0h379" style="stroke: rgb(40, 52, 66); stroke-opacity: 1; stroke-width: 1px;"/><path class="ygrid crisp" transform="translate(0,213.55)" d="M80,0h379" style="stroke: rgb(40, 52, 66); stroke-opacity: 1; stroke-width: 1px;"/><path class="ygrid crisp" transform="translate(0,161.94)" d="M80,0h379" style="stroke: rgb(40, 52, 66); stroke-opacity: 1; stroke-width: 1px;"/><path class="ygrid crisp" transform="translate(0,110.32)" d="M80,0h379" style="stroke: rgb(40, 52, 66); stroke-opacity: 1; stroke-width: 1px;"/></g></g><g class="zerolinelayer"><path class="yzl zl crisp" transform="translate(0,420)" d="M80,0h379" style="stroke: rgb(40, 52, 66); stroke-opacity: 1; stroke-width: 2px;"/></g><g class="layer-between"><g class="shapelayer"/><g class="imagelayer"/></g><path class="xlines-below"/><path class="ylines-below"/><g class="overlines-below"/><g class="xaxislayer-below"/><g class="yaxislayer-below"/><g class="overaxes-below"/><g class="overplot"><g class="xy" transform="translate(80,100)" clip-path="url(#clipc99b43xyplot)"><g class="scatterlayer mlayer"><g class="trace scatter trace444e84" style="stroke-miterlimit: 2;"><g class="fills"><g><path class="js-fill" d="M379,320L0,320L0,318.67L8.24,320L16.48,320L24.72,318.07L32.96,319.27L41.2,319.6L49.43,318.76L57.67,315.07L65.91,315.64L74.15,317.13L82.39,315.96L90.63,315.46L98.87,313.24L107.11,310.51L115.35,299.16L123.59,300.06L131.83,307.31L140.07,299.67L148.3,300.6L156.54,302.03L164.78,288.14L173.02,284.71L181.26,295.74L189.5,294.19L197.74,293.62L205.98,305.2L214.22,291.55L222.46,284.99L230.7,299.98L238.93,280.67L247.17,300.61L255.41,295.57L263.65,277.36L271.89,298.05L280.13,292.74L288.37,283.89L296.61,295.99L304.85,301.53L313.09,300.3L321.33,289.59L329.57,307.72L337.8,306.65L346.04,297.94L354.28,303.5L362.52,311.58L370.76,317.27L379,319.63" style="fill: rgb(239, 85, 59); fill-opacity: 0.5; stroke-width: 0;"/></g><g><path class="js-fill" d="M0,318.54L8.24,319.86L16.48,319.9L24.72,318.07L32.96,319.16L41.2,319.49L49.43,318.76L57.67,314.8L65.91,314.01L74.15,315.89L82.39,314.14L90.63,314.62L98.87,311.59L107.11,308.21L115.35,296.86L123.59,297.21L131.83,303.03L140.07,296.23L148.3,296.02L156.54,297.17L164.78,276.15L173.02,275.66L181.26,290.26L189.5,284.7L197.74,283.95L205.98,296.05L214.22,274.52L222.46,267.59L230.7,286.03L238.93,259.78L247.17,289.59L255.41,282.5L263.65,255.31L271.89,285.37L280.13,268.23L288.37,254.33L296.61,274.11L304.85,281.32L313.09,277.42L321.33,269.63L329.57,281.15L346.04,276.12L354.28,279.91L362.52,302.55L370.76,312.46L379,319.1L379,319.63L370.76,317.27L362.52,311.58L354.28,303.5L346.04,297.94L337.8,306.65L329.57,307.72L321.33,289.59L313.09,300.3L304.85,301.53L296.61,295.99L288.37,283.89L280.13,292.74L271.89,298.05L263.65,277.36L255.41,295.57L247.17,300.61L238.93,280.67L230.7,299.98L222.46,284.99L214.22,291.55L205.98,305.2L197.74,293.62L189.5,294.19L181.26,295.74L173.02,284.71L164.78,288.14L156.54,302.03L148.3,300.6L140.07,299.67L131.83,307.31L123.59,300.06L115.35,299.16L107.11,310.51L98.87,313.24L90.63,315.46L82.39,315.96L74.15,317.13L65.91,315.64L57.67,315.07L49.43,318.76L41.2,319.6L32.96,319.27L24.72,318.07L16.48,320L8.24,320L0,318.67Z" style="fill: rgb(0, 204, 150); fill-opacity: 0.5; stroke-width: 0;"/></g></g><g class="errorbars"/><g class="lines"><path class="js-line" d="M0,318.67L8.24,320L16.48,320L24.72,318.07L32.96,319.27L41.2,319.6L49.43,318.76L57.67,315.07L65.91,315.64L74.15,317.13L82.39,315.96L90.63,315.46L98.87,313.24L107.11,310.51L115.35,299.16L123.59,300.06L131.83,307.31L140.07,299.67L148.3,300.6L156.54,302.03L164.78,288.14L173.02,284.71L181.26,295.74L189.5,294.19L197.74,293.62L205.98,305.2L214.22,291.55L222.46,284.99L230.7,299.98L238.93,280.67L247.17,300.61L255.41,295.57L263.65,277.36L271.89,298.05L280.13,292.74L288.37,283.89L296.61,295.99L304.85,301.53L313.09,300.3L321.33,289.59L329.57,307.72L337.8,306.65L346.04,297.94L354.28,303.5L362.52,311.58L370.76,317.27L379,319.63" style="vector-effect: none; fill: none; stroke: rgb(239, 85, 59); stroke-opacity: 1; stroke-width: 2px; opacity: 1;"/></g><g class="points"/><g class="text"/></g><g class="trace scatter tracef65601" style="stroke-miterlimit: 2;"><g class="fills"><g><path class="js-fill" d="M0,318.54L8.24,319.8L16.48,319.9L24.72,317.83L32.96,318.74L41.2,319.31L49.43,318.7L57.67,314.8L65.91,313.57L74.15,315.24L82.39,313.61L90.63,314.21L98.87,310.61L107.11,307.12L115.35,294.87L123.59,295.16L131.83,299.63L140.07,294.11L148.3,294.7L156.54,291.46L164.78,269.15L173.02,258.12L181.26,273.56L189.5,261.81L197.74,266.91L205.98,279.67L214.22,255.92L222.46,238.19L230.7,257.77L238.93,221.57L247.17,268.64L255.41,253.64L263.65,196.17L271.89,251.77L280.13,238.75L288.37,204.6L296.61,248.71L304.85,267.71L313.09,258.24L321.33,254.61L329.57,261.8L337.8,262.03L346.04,264.77L354.28,259.17L362.52,294.11L370.76,308.58L379,318.97L379,319.1L370.76,312.46L362.52,302.55L354.28,279.91L346.04,276.12L329.57,281.15L321.33,269.63L313.09,277.42L304.85,281.32L296.61,274.11L288.37,254.33L280.13,268.23L271.89,285.37L263.65,255.31L255.41,282.5L247.17,289.59L238.93,259.78L230.7,286.03L222.46,267.59L214.22,274.52L205.98,296.05L197.74,283.95L189.5,284.7L181.26,290.26L173.02,275.66L164.78,276.15L156.54,297.17L148.3,296.02L140.07,296.23L131.83,303.03L123.59,297.21L115.35,296.86L107.11,308.21L98.87,311.59L90.63,314.62L82.39,314.14L74.15,315.89L65.91,314.01L57.67,314.8L49.43,318.76L41.2,319.49L32.96,319.16L24.72,318.07L16.48,319.9L8.24,319.86L0,318.54Z" style="fill: rgb(171, 99, 250); fill-opacity: 0.5; stroke-width: 0;"/></g></g><g class="errorbars"/><g class="lines"><path class="js-line" d="M0,318.54L8.24,319.86L16.48,319.9L24.72,318.07L32.96,319.16L41.2,319.49L49.43,318.76L57.67,314.8L65.91,314.01L74.15,315.89L82.39,314.14L90.63,314.62L98.87,311.59L107.11,308.21L115.35,296.86L123.59,297.21L131.83,303.03L140.07,296.23L148.3,296.02L156.54,297.17L164.78,276.15L173.02,275.66L181.26,290.26L189.5,284.7L197.74,283.95L205.98,296.05L214.22,274.52L222.46,267.59L230.7,286.03L238.93,259.78L247.17,289.59L255.41,282.5L263.65,255.31L271.89,285.37L280.13,268.23L288.37,254.33L296.61,274.11L304.85,281.32L313.09,277.42L321.33,269.63L329.57,281.15L346.04,276.12L354.28,279.91L362.52,302.55L370.76,312.46L379,319.1" style="vector-effect: none; fill: none; stroke: rgb(0, 204, 150); stroke-opacity: 1; stroke-width: 2px; opacity: 1;"/></g><g class="points"/><g class="text"/></g><g class="trace scatter trace6fedf2" style="stroke-miterlimit: 2;"><g class="fills"><g><path class="js-fill" d="M0,318.54L8.24,319.8L16.48,319.9L24.72,317.83L32.96,318.74L41.2,319.31L49.43,317.66L57.67,314.8L65.91,313.57L74.15,314.82L82.39,313.18L90.63,313.69L98.87,309.38L107.11,306.31L115.35,291.95L131.83,298.49L140.07,292.03L148.3,294.04L156.54,286.96L164.78,262.47L173.02,257.01L181.26,272.14L189.5,259.01L197.74,265.93L205.98,273.85L214.22,246.7L222.46,229.9L230.7,249.31L238.93,212.81L247.17,258.14L255.41,230.16L263.65,180.2L271.89,231.86L280.13,212.52L288.37,160.85L296.61,217.72L304.85,249.8L313.09,234.26L321.33,232.23L329.57,239.08L337.8,239.47L346.04,237.91L354.28,238.14L362.52,255.63L370.76,297.8L379,318.13L379,318.97L370.76,308.58L362.52,294.11L354.28,259.17L346.04,264.77L337.8,262.03L329.57,261.8L321.33,254.61L313.09,258.24L304.85,267.71L296.61,248.71L288.37,204.6L280.13,238.75L271.89,251.77L263.65,196.17L255.41,253.64L247.17,268.64L238.93,221.57L230.7,257.77L222.46,238.19L214.22,255.92L205.98,279.67L197.74,266.91L189.5,261.81L181.26,273.56L173.02,258.12L164.78,269.15L156.54,291.46L148.3,294.7L140.07,294.11L131.83,299.63L123.59,295.16L115.35,294.87L107.11,307.12L98.87,310.61L90.63,314.21L82.39,313.61L74.15,315.24L65.91,313.57L57.67,314.8L49.43,318.7L41.2,319.31L32.96,318.74L24.72,317.83L16.48,319.9L8.24,319.8L0,318.54Z" style="fill: rgb(255, 161, 90); fill-opacity: 0.5; stroke-width: 0;"/></g></g><g class="errorbars"/><g class="lines"><path class="js-line" d="M0,318.54L8.24,319.8L16.48,319.9L24.72,317.83L32.96,318.74L41.2,319.31L49.43,318.7L57.67,314.8L65.91,313.57L74.15,315.24L82.39,313.61L90.63,314.21L98.87,310.61L107.11,307.12L115.35,294.87L123.59,295.16L131.83,299.63L140.07,294.11L148.3,294.7L156.54,291.46L164.78,269.15L173.02,258.12L181.26,273.56L189.5,261.81L197.74,266.91L205.98,279.67L214.22,255.92L222.46,238.19L230.7,257.77L238.93,221.57L247.17,268.64L255.41,253.64L263.65,196.17L271.89,251.77L280.13,238.75L288.37,204.6L296.61,248.71L304.85,267.71L313.09,258.24L321.33,254.61L329.57,261.8L337.8,262.03L346.04,264.77L354.28,259.17L362.52,294.11L370.76,308.58L379,318.97" style="vector-effect: none; fill: none; stroke: rgb(171, 99, 250); stroke-opacity: 1; stroke-width: 2px; opacity: 1;"/></g><g class="points"/><g class="text"/></g><g class="trace scatter tracee41b50" style="stroke-miterlimit: 2;"><g class="fills"><g><path class="js-fill" d="M0,318.54L8.24,319.8L16.48,319.9L24.72,317.83L32.96,318.74L41.2,319.31L49.43,314.8L65.91,313.43L74.15,311.99L82.39,312.1L90.63,311.45L98.87,306.75L107.11,305.25L115.35,288.86L123.59,292.55L131.83,292.82L140.07,288.04L148.3,289.61L156.54,283.58L164.78,257.02L173.02,251.12L181.26,266.43L189.5,253.02L197.74,258.13L205.98,266.23L214.22,233.91L222.46,225.96L230.7,240.52L238.93,206.14L247.17,251.29L255.41,219.77L263.65,166.73L271.89,223.37L280.13,197.25L288.37,150.9L296.61,208.2L304.85,243.42L313.09,227.31L321.33,226.86L329.57,234.34L337.8,233.79L354.28,234.92L362.52,252.64L370.76,296.11L379,317.94L379,318.13L370.76,297.8L362.52,255.63L354.28,238.14L346.04,237.91L337.8,239.47L329.57,239.08L321.33,232.23L313.09,234.26L304.85,249.8L296.61,217.72L288.37,160.85L280.13,212.52L271.89,231.86L263.65,180.2L255.41,230.16L247.17,258.14L238.93,212.81L230.7,249.31L222.46,229.9L214.22,246.7L205.98,273.85L197.74,265.93L189.5,259.01L181.26,272.14L173.02,257.01L164.78,262.47L156.54,286.96L148.3,294.04L140.07,292.03L131.83,298.49L115.35,291.95L107.11,306.31L98.87,309.38L90.63,313.69L82.39,313.18L74.15,314.82L65.91,313.57L57.67,314.8L49.43,317.66L41.2,319.31L32.96,318.74L24.72,317.83L16.48,319.9L8.24,319.8L0,318.54Z" style="fill: rgb(25, 211, 243); fill-opacity: 0.5; stroke-width: 0;"/></g></g><g class="errorbars"/><g class="lines"><path class="js-line" d="M0,318.54L8.24,319.8L16.48,319.9L24.72,317.83L32.96,318.74L41.2,319.31L49.43,317.66L57.67,314.8L65.91,313.57L74.15,314.82L82.39,313.18L90.63,313.69L98.87,309.38L107.11,306.31L115.35,291.95L131.83,298.49L140.07,292.03L148.3,294.04L156.54,286.96L164.78,262.47L173.02,257.01L181.26,272.14L189.5,259.01L197.74,265.93L205.98,273.85L214.22,246.7L222.46,229.9L230.7,249.31L238.93,212.81L247.17,258.14L255.41,230.16L263.65,180.2L271.89,231.86L280.13,212.52L288.37,160.85L296.61,217.72L304.85,249.8L313.09,234.26L321.33,232.23L329.57,239.08L337.8,239.47L346.04,237.91L354.28,238.14L362.52,255.63L370.76,297.8L379,318.13" style="vector-effect: none; fill: none; stroke: rgb(255, 161, 90); stroke-opacity: 1; stroke-width: 2px; opacity: 1;"/></g><g class="points"/><g class="text"/></g><g class="trace scatter trace5c92cc" style="stroke-miterlimit: 2;"><g class="fills"><g><path class="js-fill" d="M0,318.54L8.24,319.8L16.48,319.9L24.72,317.83L32.96,318.74L41.2,319.31L49.43,314.8L65.91,313.43L74.15,311.99L82.39,312.1L90.63,311.45L107.11,301.88L115.35,288.86L131.83,292.38L140.07,287.63L148.3,285.61L156.54,280.73L164.78,251.85L173.02,239.79L181.26,260.71L189.5,245.32L197.74,249.63L205.98,260.02L214.22,222.57L222.46,216.3L230.7,211.21L238.93,174.68L247.17,230.97L255.41,195.29L263.65,114.55L271.89,200.04L280.13,171.62L288.37,104.5L296.61,181.69L304.85,227.35L313.09,202.44L321.33,207.43L329.57,205.45L337.8,211.78L346.04,212.45L354.28,208.09L362.52,236.86L370.76,287.22L379,317.3L379,317.94L370.76,296.11L362.52,252.64L354.28,234.92L337.8,233.79L329.57,234.34L321.33,226.86L313.09,227.31L304.85,243.42L296.61,208.2L288.37,150.9L280.13,197.25L271.89,223.37L263.65,166.73L255.41,219.77L247.17,251.29L238.93,206.14L230.7,240.52L222.46,225.96L214.22,233.91L205.98,266.23L197.74,258.13L189.5,253.02L181.26,266.43L173.02,251.12L164.78,257.02L156.54,283.58L148.3,289.61L140.07,288.04L131.83,292.82L123.59,292.55L115.35,288.86L107.11,305.25L98.87,306.75L90.63,311.45L82.39,312.1L74.15,311.99L65.91,313.43L49.43,314.8L41.2,319.31L32.96,318.74L24.72,317.83L16.48,319.9L8.24,319.8L0,318.54Z" style="fill: rgb(255, 102, 146); fill-opacity: 0.5; stroke-width: 0;"/></g></g><g class="errorbars"/><g class="lines"><path class="js-line" d="M0,318.54L8.24,319.8L16.48,319.9L24.72,317.83L32.96,318.74L41.2,319.31L49.43,314.8L65.91,313.43L74.15,311.99L82.39,312.1L90.63,311.45L98.87,306.75L107.11,305.25L115.35,288.86L123.59,292.55L131.83,292.82L140.07,288.04L148.3,289.61L156.54,283.58L164.78,257.02L173.02,251.12L181.26,266.43L189.5,253.02L197.74,258.13L205.98,266.23L214.22,233.91L222.46,225.96L230.7,240.52L238.93,206.14L247.17,251.29L255.41,219.77L263.65,166.73L271.89,223.37L280.13,197.25L288.37,150.9L296.61,208.2L304.85,243.42L313.09,227.31L321.33,226.86L329.57,234.34L337.8,233.79L354.28,234.92L362.52,252.64L370.76,296.11L379,317.94" style="vector-effect: none; fill: none; stroke: rgb(25, 211, 243); stroke-opacity: 1; stroke-width: 2px; opacity: 1;"/></g><g class="points"/><g class="text"/></g><g class="trace scatter trace9d533a" style="stroke-miterlimit: 2;"><g class="fills"><g><path class="js-fill" d="M0,318.54L8.24,319.8L16.48,319.9L24.72,317.83L32.96,318.74L41.2,319.31L49.43,314.8L65.91,313.43L74.15,311.99L82.39,312.1L90.63,311.45L107.11,301.88L115.35,288.7L123.59,290.97L131.83,292.38L140.07,287.63L148.3,285.61L156.54,280.73L164.78,251.85L173.02,239.79L181.26,260.34L189.5,245.06L197.74,240.02L205.98,257.77L214.22,217.97L230.7,208.82L238.93,171.66L247.17,229.48L255.41,191.03L263.65,97.35L271.89,191.51L280.13,163.26L288.37,85.16L296.61,172.98L304.85,218.77L313.09,197.49L321.33,201.28L329.57,197.16L337.8,204.92L346.04,202.94L354.28,203.08L362.52,232.11L370.76,285.07L379,317.11L379,317.3L370.76,287.22L362.52,236.86L354.28,208.09L346.04,212.45L337.8,211.78L329.57,205.45L321.33,207.43L313.09,202.44L304.85,227.35L296.61,181.69L288.37,104.5L280.13,171.62L271.89,200.04L263.65,114.55L255.41,195.29L247.17,230.97L238.93,174.68L230.7,211.21L222.46,216.3L214.22,222.57L205.98,260.02L197.74,249.63L189.5,245.32L181.26,260.71L173.02,239.79L164.78,251.85L156.54,280.73L148.3,285.61L140.07,287.63L131.83,292.38L115.35,288.86L107.11,301.88L90.63,311.45L82.39,312.1L74.15,311.99L65.91,313.43L49.43,314.8L41.2,319.31L32.96,318.74L24.72,317.83L16.48,319.9L8.24,319.8L0,318.54Z" style="fill: rgb(182, 232, 128); fill-opacity: 0.5; stroke-width: 0;"/></g></g><g class="errorbars"/><g class="lines"><path class="js-line" d="M0,318.54L8.24,319.8L16.48,319.9L24.72,317.83L32.96,318.74L41.2,319.31L49.43,314.8L65.91,313.43L74.15,311.99L82.39,312.1L90.63,311.45L107.11,301.88L115.35,288.86L131.83,292.38L140.07,287.63L148.3,285.61L156.54,280.73L164.78,251.85L173.02,239.79L181.26,260.71L189.5,245.32L197.74,249.63L205.98,260.02L214.22,222.57L222.46,216.3L230.7,211.21L238.93,174.68L247.17,230.97L255.41,195.29L263.65,114.55L271.89,200.04L280.13,171.62L288.37,104.5L296.61,181.69L304.85,227.35L313.09,202.44L321.33,207.43L329.57,205.45L337.8,211.78L346.04,212.45L354.28,208.09L362.52,236.86L370.76,287.22L379,317.3" style="vector-effect: none; fill: none; stroke: rgb(255, 102, 146); stroke-opacity: 1; stroke-width: 2px; opacity: 1;"/></g><g class="points"/><g class="text"/></g><g class="trace scatter trace286ddc" style="stroke-miterlimit: 2;"><g class="fills"><g><path class="js-fill" d="M0,318.54L8.24,319.8L16.48,319.9L24.72,317.83L32.96,318.74L41.2,319.31L49.43,314.8L65.91,313.43L74.15,311.99L82.39,312.1L90.63,311.45L107.11,301.88L115.35,288.7L131.83,292.38L140.07,287.63L148.3,285.21L156.54,280.38L164.78,251.08L173.02,238.49L181.26,260.22L189.5,243.03L197.74,239.09L205.98,257.01L214.22,213.87L222.46,207.15L230.7,183.96L238.93,150.7L247.17,214.83L255.41,169.47L263.65,70.91L271.89,177.94L280.13,143.78L288.37,57.66L296.61,157.53L304.85,205.12L313.09,184.84L321.33,190.69L329.57,162.02L337.8,191.87L346.04,186.43L354.28,187.88L362.52,224.18L370.76,280.34L379,316.79L379,317.11L370.76,285.07L362.52,232.11L354.28,203.08L346.04,202.94L337.8,204.92L329.57,197.16L321.33,201.28L313.09,197.49L304.85,218.77L296.61,172.98L288.37,85.16L280.13,163.26L271.89,191.51L263.65,97.35L255.41,191.03L247.17,229.48L238.93,171.66L230.7,208.82L214.22,217.97L205.98,257.77L197.74,240.02L189.5,245.06L181.26,260.34L173.02,239.79L164.78,251.85L156.54,280.73L148.3,285.61L140.07,287.63L131.83,292.38L123.59,290.97L115.35,288.7L107.11,301.88L90.63,311.45L82.39,312.1L74.15,311.99L65.91,313.43L49.43,314.8L41.2,319.31L32.96,318.74L24.72,317.83L16.48,319.9L8.24,319.8L0,318.54Z" style="fill: rgb(255, 151, 255); fill-opacity: 0.5; stroke-width: 0;"/></g></g><g class="errorbars"/><g class="lines"><path class="js-line" d="M0,318.54L8.24,319.8L16.48,319.9L24.72,317.83L32.96,318.74L41.2,319.31L49.43,314.8L65.91,313.43L74.15,311.99L82.39,312.1L90.63,311.45L107.11,301.88L115.35,288.7L123.59,290.97L131.83,292.38L140.07,287.63L148.3,285.61L156.54,280.73L164.78,251.85L173.02,239.79L181.26,260.34L189.5,245.06L197.74,240.02L205.98,257.77L214.22,217.97L230.7,208.82L238.93,171.66L247.17,229.48L255.41,191.03L263.65,97.35L271.89,191.51L280.13,163.26L288.37,85.16L296.61,172.98L304.85,218.77L313.09,197.49L321.33,201.28L329.57,197.16L337.8,204.92L346.04,202.94L354.28,203.08L362.52,232.11L370.76,285.07L379,317.11" style="vector-effect: none; fill: none; stroke: rgb(182, 232, 128); stroke-opacity: 1; stroke-width: 2px; opacity: 1;"/></g><g class="points"/><g class="text"/></g><g class="trace scatter trace825f10" style="stroke-miterlimit: 2;"><g class="fills"><g><path class="js-fill" d="M0,318.54L8.24,319.8L16.48,319.9L24.72,317.83L32.96,318.74L41.2,319.31L49.43,314.8L65.91,313.43L74.15,311.99L82.39,312.1L90.63,311.45L107.11,301.88L115.35,288.7L131.83,292.38L140.07,287.63L148.3,285.21L156.54,280.38L164.78,251.08L173.02,237.16L181.26,252.18L189.5,241.32L197.74,227.65L205.98,252.57L214.22,203.27L222.46,190.91L230.7,145L238.93,123.95L247.17,195.18L255.41,138.69L263.65,26.32L271.89,153.17L280.13,122.66L288.37,28.48L296.61,127.77L304.85,183.21L313.09,172.23L321.33,177.36L329.57,143.01L337.8,166.7L346.04,165.76L354.28,170.64L362.52,216.83L370.76,274.28L379,316.23L379,316.79L370.76,280.34L362.52,224.18L354.28,187.88L346.04,186.43L337.8,191.87L329.57,162.02L321.33,190.69L313.09,184.84L304.85,205.12L296.61,157.53L288.37,57.66L280.13,143.78L271.89,177.94L263.65,70.91L255.41,169.47L247.17,214.83L238.93,150.7L230.7,183.96L222.46,207.15L214.22,213.87L205.98,257.01L197.74,239.09L189.5,243.03L181.26,260.22L173.02,238.49L164.78,251.08L156.54,280.38L148.3,285.21L140.07,287.63L131.83,292.38L115.35,288.7L107.11,301.88L90.63,311.45L82.39,312.1L74.15,311.99L65.91,313.43L49.43,314.8L41.2,319.31L32.96,318.74L24.72,317.83L16.48,319.9L8.24,319.8L0,318.54Z" style="fill: rgb(254, 203, 82); fill-opacity: 0.5; stroke-width: 0;"/></g></g><g class="errorbars"/><g class="lines"><path class="js-line" d="M0,318.54L8.24,319.8L16.48,319.9L24.72,317.83L32.96,318.74L41.2,319.31L49.43,314.8L65.91,313.43L74.15,311.99L82.39,312.1L90.63,311.45L107.11,301.88L115.35,288.7L131.83,292.38L140.07,287.63L148.3,285.21L156.54,280.38L164.78,251.08L173.02,238.49L181.26,260.22L189.5,243.03L197.74,239.09L205.98,257.01L214.22,213.87L222.46,207.15L230.7,183.96L238.93,150.7L247.17,214.83L255.41,169.47L263.65,70.91L271.89,177.94L280.13,143.78L288.37,57.66L296.61,157.53L304.85,205.12L313.09,184.84L321.33,190.69L329.57,162.02L337.8,191.87L346.04,186.43L354.28,187.88L362.52,224.18L370.76,280.34L379,316.79" style="vector-effect: none; fill: none; stroke: rgb(255, 151, 255); stroke-opacity: 1; stroke-width: 2px; opacity: 1;"/></g><g class="points"/><g class="text"/></g><g class="trace scatter trace945fbd" style="stroke-miterlimit: 2;"><g class="fills"><g><path class="js-fill" d="M0,318.54L8.24,319.8L16.48,319.9L24.72,317.83L32.96,318.74L41.2,319.31L49.43,314.8L65.91,313.43L74.15,311.99L82.39,312.1L90.63,311.45L107.11,301.88L115.35,288.7L131.83,292.38L140.07,287.63L148.3,285.21L156.54,280.38L164.78,251.08L173.02,237.16L181.26,252.18L189.5,239.34L197.74,227.44L205.98,251.38L214.22,200.84L222.46,185.45L230.7,141L238.93,117.42L247.17,191.21L255.41,129.24L263.65,16L271.89,144.85L280.13,89.61L288.37,17.95L296.61,115.77L304.85,164.01L313.09,161.82L321.33,157.14L329.57,124.59L337.8,140.59L346.04,145.56L354.28,153.53L362.52,198.46L370.76,266.88L379,315.13L379,316.23L370.76,274.28L362.52,216.83L354.28,170.64L346.04,165.76L337.8,166.7L329.57,143.01L321.33,177.36L313.09,172.23L304.85,183.21L296.61,127.77L288.37,28.48L280.13,122.66L271.89,153.17L263.65,26.32L255.41,138.69L247.17,195.18L238.93,123.95L230.7,145L222.46,190.91L214.22,203.27L205.98,252.57L197.74,227.65L189.5,241.32L181.26,252.18L173.02,237.16L164.78,251.08L156.54,280.38L148.3,285.21L140.07,287.63L131.83,292.38L115.35,288.7L107.11,301.88L90.63,311.45L82.39,312.1L74.15,311.99L65.91,313.43L49.43,314.8L41.2,319.31L32.96,318.74L24.72,317.83L16.48,319.9L8.24,319.8L0,318.54Z" style="fill: rgb(99, 110, 250); fill-opacity: 0.5; stroke-width: 0;"/></g></g><g class="errorbars"/><g class="lines"><path class="js-line" d="M0,318.54L8.24,319.8L16.48,319.9L24.72,317.83L32.96,318.74L41.2,319.31L49.43,314.8L65.91,313.43L74.15,311.99L82.39,312.1L90.63,311.45L107.11,301.88L115.35,288.7L131.83,292.38L140.07,287.63L148.3,285.21L156.54,280.38L164.78,251.08L173.02,237.16L181.26,252.18L189.5,241.32L197.74,227.65L205.98,252.57L214.22,203.27L222.46,190.91L230.7,145L238.93,123.95L247.17,195.18L255.41,138.69L263.65,26.32L271.89,153.17L280.13,122.66L288.37,28.48L296.61,127.77L304.85,183.21L313.09,172.23L321.33,177.36L329.57,143.01L337.8,166.7L346.04,165.76L354.28,170.64L362.52,216.83L370.76,274.28L379,316.23" style="vector-effect: none; fill: none; stroke: rgb(254, 203, 82); stroke-opacity: 1; stroke-width: 2px; opacity: 1;"/></g><g class="points"/><g class="text"/></g><g class="trace scatter traceb1f475" style="stroke-miterlimit: 2;"><g class="fills"/><g class="errorbars"/><g class="lines"><path class="js-line" d="M0,318.54L8.24,319.8L16.48,319.9L24.72,317.83L32.96,318.74L41.2,319.31L49.43,314.8L65.91,313.43L74.15,311.99L82.39,312.1L90.63,311.45L107.11,301.88L115.35,288.7L131.83,292.38L140.07,287.63L148.3,285.21L156.54,280.38L164.78,251.08L173.02,237.16L181.26,252.18L189.5,239.34L197.74,227.44L205.98,251.38L214.22,200.84L222.46,185.45L230.7,141L238.93,117.42L247.17,191.21L255.41,129.24L263.65,16L271.89,144.85L280.13,89.61L288.37,17.95L296.61,115.77L304.85,164.01L313.09,161.82L321.33,157.14L329.57,124.59L337.8,140.59L346.04,145.56L354.28,153.53L362.52,198.46L370.76,266.88L379,315.13" style="vector-effect: none; fill: none; stroke: rgb(99, 110, 250); stroke-opacity: 1; stroke-width: 2px; opacity: 1;"/></g><g class="points"/><g class="text"/></g></g></g></g><path class="xlines-above crisp" d="M0,0" style="fill: none;"/><path class="ylines-above crisp" d="M0,0" style="fill: none;"/><g class="overlines-above"/><g class="xaxislayer-above"><g class="xtick"><text text-anchor="middle" x="0" y="433" transform="translate(112.96000000000001,0)" style="font-family: 'Open Sans', verdana, arial, sans-serif; font-size: 12px; fill: rgb(242, 245, 250); fill-opacity: 1; white-space: pre; opacity: 1;">1980</text></g><g class="xtick"><text text-anchor="middle" x="0" y="433" style="font-family: 'Open Sans', verdana, arial, sans-serif; font-size: 12px; fill: rgb(242, 245, 250); fill-opacity: 1; white-space: pre; opacity: 1;" transform="translate(195.35,0)">1990</text></g><g class="xtick"><text text-anchor="middle" x="0" y="433" style="font-family: 'Open Sans', verdana, arial, sans-serif; font-size: 12px; fill: rgb(242, 245, 250); fill-opacity: 1; white-space: pre; opacity: 1;" transform="translate(277.74,0)">2000</text></g><g class="xtick"><text text-anchor="middle" x="0" y="433" style="font-family: 'Open Sans', verdana, arial, sans-serif; font-size: 12px; fill: rgb(242, 245, 250); fill-opacity: 1; white-space: pre; opacity: 1;" transform="translate(360.13,0)">2010</text></g><g class="xtick"><text text-anchor="middle" x="0" y="433" style="font-family: 'Open Sans', verdana, arial, sans-serif; font-size: 12px; fill: rgb(242, 245, 250); fill-opacity: 1; white-space: pre; opacity: 1;" transform="translate(442.52,0)">2020</text></g></g><g class="yaxislayer-above"><g class="ytick"><text text-anchor="end" x="79" y="4.199999999999999" transform="translate(0,420)" style="font-family: 'Open Sans', verdana, arial, sans-serif; font-size: 12px; fill: rgb(242, 245, 250); fill-opacity: 1; white-space: pre; opacity: 1;">0</text></g><g class="ytick"><text text-anchor="end" x="79" y="4.199999999999999" style="font-family: 'Open Sans', verdana, arial, sans-serif; font-size: 12px; fill: rgb(242, 245, 250); fill-opacity: 1; white-space: pre; opacity: 1;" transform="translate(0,368.39)">10k</text></g><g class="ytick"><text text-anchor="end" x="79" y="4.199999999999999" style="font-family: 'Open Sans', verdana, arial, sans-serif; font-size: 12px; fill: rgb(242, 245, 250); fill-opacity: 1; white-space: pre; opacity: 1;" transform="translate(0,316.77)">20k</text></g><g class="ytick"><text text-anchor="end" x="79" y="4.199999999999999" style="font-family: 'Open Sans', verdana, arial, sans-serif; font-size: 12px; fill: rgb(242, 245, 250); fill-opacity: 1; white-space: pre; opacity: 1;" transform="translate(0,265.15999999999997)">30k</text></g><g class="ytick"><text text-anchor="end" x="79" y="4.199999999999999" style="font-family: 'Open Sans', verdana, arial, sans-serif; font-size: 12px; fill: rgb(242, 245, 250); fill-opacity: 1; white-space: pre; opacity: 1;" transform="translate(0,213.55)">40k</text></g><g class="ytick"><text text-anchor="end" x="79" y="4.199999999999999" style="font-family: 'Open Sans', verdana, arial, sans-serif; font-size: 12px; fill: rgb(242, 245, 250); fill-opacity: 1; white-space: pre; opacity: 1;" transform="translate(0,161.94)">50k</text></g><g class="ytick"><text text-anchor="end" x="79" y="4.199999999999999" style="font-family: 'Open Sans', verdana, arial, sans-serif; font-size: 12px; fill: rgb(242, 245, 250); fill-opacity: 1; white-space: pre; opacity: 1;" transform="translate(0,110.32)">60k</text></g></g><g class="overaxes-above"/></g></g><g class="polarlayer"/><g class="smithlayer"/><g class="ternarylayer"/><g class="geolayer"/><g class="funnelarealayer"/><g class="pielayer"/><g class="iciclelayer"/><g class="treemaplayer"/><g class="sunburstlayer"/><g class="glimages"/><defs id="topdefs-c99b43"><g class="clips"/><clipPath id="legendc99b43"><rect width="221" height="238" x="0" y="0"/></clipPath></defs><g class="layer-above"><g class="imagelayer"/><g class="shapelayer"/></g><g class="infolayer"><g class="legend" pointer-events="all" transform="translate(466.58,100)"><rect class="bg" shape-rendering="crispEdges" style="stroke: rgb(68, 68, 68); stroke-opacity: 1; fill: rgb(34, 37, 41); fill-opacity: 1; stroke-width: 0px;" width="221" height="238" x="0" y="0"/><g class="scrollbox" transform="" clip-path="url(#legendc99b43)"><text class="legendtitletext" text-anchor="start" x="2" y="18.2" style="font-family: 'Open Sans', verdana, arial, sans-serif; font-size: 14px; fill: rgb(242, 245, 250); fill-opacity: 1; white-space: pre;">Target Classes</text><g class="groups" transform=""><g class="traces" transform="translate(0,32.7)" style="opacity: 0.5;"><text class="legendtext" text-anchor="start" x="40" y="4.680000000000001" style="font-family: 'Open Sans', verdana, arial, sans-serif; font-size: 12px; fill: rgb(242, 245, 250); fill-opacity: 1; white-space: pre;">Others</text><g class="layers"><g class="legendfill"><path class="js-fill" d="M5,-2h30v6h-30z" style="stroke-width: 0; fill: rgb(99, 110, 250); fill-opacity: 0.5;"/></g><g class="legendlines"><path class="js-line" d="M5,-2h30" style="fill: none; stroke: rgb(99, 110, 250); stroke-opacity: 1; stroke-width: 2px;"/></g><g class="legendsymbols"><g class="legendpoints"/></g></g><rect class="legendtoggle" x="0" y="-9.5" width="215.765625" height="19" style="fill: rgb(0, 0, 0); fill-opacity: 0;"/></g></g><g class="groups" transform=""><g class="traces" transform="translate(0,51.7)" style="opacity: 1;"><text class="legendtext" text-anchor="start" x="40" y="4.680000000000001" style="font-family: 'Open Sans', verdana, arial, sans-serif; font-size: 12px; fill: rgb(242, 245, 250); fill-opacity: 1; white-space: pre;">Neurotransmitter receptor</text><g class="layers"><g class="legendfill"><path class="js-fill" d="M5,-2h30v6h-30z" style="stroke-width: 0; fill: rgb(239, 85, 59); fill-opacity: 0.5;"/></g><g class="legendlines"><path class="js-line" d="M5,-2h30" style="fill: none; stroke: rgb(239, 85, 59); stroke-opacity: 1; stroke-width: 2px;"/></g><g class="legendsymbols"><g class="legendpoints"/></g></g><rect class="legendtoggle" x="0" y="-9.5" width="215.765625" height="19" style="fill: rgb(0, 0, 0); fill-opacity: 0;"/></g></g><g class="groups" transform=""><g class="traces" transform="translate(0,70.7)" style="opacity: 1;"><text class="legendtext" text-anchor="start" x="40" y="4.680000000000001" style="font-family: 'Open Sans', verdana, arial, sans-serif; font-size: 12px; fill: rgb(242, 245, 250); fill-opacity: 1; white-space: pre;">Neurotransmitter transporter</text><g class="layers"><g class="legendfill"><path class="js-fill" d="M5,-2h30v6h-30z" style="stroke-width: 0; fill: rgb(0, 204, 150); fill-opacity: 0.5;"/></g><g class="legendlines"><path class="js-line" d="M5,-2h30" style="fill: none; stroke: rgb(0, 204, 150); stroke-opacity: 1; stroke-width: 2px;"/></g><g class="legendsymbols"><g class="legendpoints"/></g></g><rect class="legendtoggle" x="0" y="-9.5" width="215.765625" height="19" style="fill: rgb(0, 0, 0); fill-opacity: 0;"/></g></g><g class="groups" transform=""><g class="traces" transform="translate(0,89.7)" style="opacity: 1;"><text class="legendtext" text-anchor="start" x="40" y="4.680000000000001" style="font-family: 'Open Sans', verdana, arial, sans-serif; font-size: 12px; fill: rgb(242, 245, 250); fill-opacity: 1; white-space: pre;">Hormone Receptor</text><g class="layers"><g class="legendfill"><path class="js-fill" d="M5,-2h30v6h-30z" style="stroke-width: 0; fill: rgb(171, 99, 250); fill-opacity: 0.5;"/></g><g class="legendlines"><path class="js-line" d="M5,-2h30" style="fill: none; stroke: rgb(171, 99, 250); stroke-opacity: 1; stroke-width: 2px;"/></g><g class="legendsymbols"><g class="legendpoints"/></g></g><rect class="legendtoggle" x="0" y="-9.5" width="215.765625" height="19" style="fill: rgb(0, 0, 0); fill-opacity: 0;"/></g></g><g class="groups" transform=""><g class="traces" transform="translate(0,108.7)" style="opacity: 1;"><text class="legendtext" text-anchor="start" x="40" y="4.680000000000001" style="font-family: 'Open Sans', verdana, arial, sans-serif; font-size: 12px; fill: rgb(242, 245, 250); fill-opacity: 1; white-space: pre;">Ion Channel</text><g class="layers"><g class="legendfill"><path class="js-fill" d="M5,-2h30v6h-30z" style="stroke-width: 0; fill: rgb(255, 161, 90); fill-opacity: 0.5;"/></g><g class="legendlines"><path class="js-line" d="M5,-2h30" style="fill: none; stroke: rgb(255, 161, 90); stroke-opacity: 1; stroke-width: 2px;"/></g><g class="legendsymbols"><g class="legendpoints"/></g></g><rect class="legendtoggle" x="0" y="-9.5" width="215.765625" height="19" style="fill: rgb(0, 0, 0); fill-opacity: 0;"/></g></g><g class="groups" transform=""><g class="traces" transform="translate(0,127.7)" style="opacity: 1;"><text class="legendtext" text-anchor="start" x="40" y="4.680000000000001" style="font-family: 'Open Sans', verdana, arial, sans-serif; font-size: 12px; fill: rgb(242, 245, 250); fill-opacity: 1; white-space: pre;">Purine Receptor</text><g class="layers"><g class="legendfill"><path class="js-fill" d="M5,-2h30v6h-30z" style="stroke-width: 0; fill: rgb(25, 211, 243); fill-opacity: 0.5;"/></g><g class="legendlines"><path class="js-line" d="M5,-2h30" style="fill: none; stroke: rgb(25, 211, 243); stroke-opacity: 1; stroke-width: 2px;"/></g><g class="legendsymbols"><g class="legendpoints"/></g></g><rect class="legendtoggle" x="0" y="-9.5" width="215.765625" height="19" style="fill: rgb(0, 0, 0); fill-opacity: 0;"/></g></g><g class="groups" transform=""><g class="traces" transform="translate(0,146.7)" style="opacity: 1;"><text class="legendtext" text-anchor="start" x="40" y="4.680000000000001" style="font-family: 'Open Sans', verdana, arial, sans-serif; font-size: 12px; fill: rgb(242, 245, 250); fill-opacity: 1; white-space: pre;">Growth Factor Receptor</text><g class="layers"><g class="legendfill"><path class="js-fill" d="M5,-2h30v6h-30z" style="stroke-width: 0; fill: rgb(255, 102, 146); fill-opacity: 0.5;"/></g><g class="legendlines"><path class="js-line" d="M5,-2h30" style="fill: none; stroke: rgb(255, 102, 146); stroke-opacity: 1; stroke-width: 2px;"/></g><g class="legendsymbols"><g class="legendpoints"/></g></g><rect class="legendtoggle" x="0" y="-9.5" width="215.765625" height="19" style="fill: rgb(0, 0, 0); fill-opacity: 0;"/></g></g><g class="groups" transform=""><g class="traces" transform="translate(0,165.7)" style="opacity: 1;"><text class="legendtext" text-anchor="start" x="40" y="4.680000000000001" style="font-family: 'Open Sans', verdana, arial, sans-serif; font-size: 12px; fill: rgb(242, 245, 250); fill-opacity: 1; white-space: pre;">Phosphatidylinositol Kinase</text><g class="layers"><g class="legendfill"><path class="js-fill" d="M5,-2h30v6h-30z" style="stroke-width: 0; fill: rgb(182, 232, 128); fill-opacity: 0.5;"/></g><g class="legendlines"><path class="js-line" d="M5,-2h30" style="fill: none; stroke: rgb(182, 232, 128); stroke-opacity: 1; stroke-width: 2px;"/></g><g class="legendsymbols"><g class="legendpoints"/></g></g><rect class="legendtoggle" x="0" y="-9.5" width="215.765625" height="19" style="fill: rgb(0, 0, 0); fill-opacity: 0;"/></g></g><g class="groups" transform=""><g class="traces" transform="translate(0,184.7)" style="opacity: 1;"><text class="legendtext" text-anchor="start" x="40" y="4.680000000000001" style="font-family: 'Open Sans', verdana, arial, sans-serif; font-size: 12px; fill: rgb(242, 245, 250); fill-opacity: 1; white-space: pre;">Non Receptor Tyr Kinase</text><g class="layers"><g class="legendfill"><path class="js-fill" d="M5,-2h30v6h-30z" style="stroke-width: 0; fill: rgb(255, 151, 255); fill-opacity: 0.5;"/></g><g class="legendlines"><path class="js-line" d="M5,-2h30" style="fill: none; stroke: rgb(255, 151, 255); stroke-opacity: 1; stroke-width: 2px;"/></g><g class="legendsymbols"><g class="legendpoints"/></g></g><rect class="legendtoggle" x="0" y="-9.5" width="215.765625" height="19" style="fill: rgb(0, 0, 0); fill-opacity: 0;"/></g></g><g class="groups" transform=""><g class="traces" transform="translate(0,203.7)" style="opacity: 1;"><text class="legendtext" text-anchor="start" x="40" y="4.680000000000001" style="font-family: 'Open Sans', verdana, arial, sans-serif; font-size: 12px; fill: rgb(242, 245, 250); fill-opacity: 1; white-space: pre;">Other Protein Kinase</text><g class="layers"><g class="legendfill"><path class="js-fill" d="M5,-2h30v6h-30z" style="stroke-width: 0; fill: rgb(254, 203, 82); fill-opacity: 0.5;"/></g><g class="legendlines"><path class="js-line" d="M5,-2h30" style="fill: none; stroke: rgb(254, 203, 82); stroke-opacity: 1; stroke-width: 2px;"/></g><g class="legendsymbols"><g class="legendpoints"/></g></g><rect class="legendtoggle" x="0" y="-9.5" width="215.765625" height="19" style="fill: rgb(0, 0, 0); fill-opacity: 0;"/></g></g><g class="groups" transform=""><g class="traces" transform="translate(0,222.7)" style="opacity: 1;"><text class="legendtext" text-anchor="start" x="40" y="4.680000000000001" style="font-family: 'Open Sans', verdana, arial, sans-serif; font-size: 12px; fill: rgb(242, 245, 250); fill-opacity: 1; white-space: pre;">Histone Modifier</text><g class="layers"><g class="legendfill"><path class="js-fill" d="M5,-2h30v6h-30z" style="stroke-width: 0; fill: rgb(99, 110, 250); fill-opacity: 0.5;"/></g><g class="legendlines"><path class="js-line" d="M5,-2h30" style="fill: none; stroke: rgb(99, 110, 250); stroke-opacity: 1; stroke-width: 2px;"/></g><g class="legendsymbols"><g class="legendpoints"/></g></g><rect class="legendtoggle" x="0" y="-9.5" width="215.765625" height="19" style="fill: rgb(0, 0, 0); fill-opacity: 0;"/></g></g></g><rect class="scrollbar" rx="20" ry="3" width="0" height="0" style="fill: rgb(128, 139, 164); fill-opacity: 1;" x="0" y="0"/></g><g class="g-gtitle"><text class="gtitle" x="350" y="50" text-anchor="middle" dy="0em" style="opacity: 1; font-family: 'Open Sans', verdana, arial, sans-serif; font-size: 17px; fill: rgb(242, 245, 250); fill-opacity: 1; white-space: pre;">Citations Over Time by Target Class</text></g><g class="g-xtitle"><text class="xtitle" x="269.5" y="459.8" text-anchor="middle" style="opacity: 1; font-family: 'Open Sans', verdana, arial, sans-serif; font-size: 14px; fill: rgb(242, 245, 250); fill-opacity: 1; white-space: pre;">Publication Year</text></g><g class="g-ytitle"><text class="ytitle" transform="rotate(-90,37.240625,260)" x="37.240625" y="260" text-anchor="middle" style="opacity: 1; font-family: 'Open Sans', verdana, arial, sans-serif; font-size: 14px; fill: rgb(242, 245, 250); fill-opacity: 1; white-space: pre;">Citation Count</text></g></g></svg>
